{
.appVersion = "3436";
.formatVersion = 3;
DisplayStrings = (
ov
);
axes = (
{
default = 400;
name = Weight;
tag = wght;
},
{
default = 16;
name = "Optical size";
tag = opsz;
}
);
customParameters = (
{
name = vendorID;
value = UNDR;
},
{
name = panose;
value = (
2,
0,
5,
3,
0,
0,
0,
2,
0,
4
);
},
{
name = glyphOrder;
value = (
.notdef,
.null,
uni0041,
uni0042,
uni0043,
uni0044,
uni0045,
uni0046,
uni0047,
uni0048,
uni0049,
uni004A,
uni004B,
uni004C,
uni004D,
uni004E,
uni004F,
uni0050,
uni0051,
uni0052,
uni0053,
uni0054,
uni0055,
uni0056,
uni0057,
uni0058,
uni0059,
uniEE03,
uni005A,
uni0061,
uni0062,
uni0063,
uni0064,
uni0065,
uni0066,
uni0067,
uni0068,
uni0069,
uni006A,
uni006B,
uni006C,
uni006D,
uni006E,
uni006F,
uni0070,
uni0071,
uni0072,
uni0073,
uni0074,
uni0075,
uni0076,
uni0077,
uni0078,
uni0079,
uni007A,
uni0024,
uni20AA,
uni0030,
uni0031,
uni0032,
uni0033,
uni0034,
uni0035,
uni0036,
uni0037,
uni0038,
uni0039,
uniE071,
uniE072,
uniE073,
uniE074,
uniE075,
uniE076,
uniE077,
uniE078,
uniE079,
uniE07A,
uni0026,
uni0021,
uni203C,
uni2049,
uni003F,
uni0028,
uni0029,
uni005B,
uni005D,
uni007B,
uni007D,
uni0040,
uni0028.case,
uni0029.case,
uni005B.case,
uni005D.case,
uni007B.case,
uni007D.case,
uni0040.case,
uni0023,
uni002F,
uni007C,
uni00A6,
uni005C,
uni002D,
uni00AD,
uni2012,
uni25E6,
uni2043,
uni002D.case,
uni2012.case,
uni25E6.case,
uni2043.case,
uni0027,
uni0022,
uni2032,
uni2033,
uni2035,
uni2036,
uni02B9,
uni02BA,
uni002C,
uni002E,
uni003A,
uni003A.case,
uniEE01,
uni003B,
uniE093,
uniE094,
uniE095,
uniE096,
uni00B7,
uni2039,
uni203A,
uni003C,
uni003E,
uni2264,
uni2265,
uni003D,
uni2260,
uni002B,
uni2212,
uni00D7,
uni00F7,
uni00B1,
uni007E,
uni003C.case,
uni003E.case,
uni2264.case,
uni2265.case,
uni003D.case,
uni2260.case,
uni002B.case,
uni2212.case,
uni00D7.case,
uni00F7.case,
uni007E.case,
uni005F,
uni005E,
uni00AE,
uni00A9,
u1F12F,
uni2117,
uni2122,
uni00B0,
uniE0A5,
uniE0A6,
uni00B6,
uni204B,
uni221A,
uniE163,
uni2070,
uni00B9,
uni00B2,
uni00B3,
uni2074,

glyphs = (
{
glyphname = .notdef;
layers = (
{
layerId = m01;
shapes = (
{
closed = 1;
nodes = (
(140,0,l),
(1268,0,l),
(1268,1972,l),
(140,1972,l)
);
},
{
closed = 1;
nodes = (
(280,140,l),
(280,1832,l),
(1128,1832,l),
(1128,140,l)
);
}
);
width = 1408;
},
{
layerId = "F2C6FA2E-D08A-4B94-92D2-D7CA5820546A";
shapes = (
{
closed = 1;
nodes = (
(140,0,l),
(1268,0,l),
(1268,1972,l),
(140,1972,l)
);
},
{
closed = 1;
nodes = (
(280,140,l),
(280,1832,l),
(1128,1832,l),
(1128,140,l)
);
}
);
width = 1408;
},
{
layerId = "F8E60EAC-58E2-4CB8-A8B6-FD6FE89414CC";
shapes = (
{
closed = 1;
nodes = (
(140,0,l),
(1268,0,l),
(1268,1972,l),
(140,1972,l)
);
},
{
closed = 1;
nodes = (
(280,140,l),
(280,1832,l),
(1128,1832,l),
(1128,140,l)
);
}
);
width = 1408;
},
{
layerId = m004;
shapes = (
{
closed = 1;
nodes = (
(91,0,l),
(1219,0,l),
(1219,1972,l),
(91,1972,l)
);
},
{
closed = 1;
nodes = (
(231,140,l),
(231,1832,l),
(1079,1832,l),
(1079,140,l)
);
}
);
width = 1310;
},
{
layerId = m005;
shapes = (
{
closed = 1;
nodes = (
(91,0,l),
(1219,0,l),
(1219,1972,l),
(91,1972,l)
);
},
{
closed = 1;
nodes = (
(231,140,l),
(231,1832,l),
(1079,1832,l),
(1079,140,l)
);
}
);
width = 1310;
},
{
layerId = m006;
shapes = (
{
closed = 1;
nodes = (
(91,0,l),
(1219,0,l),
(1219,1972,l),
(91,1972,l)
);
},
{
closed = 1;
nodes = (
(231,140,l),
(231,1832,l),
(1079,1832,l),
(1079,140,l)
);
}
);
width = 1310;
}
);
},
{
glyphname = uni0041;
kernLeft = uni0041;
kernRight = uni0041;
lastChange = "2026-04-13 07:10:46 +0000";
layers = (
{
layerId = m01;
shapes = (
{
closed = 1;
nodes = (
(885,2048,l),
(1653,0,l),
(1925,0,l),
(1157,2048,l)
);
},
{
closed = 1;
nodes = (
(869,2048,l),
(101,0,l),
(373,0,l),
(1141,2048,l)
);
},
{
closed = 1;
nodes = (
(437,576,l),
(1605,576,l),
(1605,801,l),
(437,801,l)
);
}
);
width = 2026;
},
{
layerId = "F2C6FA2E-D08A-4B94-92D2-D7CA5820546A";
shapes = (
{
closed = 1;
nodes = (
(905,2048,l),
(1672,0,l),
(1739,0,l),
(972,2048,l)
);
},
{
closed = 1;
nodes = (
(885,2048,l),
(118,0,l),
(185,0,l),
(952,2048,l)
);
},
{
closed = 1;
nodes = (
(408,643,l),
(1449,643,l),
(1449,702,l),
(408,702,l)
);
}
);
width = 1857;
},
{
layerId = "F8E60EAC-58E2-4CB8-A8B6-FD6FE89414CC";
shapes = (
{
closed = 1;
nodes = (
(1457,2048,l),
(2243,0,l),
(3202,0,l),
(2418,2048,l)
);
},
{
closed = 1;
nodes = (
(882,2048,l),
(98,0,l),
(1057,0,l),
(1841,2048,l)
);
},
{
closed = 1;
nodes = (
(978,352,l),
(2402,352,l),
(2402,992,l),
(978,992,l)
);
}
);
width = 3300;
},
{
layerId = m004;
shapes = (
{
closed = 1;
nodes = (
(850,2048,l),
(1618,0,l),
(1890,0,l),
(1122,2048,l)
);
},
{
closed = 1;
nodes = (
(834,2048,l),
(66,0,l),
(338,0,l),
(1106,2048,l)
);
},
{
closed = 1;
nodes = (
(402,576,l),
(1570,576,l),
(1570,801,l),
(402,801,l)
);
}
);
width = 1956;
},
{
layerId = m005;
shapes = (
{
closed = 1;
nodes = (
(864,2048,l),
(1631,0,l),
(1698,0,l),
(931,2048,l)
);
},
{
closed = 1;
nodes = (
(844,2048,l),
(77,0,l),
(144,0,l),
(911,2048,l)
);
},
{
closed = 1;
nodes = (
(367,643,l),
(1408,643,l),
(1408,702,l),
(367,702,l)
);
}
);
width = 1775;
},
{
layerId = m006;
shapes = (
{
closed = 1;
nodes = (
(1423,2048,l),
(2209,0,l),
(3168,0,l),
(2384,2048,l)
);
},
{
closed = 1;
nodes = (
(848,2048,l),
(64,0,l),
(1023,0,l),
(1807,2048,l)
);
},
{
closed = 1;
nodes = (
(944,352,l),
(2368,352,l),
(2368,992,l),
(944,992,l)
);
}
);
width = 3232;
}
);
note = uni0041;
unicode = 65;
},
{
glyphname = uni0042;
kernLeft = uni0042;
kernRight = uni0042;
lastChange = "2026-04-09 08:54:05 +0000";
layers = (
{
layerId = m01;
shapes = (
{
closed = 1;
nodes = (
(401,1137,l),
(401,1824,l),
(972,1824,l),
(1162,1824,o),
(1316,1670,o),
(1316,1480,c),
(1316,1290,o),
(1162,1137,o),
(972,1137,c)
);
},
{
closed = 1;
nodes = (
(189,2048,l),
(189,992,l),
(1056,992,l),
(1349,992,o),
(1585,1228,o),
(1585,1519,c),
(1585,1812,o),
(1349,2048,o),
(1056,2048,c)
);
},
{
closed = 1;
nodes = (
(428,225,l),
(428,929,l),
(1053,929,l),
(1251,929,o),
(1413,771,o),
(1413,577,c),
(1413,383,o),
(1251,225,o),
(1053,225,c)
);
},
{
closed = 1;
nodes = (
(189,1056,l),
(189,0,l),
(1157,0,l),
(1449,0,o),
(1684,236,o),
(1684,529,c),
(1684,820,o),
(1449,1056,o),
(1157,1056,c)
);
},
{
closed = 1;
nodes = (
(189,0,l),
(446,0,l),
(446,2048,l),
(189,2048,l)
);
}
);
width = 1829;
},
{
layerId = "F2C6FA2E-D08A-4B94-92D2-D7CA5820546A";
shapes = (
{
closed = 1;
nodes = (
(336,1088,l),
(336,1984,l),
(997,1984,l),
(1244,1984,o),
(1445,1784,o),
(1445,1536,c),
(1445,1288,o),
(1244,1088,o),
(997,1088,c)
);
},
{
closed = 1;
nodes = (
(272,2048,l),
(272,1024,l),
(992,1024,l),
(1276,1024,o),
(1503,1254,o),
(1503,1536,c),
(1503,1818,o),
(1276,2048,o),
(992,2048,c)
);
},
{
closed = 1;
nodes = (
(318,64,l),
(318,1024,l),
(1024,1024,l),
(1289,1024,o),
(1515,810,o),
(1517,544,c),
(1515,278,o),
(1289,64,o),
(1024,64,c)
);
},
{
closed = 1;
nodes = (
(272,1088,l),
(272,0,l),
(1040,0,l),
(1340,0,o),
(1584,243,o),
(1584,544,c),
(1584,844,o),
(1340,1088,o),
(1040,1088,c)
);
},
{
closed = 1;
nodes = (
(272,0,l),
(336,0,l),
(336,2048,l),
(272,2048,l)
);
}
);
width = 1804;
},
{
layerId = "F8E60EAC-58E2-4CB8-A8B6-FD6FE89414CC";
shapes = (
{
closed = 1;
nodes = (
(1062,1295,l),
(1062,1512,l),
(1631,1512,l),
(1681,1512,o),
(1720,1452,o),
(1720,1404,c),
(1720,1356,o),
(1681,1295,o),
(1631,1295,c)
);
},
{
closed = 1;
nodes = (
(134,2048,l),
(134,1024,l),
(2008,1024,l),
(2290,1024,o),
(2519,1253,o),
(2519,1537,c),
(2519,1819,o),
(2290,2048,o),
(2008,2048,c)
);
},
{
closed = 1;
nodes = (
(1094,584,l),
(1094,816,l),
(1703,816,l),
(1757,816,o),
(1799,753,o),
(1799,700,c),
(1799,648,o),
(1757,584,o),
(1703,584,c)
);
},
{
closed = 1;
nodes = (
(134,1089,l),
(134,0,l),
(2104,0,l),
(2404,0,o),
(2648,244,o),
(2648,544,c),
(2648,845,o),
(2404,1089,o),
(2104,1089,c)
);
},
{
closed = 1;
nodes = (
(134,0,l),
(1094,0,l),
(1094,2048,l),
(134,2048,l)
);
}
);
width = 2748;
},
{
layerId = m004;
shapes = (
{
closed = 1;
nodes = (
(335,1137,l),
(335,1824,l),
(906,1824,l),
(1096,1824,o),
(1250,1670,o),
(1250,1480,c),
(1250,1290,o),
(1096,1137,o),
(906,1137,c)
);
},
{
closed = 1;
nodes = (
(123,2048,l),
(123,992,l),
(990,992,l),
(1283,992,o),
(1519,1228,o),
(1519,1519,c),
(1519,1812,o),
(1283,2048,o),
(990,2048,c)
);
},
{
closed = 1;
nodes = (
(362,225,l),
(362,929,l),
(987,929,l),
(1185,929,o),
(1347,771,o),
(1347,577,c),
(1347,383,o),
(1185,225,o),
(987,225,c)
);
},
{
closed = 1;
nodes = (
(123,1056,l),
(123,0,l),
(1091,0,l),
(1383,0,o),
(1618,236,o),
(1618,529,c),
(1618,820,o),
(1383,1056,o),
(1091,1056,c)
);
},
{
closed = 1;
nodes = (
(123,0,l),
(380,0,l),
(380,2048,l),
(123,2048,l)
);
}
);
width = 1712;
},
{
layerId = m005;
shapes = (
{
closed = 1;
nodes = (
(241,1088,l),
(241,1984,l),
(902,1984,l),
(1149,1984,o),
(1350,1784,o),
(1350,1536,c),
(1350,1288,o),
(1149,1088,o),
(902,1088,c)
);
},
{
closed = 1;
nodes = (
(177,2048,l),
(177,1024,l),
(897,1024,l),
(1181,1024,o),
(1408,1254,o),
(1408,1536,c),
(1408,1818,o),
(1181,2048,o),
(897,2048,c)
);
},
{
closed = 1;
nodes = (
(223,64,l),
(223,1024,l),
(929,1024,l),
(1194,1024,o),
(1420,810,o),
(1422,544,c),
(1420,278,o),
(1194,64,o),
(929,64,c)
);
},
{
closed = 1;
nodes = (
(177,1088,l),
(177,0,l),
(945,0,l),
(1245,0,o),
(1489,243,o),
(1489,544,c),
(1489,844,o),
(1245,1088,o),
(945,1088,c)
);
},
{
closed = 1;
nodes = (
(177,0,l),
(241,0,l),
(241,2048,l),
(177,2048,l)
);
}
);
width = 1632;
},
{
layerId = m006;
shapes = (
{
closed = 1;
nodes = (
(1015,1295,l),
(1015,1512,l),
(1584,1512,l),
(1634,1512,o),
(1673,1452,o),
(1673,1404,c),
(1673,1356,o),
(1634,1295,o),
(1584,1295,c)
);
},
{
closed = 1;
nodes = (
(87,2048,l),
(87,1024,l),
(1961,1024,l),
(2243,1024,o),
(2472,1253,o),
(2472,1537,c),
(2472,1819,o),
(2243,2048,o),
(1961,2048,c)
);
},
{
closed = 1;
nodes = (
(1047,584,l),
(1047,816,l),
(1656,816,l),
(1710,816,o),
(1752,753,o),
(1752,700,c),
(1752,648,o),
(1710,584,o),
(1656,584,c)
);
},
{
closed = 1;
nodes = (
(87,1089,l),
(87,0,l),
(2057,0,l),
(2357,0,o),
(2601,244,o),
(2601,544,c),
(2601,845,o),
(2357,1089,o),
(2057,1089,c)
);
},
{
closed = 1;
nodes = (
(87,0,l),
(1047,0,l),
(1047,2048,l),
(87,2048,l)
);
}
);
width = 2666;
}
);
note = uni0042;
unicode = 66;
},
{
glyphname = uni0043;
kernLeft = uni0043;
kernRight = uni0043;
lastChange = "2026-04-09 08:54:05 +0000";
layers = (
{
layerId = m01;
shapes = (
{
closed = 1;
nodes = (
(479,2075,o),
(149,1685,o),
(149,1029,c),
(149,370,o),
(479,-20,o),
(1062,-20,c),
(1527,-20,o),
(1830,228,o),
(1934,663,c),
(1629,663,l),
(1550,366,o),
(1357,203,o),
(1062,203,c),
(660,203,o),
(450,503,o),
(450,1029,c),
(450,1552,o),
(660,1852,o),
(1062,1852,c),
(1357,1852,o),
(1550,1689,o),
(1629,1392,c),
(1934,1392,l),
(1830,1828,o),
(1527,2075,o),
(1062,2075,c)
);
}
);
width = 2075;
},
{
layerId = "F2C6FA2E-D08A-4B94-92D2-D7CA5820546A";
shapes = (
{
closed = 1;
nodes = (
(485,2074,o),
(214,1604,o),
(214,1026,c),
(214,447,o),
(485,-23,o),
(1060,-23,c),
(1512,-23,o),
(1778,266,o),
(1872,671,c),
(1809,671,l),
(1720,291,o),
(1478,34,o),
(1064,34,c),
(530,34,o),
(286,472,o),
(286,1026,c),
(286,1579,o),
(530,2017,o),
(1064,2017,c),
(1478,2017,o),
(1720,1760,o),
(1809,1380,c),
(1872,1380,l),
(1778,1785,o),
(1512,2074,o),
(1060,2074,c)
);
}
);
width = 2084;
},
{
layerId = "F8E60EAC-58E2-4CB8-A8B6-FD6FE89414CC";
shapes = (
{
closed = 1;
nodes = (
(524,2075,o),
(130,1606,o),
(130,1027,c),
(130,449,o),
(524,-20,o),
(1363,-20,c),
(2141,-20,o),
(2536,383,o),
(2589,904,c),
(1661,904,l),
(1632,726,o),
(1533,596,o),
(1362,596,c),
(1153,596,o),
(1055,789,o),
(1055,1027,c),
(1055,1266,o),
(1153,1459,o),
(1362,1459,c),
(1526,1459,o),
(1622,1341,o),
(1657,1174,c),
(2587,1174,l),
(2524,1683,o),
(2129,2075,o),
(1363,2075,c)
);
}
);
width = 2717;
},
{
layerId = m004;
shapes = (
{
closed = 1;
nodes = (
(427,2075,o),
(97,1685,o),
(97,1029,c),
(97,370,o),
(427,-20,o),
(1010,-20,c),
(1475,-20,o),
(1778,228,o),
(1882,663,c),
(1577,663,l),
(1498,366,o),
(1305,203,o),
(1010,203,c),
(608,203,o),
(398,503,o),
(398,1029,c),
(398,1552,o),
(608,1852,o),
(1010,1852,c),
(1305,1852,o),
(1498,1689,o),
(1577,1392,c),
(1882,1392,l),
(1778,1828,o),
(1475,2075,o),
(1010,2075,c)
);
}
);
width = 1974;
},
{
layerId = m005;
shapes = (
{
closed = 1;
nodes = (
(410,2074,o),
(139,1604,o),
(139,1026,c),
(139,447,o),
(410,-23,o),
(985,-23,c),
(1437,-23,o),
(1703,266,o),
(1797,671,c),
(1734,671,l),
(1645,291,o),
(1403,34,o),
(989,34,c),
(455,34,o),
(211,472,o),
(211,1026,c),
(211,1579,o),
(455,2017,o),
(989,2017,c),
(1403,2017,o),
(1645,1760,o),
(1734,1380,c),
(1797,1380,l),
(1703,1785,o),
(1437,2074,o),
(985,2074,c)
);
}
);
width = 1935;
},
{
layerId = m006;
shapes = (
{
closed = 1;
nodes = (
(478,2075,o),
(84,1606,o),
(84,1027,c),
(84,449,o),
(478,-20,o),
(1317,-20,c),
(2095,-20,o),
(2490,383,o),
(2543,904,c),
(1615,904,l),
(1586,726,o),
(1487,596,o),
(1316,596,c),
(1107,596,o),
(1009,789,o),
(1009,1027,c),
(1009,1266,o),
(1107,1459,o),
(1316,1459,c),
(1480,1459,o),
(1576,1341,o),
(1611,1174,c),
(2541,1174,l),
(2478,1683,o),
(2083,2075,o),
(1317,2075,c)
);
}
);
width = 2626;
}
);
note = uni0043;
unicode = 67;
},
{
glyphname = uni0044;
kernLeft = uni0042;
kernRight = uni0044;
lastChange = "2026-04-09 08:54:05 +0000";
layers = (
{
layerId = m01;
shapes = (
{
closed = 1;
nodes = (
(978,0,ls),
(1463,0,o),
(1856,378,o),
(1856,1024,cs),
(1856,1670,o),
(1463,2048,o),
(978,2048,cs),
(189,2048,l),
(189,0,l)
);
},
{
closed = 1;
nodes = (
(445,1828,l),
(890,1828,ls),
(1274,1828,o),
(1565,1609,o),
(1565,1024,cs),
(1565,439,o),
(1274,224,o),
(890,224,cs),
(445,224,l)
);
}
);
width = 2005;
},
{
layerId = "F2C6FA2E-D08A-4B94-92D2-D7CA5820546A";
shapes = (
{
closed = 1;
nodes = (
(960,0,ls),
(1445,0,o),
(1838,378,o),
(1838,1024,cs),
(1838,1670,o),
(1445,2048,o),
(960,2048,cs),
(272,2048,l),
(272,0,l)
);
},
{
closed = 1;
nodes = (
(336,1985,l),
(960,1985,ls),
(1354,1985,o),
(1775,1670,o),
(1775,1024,cs),
(1775,377,o),
(1352,63,o),
(957,63,cs),
(336,63,l)
);
}
);
width = 2052;
},
{
layerId = "F8E60EAC-58E2-4CB8-A8B6-FD6FE89414CC";
shapes = (
{
closed = 1;
nodes = (
(1705,0,ls),
(2260,0,o),
(2709,378,o),
(2709,1024,cs),
(2709,1670,o),
(2260,2048,o),
(1705,2048,cs),
(134,2048,l),
(134,0,l)
);
},
{
closed = 1;
nodes = (
(1095,1411,l),
(1356,1411,ls),
(1581,1411,o),
(1752,1304,o),
(1752,1025,cs),
(1752,745,o),
(1581,640,o),
(1356,640,cs),
(1095,640,l)
);
}
);
width = 2839;
},
{
layerId = m004;
shapes = (
{
closed = 1;
nodes = (
(912,0,ls),
(1397,0,o),
(1790,378,o),
(1790,1024,cs),
(1790,1670,o),
(1397,2048,o),
(912,2048,cs),
(123,2048,l),
(123,0,l)
);
},
{
closed = 1;
nodes = (
(379,1828,l),
(824,1828,ls),
(1208,1828,o),
(1499,1609,o),
(1499,1024,cs),
(1499,439,o),
(1208,224,o),
(824,224,cs),
(379,224,l)
);
}
);
width = 1887;
},
{
layerId = m005;
shapes = (
{
closed = 1;
nodes = (
(865,0,ls),
(1350,0,o),
(1743,378,o),
(1743,1024,cs),
(1743,1670,o),
(1350,2048,o),
(865,2048,cs),
(177,2048,l),
(177,0,l)
);
},
{
closed = 1;
nodes = (
(241,1985,l),
(865,1985,ls),
(1259,1985,o),
(1680,1670,o),
(1680,1024,cs),
(1680,377,o),
(1257,63,o),
(862,63,cs),
(241,63,l)
);
}
);
width = 1882;
},
{
layerId = m006;
shapes = (
{
closed = 1;
nodes = (
(1658,0,ls),
(2213,0,o),
(2662,378,o),
(2662,1024,cs),
(2662,1670,o),
(2213,2048,o),
(1658,2048,cs),
(87,2048,l),
(87,0,l)
);
},
{
closed = 1;
nodes = (
(1048,1411,l),
(1309,1411,ls),
(1534,1411,o),
(1705,1304,o),
(1705,1025,cs),
(1705,745,o),
(1534,640,o),
(1309,640,cs),
(1048,640,l)
);
}
);
width = 2746;
}
);
note = uni0044;
unicode = 68;
},
{
glyphname = uni0045;
kernLeft = uni0042;
kernRight = uni0046;
lastChange = "2026-04-09 08:54:05 +0000";
layers = (
{
layerId = m01;
shapes = (
{
closed = 1;
nodes = (
(189,0,l),
(444,0,l),
(444,2048,l),
(189,2048,l)
);
},
{
closed = 1;
nodes = (
(257,1823,l),
(1440,1823,l),
(1440,2048,l),
(257,2048,l)
);
},
{
closed = 1;
nodes = (
(252,0,l),
(1440,0,l),
(1440,225,l),
(252,225,l)
);
},
{
closed = 1;
nodes = (
(237,911,l),
(1420,911,l),
(1420,1137,l),
(237,1137,l)
);
}
);
width = 1597;
},
{
layerId = "F2C6FA2E-D08A-4B94-92D2-D7CA5820546A";
shapes = (
{
closed = 1;
nodes = (
(272,0,l),
(336,0,l),
(336,2048,l),
(272,2048,l)
);
},
{
closed = 1;
nodes = (
(277,2000,l),
(1477,2000,l),
(1477,2048,l),
(277,2048,l)
);
},
{
closed = 1;
nodes = (
(341,0,l),
(1477,0,l),
(1477,48,l),
(341,48,l)
);
},
{
closed = 1;
nodes = (
(341,1009,l),
(1457,1009,l),
(1457,1056,l),
(341,1056,l)
);
}
);
width = 1691;
},
{
layerId = "F8E60EAC-58E2-4CB8-A8B6-FD6FE89414CC";
shapes = (
{
closed = 1;
nodes = (
(134,0,l),
(1095,0,l),
(1095,2048,l),
(134,2048,l)
);
},
{
closed = 1;
nodes = (
(295,1408,l),
(2375,1408,l),
(2375,2048,l),
(295,2048,l)
);
},
{
closed = 1;
nodes = (
(295,0,l),
(2375,0,l),
(2375,640,l),
(295,640,l)
);
},
{
closed = 1;
nodes = (
(295,786,l),
(2375,786,l),
(2375,1262,l),
(295,1262,l)
);
}
);
width = 2515;
},
{
layerId = m004;
shapes = (
{
closed = 1;
nodes = (
(123,0,l),
(378,0,l),
(378,2048,l),
(123,2048,l)
);
},
{
closed = 1;
nodes = (
(191,1823,l),
(1374,1823,l),
(1374,2048,l),
(191,2048,l)
);
},
{
closed = 1;
nodes = (
(186,0,l),
(1374,0,l),
(1374,225,l),
(186,225,l)
);
},
{
closed = 1;
nodes = (
(171,911,l),
(1354,911,l),
(1354,1137,l),
(171,1137,l)
);
}
);
width = 1476;
},
{
layerId = m005;
shapes = (
{
closed = 1;
nodes = (
(177,0,l),
(241,0,l),
(241,2048,l),
(177,2048,l)
);
},
{
closed = 1;
nodes = (
(182,2000,l),
(1382,2000,l),
(1382,2048,l),
(182,2048,l)
);
},
{
closed = 1;
nodes = (
(246,0,l),
(1382,0,l),
(1382,48,l),
(246,48,l)
);
},
{
closed = 1;
nodes = (
(246,1009,l),
(1362,1009,l),
(1362,1056,l),
(246,1056,l)
);
}
);
width = 1521;
},
{
layerId = m006;
shapes = (
{
closed = 1;
nodes = (
(87,0,l),
(1048,0,l),
(1048,2048,l),
(87,2048,l)
);
},
{
closed = 1;
nodes = (
(248,1408,l),
(2328,1408,l),
(2328,2048,l),
(248,2048,l)
);
},
{
closed = 1;
nodes = (
(248,0,l),
(2328,0,l),
(2328,640,l),
(248,640,l)
);
},
{
closed = 1;
nodes = (
(248,786,l),
(2328,786,l),
(2328,1262,l),
(248,1262,l)
);
}
);
width = 2419;
}
);
note = uni0045;
unicode = 69;
},
{
glyphname = uni0046;
kernLeft = uni0042;
kernRight = uni0046;
lastChange = "2026-04-09 08:54:05 +0000";
layers = (
{
layerId = m01;
shapes = (
{
closed = 1;
nodes = (
(189,0,l),
(444,0,l),
(444,2048,l),
(189,2048,l)
);
},
{
closed = 1;
nodes = (
(272,1824,l),
(1424,1824,l),
(1424,2048,l),
(272,2048,l)
);
},
{
closed = 1;
nodes = (
(236,911,l),
(1404,911,l),
(1404,1137,l),
(236,1137,l)
);
}
);
width = 1577;
},
{
layerId = "F2C6FA2E-D08A-4B94-92D2-D7CA5820546A";
shapes = (
{
closed = 1;
nodes = (
(272,0,l),
(336,0,l),
(336,2048,l),
(272,2048,l)
);
},
{
closed = 1;
nodes = (
(272,2000,l),
(1456,2000,l),
(1456,2048,l),
(272,2048,l)
);
},
{
closed = 1;
nodes = (
(272,1009,l),
(1436,1009,l),
(1436,1056,l),
(272,1056,l)
);
}
);
width = 1682;
},
{
layerId = "F8E60EAC-58E2-4CB8-A8B6-FD6FE89414CC";
shapes = (
{
closed = 1;
nodes = (
(134,0,l),
(1095,0,l),
(1095,2048,l),
(134,2048,l)
);
},
{
closed = 1;
nodes = (
(202,1408,l),
(2377,1408,l),
(2377,2048,l),
(202,2048,l)
);
},
{
closed = 1;
nodes = (
(202,786,l),
(2377,786,l),
(2377,1262,l),
(202,1262,l)
);
}
);
width = 2481;
},
{
layerId = m004;
shapes = (
{
closed = 1;
nodes = (
(123,0,l),
(378,0,l),
(378,2048,l),
(123,2048,l)
);
},
{
closed = 1;
nodes = (
(206,1824,l),
(1358,1824,l),
(1358,2048,l),
(206,2048,l)
);
},
{
closed = 1;
nodes = (
(170,911,l),
(1338,911,l),
(1338,1137,l),
(170,1137,l)
);
}
);
width = 1457;
},
{
layerId = m005;
shapes = (
{
closed = 1;
nodes = (
(177,0,l),
(241,0,l),
(241,2048,l),
(177,2048,l)
);
},
{
closed = 1;
nodes = (
(177,2000,l),
(1361,2000,l),
(1361,2048,l),
(177,2048,l)
);
},
{
closed = 1;
nodes = (
(177,1009,l),
(1341,1009,l),
(1341,1056,l),
(177,1056,l)
);
}
);
width = 1508;
},
{
layerId = m006;
shapes = (
{
closed = 1;
nodes = (
(87,0,l),
(1048,0,l),
(1048,2048,l),
(87,2048,l)
);
},
{
closed = 1;
nodes = (
(155,1408,l),
(2330,1408,l),
(2330,2048,l),
(155,2048,l)
);
},
{
closed = 1;
nodes = (
(155,786,l),
(2330,786,l),
(2330,1262,l),
(155,1262,l)
);
}
);
width = 2398;
}
);
note = uni0046;
unicode = 70;
},
{
glyphname = uni0047;
kernLeft = uni0043;
kernRight = uni0047;
lastChange = "2026-04-10 15:31:20 +0000";
layers = (
{
layerId = m01;
shapes = (
{
closed = 1;
nodes = (
(1645,-25,o),
(1939,388,o),
(1974,915,c),
(1976,951,o),
(1977,1097,o),
(1977,1133,c),
(1722,1133,l),
(1722,1097,o),
(1720,951,o),
(1717,915,c),
(1683,510,o),
(1456,197,o),
(1063,197,c),
(635,197,o),
(404,568,o),
(404,1023,c),
(404,1480,o),
(635,1850,o),
(1063,1850,c),
(1345,1850,o),
(1636,1685,o),
(1666,1349,c),
(1941,1349,l),
(1905,1727,o),
(1592,2073,o),
(1063,2073,c),
(440,2073,o),
(149,1603,o),
(149,1023,c),
(149,444,o),
(440,-25,o),
(1063,-25,c)
);
},
{
closed = 1;
nodes = (
(1957,915,l),
(1957,1023,l),
(1957,1133,l),
(1012,1133,l),
(1012,915,l)
);
}
);
width = 2130;
},
{
layerId = "F2C6FA2E-D08A-4B94-92D2-D7CA5820546A";
shapes = (
{
closed = 1;
nodes = (
(1636,-23,o),
(1917,388,o),
(1950,915,c),
(1952,951,o),
(1953,1020,o),
(1953,1056,c),
(1895,1056,l),
(1895,1036,o),
(1894,947,o),
(1889,904,c),
(1848,410,o),
(1590,34,o),
(1087,34,c),
(542,34,o),
(277,471,o),
(277,1024,c),
(277,1583,o),
(541,2016,o),
(1086,2016,c),
(1509,2016,o),
(1835,1700,o),
(1835,1350,c),
(1899,1350,l),
(1899,1710,o),
(1602,2073,o),
(1083,2073,c),
(491,2073,o),
(214,1603,o),
(214,1023,c),
(214,444,o),
(492,-23,o),
(1084,-23,c)
);
},
{
closed = 1;
nodes = (
(1931,1001,l),
(1931,1023,l),
(1931,1056,l),
(986,1056,l),
(986,1001,l)
);
}
);
width = 2179;
},
{
layerId = "F8E60EAC-58E2-4CB8-A8B6-FD6FE89414CC";
shapes = (
{
closed = 1;
nodes = (
(2306,-32,o),
(2734,388,o),
(2785,915,c),
(2787,951,o),
(2789,1188,o),
(2789,1224,c),
(1897,1224,l),
(1897,1205,o),
(1896,986,o),
(1895,967,c),
(1895,670,o),
(1689,590,o),
(1454,590,c),
(1199,590,o),
(1062,784,o),
(1062,1023,c),
(1062,1264,o),
(1159,1507,o),
(1454,1507,c),
(1650,1507,o),
(1701,1398,o),
(1749,1348,c),
(2745,1348,l),
(2602,1819,o),
(2119,2077,o),
(1461,2077,c),
(556,2077,o),
(130,1603,o),
(130,1023,c),
(130,444,o),
(556,-32,o),
(1461,-32,c)
);
},
{
closed = 1;
nodes = (
(2703,808,l),
(2703,950,l),
(2703,1224,l),
(1309,1224,l),
(1309,808,l)
);
}
);
width = 2921;
},
{
layerId = m004;
shapes = (
{
closed = 1;
nodes = (
(1593,-25,o),
(1887,388,o),
(1922,915,c),
(1924,951,o),
(1925,1097,o),
(1925,1133,c),
(1670,1133,l),
(1670,1097,o),
(1668,951,o),
(1665,915,c),
(1631,510,o),
(1404,197,o),
(1011,197,c),
(583,197,o),
(352,568,o),
(352,1023,c),
(352,1480,o),
(583,1850,o),
(1011,1850,c),
(1293,1850,o),
(1584,1685,o),
(1614,1349,c),
(1889,1349,l),
(1853,1727,o),
(1540,2073,o),
(1011,2073,c),
(388,2073,o),
(97,1603,o),
(97,1023,c),
(97,444,o),
(388,-25,o),
(1011,-25,c)
);
},
{
closed = 1;
nodes = (
(1905,915,l),
(1905,1023,l),
(1905,1133,l),
(960,1133,l),
(960,915,l)
);
}
);
width = 2024;
},
{
layerId = m005;
shapes = (
{
closed = 1;
nodes = (
(1561,-23,o),
(1842,388,o),
(1875,915,c),
(1877,951,o),
(1878,1020,o),
(1878,1056,c),
(1820,1056,l),
(1820,1036,o),
(1819,947,o),
(1814,904,c),
(1773,410,o),
(1515,34,o),
(1012,34,c),
(467,34,o),
(202,471,o),
(202,1024,c),
(202,1583,o),
(466,2016,o),
(1011,2016,c),
(1434,2016,o),
(1760,1700,o),
(1760,1350,c),
(1824,1350,l),
(1824,1710,o),
(1527,2073,o),
(1008,2073,c),
(416,2073,o),
(139,1603,o),
(139,1023,c),
(139,444,o),
(417,-23,o),
(1009,-23,c)
);
},
{
closed = 1;
nodes = (
(1856,1001,l),
(1856,1023,l),
(1856,1056,l),
(911,1056,l),
(911,1001,l)
);
}
);
width = 2025;
},
{
layerId = m006;
shapes = (
{
closed = 1;
nodes = (
(2260,-32,o),
(2688,388,o),
(2739,915,c),
(2741,951,o),
(2743,1188,o),
(2743,1224,c),
(1851,1224,l),
(1851,1205,o),
(1850,986,o),
(1849,967,c),
(1849,670,o),
(1643,590,o),
(1408,590,c),
(1153,590,o),
(1016,784,o),
(1016,1023,c),
(1016,1264,o),
(1113,1507,o),
(1408,1507,c),
(1604,1507,o),
(1655,1398,o),
(1703,1348,c),
(2699,1348,l),
(2556,1819,o),
(2073,2077,o),
(1415,2077,c),
(510,2077,o),
(84,1603,o),
(84,1023,c),
(84,444,o),
(510,-32,o),
(1415,-32,c)
);
},
{
closed = 1;
nodes = (
(2657,808,l),
(2657,950,l),
(2657,1224,l),
(1263,1224,l),
(1263,808,l)
);
}
);
width = 2829;
}
);
note = uni0047;
unicode = 71;
},
{
glyphname = uni0048;
kernLeft = uni0042;
kernRight = uni0048;
lastChange = "2026-04-09 08:54:05 +0000";
layers = (
{
layerId = m01;
shapes = (
{
closed = 1;
nodes = (
(189,0,l),
(446,0,l),
(446,2048,l),
(189,2048,l)
);
},
{
closed = 1;
nodes = (
(1518,0,l),
(1773,0,l),
(1773,2048,l),
(1518,2048,l)
);
},
{
closed = 1;
nodes = (
(333,911,l),
(1678,911,l),
(1678,1137,l),
(333,1137,l)
);
}
);
width = 1962;
},
{
layerId = "F2C6FA2E-D08A-4B94-92D2-D7CA5820546A";
shapes = (
{
closed = 1;
nodes = (
(272,0,l),
(336,0,l),
(336,2048,l),
(272,2048,l)
);
},
{
closed = 1;
nodes = (
(1599,0,l),
(1663,0,l),
(1663,2048,l),
(1599,2048,l)
);
},
{
closed = 1;
nodes = (
(292,987,l),
(1637,987,l),
(1637,1039,l),
(292,1039,l)
);
}
);
width = 1935;
},
{
layerId = "F8E60EAC-58E2-4CB8-A8B6-FD6FE89414CC";
shapes = (
{
closed = 1;
nodes = (
(134,0,l),
(1093,0,l),
(1093,2048,l),
(134,2048,l)
);
},
{
closed = 1;
nodes = (
(1829,0,l),
(2789,0,l),
(2789,2048,l),
(1829,2048,l)
);
},
{
closed = 1;
nodes = (
(741,672,l),
(2085,672,l),
(2085,1311,l),
(741,1311,l)
);
}
);
width = 2923;
},
{
layerId = m004;
shapes = (
{
closed = 1;
nodes = (
(123,0,l),
(380,0,l),
(380,2048,l),
(123,2048,l)
);
},
{
closed = 1;
nodes = (
(1452,0,l),
(1707,0,l),
(1707,2048,l),
(1452,2048,l)
);
},
{
closed = 1;
nodes = (
(267,911,l),
(1612,911,l),
(1612,1137,l),
(267,1137,l)
);
}
);
width = 1830;
},
{
layerId = m005;
shapes = (
{
closed = 1;
nodes = (
(177,0,l),
(241,0,l),
(241,2048,l),
(177,2048,l)
);
},
{
closed = 1;
nodes = (
(1504,0,l),
(1568,0,l),
(1568,2048,l),
(1504,2048,l)
);
},
{
closed = 1;
nodes = (
(197,987,l),
(1542,987,l),
(1542,1039,l),
(197,1039,l)
);
}
);
width = 1745;
},
{
layerId = m006;
shapes = (
{
closed = 1;
nodes = (
(87,0,l),
(1046,0,l),
(1046,2048,l),
(87,2048,l)
);
},
{
closed = 1;
nodes = (
(1782,0,l),
(2742,0,l),
(2742,2048,l),
(1782,2048,l)
);
},
{
closed = 1;
nodes = (
(694,672,l),
(2038,672,l),
(2038,1311,l),
(694,1311,l)
);
}
);
width = 2829;
}
);
note = uni0048;
unicode = 72;
},
{
glyphname = uni0049;
kernLeft = uni0042;
kernRight = uni0048;
lastChange = "2026-04-09 08:54:05 +0000";
layers = (
{
layerId = m01;
shapes = (
{
closed = 1;
nodes = (
(189,0,l),
(446,0,l),
(446,2048,l),
(189,2048,l)
);
}
);
width = 635;
},
{
layerId = "F2C6FA2E-D08A-4B94-92D2-D7CA5820546A";
shapes = (
{
closed = 1;
nodes = (
(272,0,l),
(337,0,l),
(337,2048,l),
(272,2048,l)
);
}
);
width = 609;
},
{
layerId = "F8E60EAC-58E2-4CB8-A8B6-FD6FE89414CC";
shapes = (
{
closed = 1;
nodes = (
(134,0,l),
(1093,0,l),
(1093,2048,l),
(134,2048,l)
);
}
);
width = 1227;
},
{
layerId = m004;
shapes = (
{
closed = 1;
nodes = (
(123,0,l),
(380,0,l),
(380,2048,l),
(123,2048,l)
);
}
);
width = 503;
},
{
layerId = m005;
shapes = (
{
closed = 1;
nodes = (
(177,0,l),
(242,0,l),
(242,2048,l),
(177,2048,l)
);
}
);
width = 419;
},
{
layerId = m006;
shapes = (
{
closed = 1;
nodes = (
(87,0,l),
(1046,0,l),
(1046,2048,l),
(87,2048,l)
);
}
);
width = 1133;
}
);
note = uni0049;
unicode = 73;
},
{
glyphname = uni004A;
kernLeft = uni004A;
kernRight = uni004A;
lastChange = "2026-04-09 08:54:05 +0000";
layers = (
{
layerId = m01;
shapes = (
{
closed = 1;
nodes = (
(1349,2048,l),
(1091,2048,l),
(1091,532,l),
(1091,336,o),
(932,177,o),
(736,177,c),
(540,177,o),
(381,336,o),
(381,532,c),
(123,532,l),
(123,226,o),
(398,-48,o),
(736,-48,c),
(1075,-48,o),
(1349,226,o),
(1349,565,c)
);
}
);
width = 1538;
},
{
layerId = "F2C6FA2E-D08A-4B94-92D2-D7CA5820546A";
shapes = (
{
closed = 1;
nodes = (
(1215,2048,l),
(1151,2048,l),
(1151,502,l),
(1151,251,o),
(982,28,o),
(701,28,c),
(444,28,o),
(252,231,o),
(252,502,c),
(188,502,l),
(178,206,o),
(414,-36,o),
(692,-36,c),
(950,-36,o),
(1215,146,o),
(1215,505,c)
);
}
);
width = 1487;
},
{
layerId = "F8E60EAC-58E2-4CB8-A8B6-FD6FE89414CC";
shapes = (
{
closed = 1;
nodes = (
(2745,2048,l),
(1778,2048,l),
(1778,872,l),
(1778,719,o),
(1631,597,o),
(1415,597,c),
(1198,597,o),
(1053,719,o),
(1053,872,c),
(84,872,l),
(106,210,o),
(578,-49,o),
(1415,-49,c),
(2272,-49,o),
(2745,225,o),
(2745,919,c)
);
}
);
width = 2874;
},
{
layerId = m004;
shapes = (
{
closed = 1;
nodes = (
(1306,2048,l),
(1048,2048,l),
(1048,532,l),
(1048,336,o),
(889,177,o),
(693,177,c),
(497,177,o),
(338,336,o),
(338,532,c),
(80,532,l),
(80,226,o),
(355,-48,o),
(693,-48,c),
(1032,-48,o),
(1306,226,o),
(1306,565,c)
);
}
);
width = 1429;
},
{
layerId = m005;
shapes = (
{
closed = 1;
nodes = (
(1153,2048,l),
(1089,2048,l),
(1089,502,l),
(1089,251,o),
(920,28,o),
(639,28,c),
(382,28,o),
(190,231,o),
(190,502,c),
(126,502,l),
(116,206,o),
(352,-36,o),
(630,-36,c),
(888,-36,o),
(1153,146,o),
(1153,505,c)
);
}
);
width = 1330;
},
{
layerId = m006;
shapes = (
{
closed = 1;
nodes = (
(2716,2048,l),
(1749,2048,l),
(1749,872,l),
(1749,719,o),
(1602,597,o),
(1386,597,c),
(1169,597,o),
(1024,719,o),
(1024,872,c),
(55,872,l),
(77,210,o),
(549,-49,o),
(1386,-49,c),
(2243,-49,o),
(2716,225,o),
(2716,919,c)
);
}
);
width = 2800;
}
);
note = uni004A;
unicode = 74;
},
{
glyphname = uni004B;
kernLeft = uni0042;
kernRight = uni004B;
lastChange = "2026-04-14 12:39:21 +0000";
layers = (
{
layerId = m01;
shapes = (
{
closed = 1;
nodes = (
(189,0,l),
(445,0,l),
(445,2048,l),
(189,2048,l)
);
},
{
closed = 1;
nodes = (
(1373,2048,l),
(445,1120,l),
(781,1120,l),
(1709,2048,l)
);
},
{
closed = 1;
nodes = (
(445,1120,l),
(1454,0,l),
(1789,0,l),
(781,1120,l)
);
}
);
width = 1890;
},
{
layerId = "F2C6FA2E-D08A-4B94-92D2-D7CA5820546A";
shapes = (
{
closed = 1;
nodes = (
(272,0,l),
(335,0,l),
(335,2048,l),
(272,2048,l)
);
},
{
closed = 1;
nodes = (
(1423,2048,l),
(335,1120,l),
(431,1120,l),
(1519,2048,l)
);
},
{
closed = 1;
nodes = (
(335,1120,l),
(1503,0,l),
(1599,0,l),
(431,1120,l)
);
}
);
width = 1759;
},
{
layerId = "F8E60EAC-58E2-4CB8-A8B6-FD6FE89414CC";
shapes = (
{
closed = 1;
nodes = (
(129,0,l),
(1089,0,l),
(1089,2048,l),
(129,2048,l)
);
},
{
closed = 1;
nodes = (
(2017,2048,l),
(1089,1120,l),
(2129,1120,l),
(3057,2048,l)
);
},
{
closed = 1;
nodes = (
(1089,1120,l),
(2144,0,l),
(3185,0,l),
(2129,1120,l)
);
}
);
width = 3261;
},
{
layerId = m004;
shapes = (
{
closed = 1;
nodes = (
(123,0,l),
(379,0,l),
(379,2048,l),
(123,2048,l)
);
},
{
closed = 1;
nodes = (
(1307,2048,l),
(379,1120,l),
(715,1120,l),
(1643,2048,l)
);
},
{
closed = 1;
nodes = (
(379,1120,l),
(1388,0,l),
(1723,0,l),
(715,1120,l)
);
}
);
width = 1789;
},
{
layerId = m005;
shapes = (
{
closed = 1;
nodes = (
(177,0,l),
(240,0,l),
(240,2048,l),
(177,2048,l)
);
},
{
closed = 1;
nodes = (
(1328,2048,l),
(240,1120,l),
(336,1120,l),
(1424,2048,l)
);
},
{
closed = 1;
nodes = (
(240,1120,l),
(1408,0,l),
(1504,0,l),
(336,1120,l)
);
}
);
width = 1608;
},
{
layerId = m006;
shapes = (
{
closed = 1;
nodes = (
(84,0,l),
(1044,0,l),
(1044,2048,l),
(84,2048,l)
);
},
{
closed = 1;
nodes = (
(1972,2048,l),
(1044,1120,l),
(2084,1120,l),
(3012,2048,l)
);
},
{
closed = 1;
nodes = (
(1044,1120,l),
(2099,0,l),
(3140,0,l),
(2084,1120,l)
);
}
);
width = 3189;
}
);
note = uni004B;
unicode = 75;
},
{
glyphname = uni004C;
kernLeft = uni004C;
kernRight = uni004C;
lastChange = "2026-04-09 08:54:05 +0000";
layers = (
{
layerId = m01;
shapes = (
{
closed = 1;
nodes = (
(189,0,l),
(445,0,l),
(445,2048,l),
(189,2048,l)
);
},
{
closed = 1;
nodes = (
(189,0,l),
(1453,0,l),
(1453,224,l),
(189,224,l)
);
}
);
width = 1586;
},
{
layerId = "F2C6FA2E-D08A-4B94-92D2-D7CA5820546A";
shapes = (
{
closed = 1;
nodes = (
(272,0,l),
(336,0,l),
(336,2048,l),
(272,2048,l)
);
},
{
closed = 1;
nodes = (
(272,0,l),
(1456,0,l),
(1456,56,l),
(272,56,l)
);
}
);
width = 1606;
},
{
layerId = "F8E60EAC-58E2-4CB8-A8B6-FD6FE89414CC";
shapes = (
{
closed = 1;
nodes = (
(134,0,l),
(1095,0,l),
(1095,2048,l),
(134,2048,l)
);
},
{
closed = 1;
nodes = (
(134,0,l),
(2374,0,l),
(2374,640,l),
(134,640,l)
);
}
);
width = 2488;
},
{
layerId = m004;
shapes = (
{
closed = 1;
nodes = (
(123,0,l),
(379,0,l),
(379,2048,l),
(123,2048,l)
);
},
{
closed = 1;
nodes = (
(123,0,l),
(1387,0,l),
(1387,224,l),
(123,224,l)
);
}
);
width = 1473;
},
{
layerId = m005;
shapes = (
{
closed = 1;
nodes = (
(177,0,l),
(241,0,l),
(241,2048,l),
(177,2048,l)
);
},
{
closed = 1;
nodes = (
(177,0,l),
(1361,0,l),
(1361,56,l),
(177,56,l)
);
}
);
width = 1459;
},
{
layerId = m006;
shapes = (
{
closed = 1;
nodes = (
(87,0,l),
(1048,0,l),
(1048,2048,l),
(87,2048,l)
);
},
{
closed = 1;
nodes = (
(87,0,l),
(2327,0,l),
(2327,640,l),
(87,640,l)
);
}
);
width = 2401;
}
);
note = uni004C;
unicode = 76;
},
{
glyphname = uni004D;
kernLeft = uni0042;
kernRight = uni0048;
lastChange = "2026-04-09 08:54:05 +0000";
layers = (
{
layerId = m01;
shapes = (
{
closed = 1;
nodes = (
(194,0,l),
(451,0,l),
(451,2048,l),
(194,2048,l)
);
},
{
closed = 1;
nodes = (
(1918,0,l),
(2174,0,l),
(2174,2048,l),
(1918,2048,l)
);
},
{
closed = 1;
nodes = (
(1865,2048,l),
(1065,0,l),
(1326,0,l),
(2126,2048,l)
);
},
{
closed = 1;
nodes = (
(259,2048,l),
(1059,0,l),
(1320,0,l),
(520,2048,l)
);
}
);
width = 2368;
},
{
layerId = "F2C6FA2E-D08A-4B94-92D2-D7CA5820546A";
shapes = (
{
closed = 1;
nodes = (
(272,0,l),
(336,0,l),
(336,2048,l),
(272,2048,l)
);
},
{
closed = 1;
nodes = (
(2095,0,l),
(2159,0,l),
(2159,2048,l),
(2095,2048,l)
);
},
{
closed = 1;
nodes = (
(2056,2048,l),
(1192,10,l),
(1264,10,l),
(2127,2048,l)
);
},
{
closed = 1;
nodes = (
(304,2048,l),
(1167,10,l),
(1240,10,l),
(375,2048,l)
);
}
);
width = 2431;
},
{
layerId = "F8E60EAC-58E2-4CB8-A8B6-FD6FE89414CC";
shapes = (
{
closed = 1;
nodes = (
(134,0,l),
(1094,0,l),
(1094,2048,l),
(134,2048,l)
);
},
{
closed = 1;
nodes = (
(2614,0,l),
(3574,0,l),
(3574,2048,l),
(2614,2048,l)
);
},
{
closed = 1;
nodes = (
(2310,2048,l),
(1540,0,l),
(2181,0,l),
(2950,2048,l)
);
},
{
closed = 1;
nodes = (
(773,2048,l),
(1540,0,l),
(2181,0,l),
(1413,2048,l)
);
}
);
width = 3708;
},
{
layerId = m004;
shapes = (
{
closed = 1;
nodes = (
(126,0,l),
(383,0,l),
(383,2048,l),
(126,2048,l)
);
},
{
closed = 1;
nodes = (
(1850,0,l),
(2106,0,l),
(2106,2048,l),
(1850,2048,l)
);
},
{
closed = 1;
nodes = (
(1797,2048,l),
(997,0,l),
(1258,0,l),
(2058,2048,l)
);
},
{
closed = 1;
nodes = (
(191,2048,l),
(991,0,l),
(1252,0,l),
(452,2048,l)
);
}
);
width = 2232;
},
{
layerId = m005;
shapes = (
{
closed = 1;
nodes = (
(177,0,l),
(241,0,l),
(241,2048,l),
(177,2048,l)
);
},
{
closed = 1;
nodes = (
(2000,0,l),
(2064,0,l),
(2064,2048,l),
(2000,2048,l)
);
},
{
closed = 1;
nodes = (
(1961,2048,l),
(1097,10,l),
(1169,10,l),
(2032,2048,l)
);
},
{
closed = 1;
nodes = (
(209,2048,l),
(1072,10,l),
(1145,10,l),
(280,2048,l)
);
}
);
width = 2241;
},
{
layerId = m006;
shapes = (
{
closed = 1;
nodes = (
(87,0,l),
(1047,0,l),
(1047,2048,l),
(87,2048,l)
);
},
{
closed = 1;
nodes = (
(2567,0,l),
(3527,0,l),
(3527,2048,l),
(2567,2048,l)
);
},
{
closed = 1;
nodes = (
(2263,2048,l),
(1493,0,l),
(2134,0,l),
(2903,2048,l)
);
},
{
closed = 1;
nodes = (
(726,2048,l),
(1493,0,l),
(2134,0,l),
(1366,2048,l)
);
}
);
width = 3614;
}
);
note = uni004D;
unicode = 77;
},
{
glyphname = uni004E;
kernLeft = uni0042;
kernRight = uni0048;
lastChange = "2026-04-09 08:54:05 +0000";
layers = (
{
layerId = m01;
shapes = (
{
closed = 1;
nodes = (
(189,0,l),
(446,0,l),
(446,2048,l),
(189,2048,l)
);
},
{
closed = 1;
nodes = (
(1518,0,l),
(1773,0,l),
(1773,2048,l),
(1518,2048,l)
);
},
{
closed = 1;
nodes = (
(222,2048,l),
(1470,0,l),
(1741,0,l),
(494,2048,l)
);
}
);
width = 1962;
},
{
layerId = "F2C6FA2E-D08A-4B94-92D2-D7CA5820546A";
shapes = (
{
closed = 1;
nodes = (
(272,0,l),
(336,0,l),
(336,2048,l),
(272,2048,l)
);
},
{
closed = 1;
nodes = (
(1632,0,l),
(1696,0,l),
(1696,2048,l),
(1632,2048,l)
);
},
{
closed = 1;
nodes = (
(304,2048,l),
(1584,0,l),
(1664,0,l),
(384,2048,l)
);
}
);
width = 1968;
},
{
layerId = "F8E60EAC-58E2-4CB8-A8B6-FD6FE89414CC";
shapes = (
{
closed = 1;
nodes = (
(134,0,l),
(1094,0,l),
(1094,2048,l),
(134,2048,l)
);
},
{
closed = 1;
nodes = (
(1942,0,l),
(2902,0,l),
(2902,2048,l),
(1942,2048,l)
);
},
{
closed = 1;
nodes = (
(470,2048,l),
(1830,0,l),
(2581,0,l),
(1221,2048,l)
);
}
);
width = 3036;
},
{
layerId = m004;
shapes = (
{
closed = 1;
nodes = (
(123,0,l),
(380,0,l),
(380,2048,l),
(123,2048,l)
);
},
{
closed = 1;
nodes = (
(1452,0,l),
(1707,0,l),
(1707,2048,l),
(1452,2048,l)
);
},
{
closed = 1;
nodes = (
(156,2048,l),
(1404,0,l),
(1675,0,l),
(428,2048,l)
);
}
);
width = 1830;
},
{
layerId = m005;
shapes = (
{
closed = 1;
nodes = (
(177,0,l),
(241,0,l),
(241,2048,l),
(177,2048,l)
);
},
{
closed = 1;
nodes = (
(1537,0,l),
(1601,0,l),
(1601,2048,l),
(1537,2048,l)
);
},
{
closed = 1;
nodes = (
(209,2048,l),
(1489,0,l),
(1569,0,l),
(289,2048,l)
);
}
);
width = 1778;
},
{
layerId = m006;
shapes = (
{
closed = 1;
nodes = (
(87,0,l),
(1047,0,l),
(1047,2048,l),
(87,2048,l)
);
},
{
closed = 1;
nodes = (
(1895,0,l),
(2855,0,l),
(2855,2048,l),
(1895,2048,l)
);
},
{
closed = 1;
nodes = (
(423,2048,l),
(1783,0,l),
(2534,0,l),
(1174,2048,l)
);
}
);
width = 2942;
}
);
note = uni004E;
unicode = 78;
},
{
glyphname = uni004F;
kernLeft = uni0043;
kernRight = uni0044;
lastChange = "2026-04-14 12:34:43 +0000";
layers = (
{
layerId = m01;
shapes = (
{
closed = 1;
nodes = (
(638,189,o),
(436,561,o),
(436,1022,c),
(436,1481,o),
(638,1853,o),
(1069,1853,c),
(1500,1853,o),
(1701,1481,o),
(1701,1022,c),
(1701,561,o),
(1500,189,o),
(1069,189,c)
);
},
{
closed = 1;
nodes = (
(442,2077,o),
(149,1604,o),
(149,1022,c),
(149,439,o),
(442,-35,o),
(1069,-35,c),
(1695,-35,o),
(1988,439,o),
(1988,1022,c),
(1988,1604,o),
(1695,2077,o),
(1069,2077,c)
);
}
);
width = 2137;
},
{
layerId = "F2C6FA2E-D08A-4B94-92D2-D7CA5820546A";
shapes = (
{
closed = 1;
nodes = (
(562,15,o),
(278,465,o),
(278,1021,c),
(278,1577,o),
(562,2026,o),
(1140,2026,c),
(1719,2026,o),
(1993,1577,o),
(1993,1021,c),
(1993,465,o),
(1719,15,o),
(1140,15,c)
);
},
{
closed = 1;
nodes = (
(507,2077,o),
(214,1604,o),
(214,1021,c),
(214,437,o),
(507,-35,o),
(1132,-35,c),
(1758,-35,o),
(2056,437,o),
(2056,1021,c),
(2056,1604,o),
(1758,2077,o),
(1132,2077,c)
);
}
);
width = 2270;
},
{
layerId = "F8E60EAC-58E2-4CB8-A8B6-FD6FE89414CC";
shapes = (
{
closed = 1;
nodes = (
(1159,587,o),
(1060,780,o),
(1060,1022,c),
(1060,1261,o),
(1159,1455,o),
(1371,1455,c),
(1583,1455,o),
(1682,1261,o),
(1682,1022,c),
(1682,780,o),
(1583,587,o),
(1371,587,c)
);
},
{
closed = 1;
nodes = (
(524,2077,o),
(130,1604,o),
(130,1022,c),
(130,439,o),
(524,-35,o),
(1371,-35,c),
(2216,-35,o),
(2612,439,o),
(2612,1022,c),
(2612,1604,o),
(2216,2077,o),
(1371,2077,c)
);
}
);
width = 2742;
},
{
layerId = m004;
shapes = (
{
closed = 1;
nodes = (
(586,189,o),
(384,561,o),
(384,1022,c),
(384,1481,o),
(586,1853,o),
(1017,1853,c),
(1448,1853,o),
(1649,1481,o),
(1649,1022,c),
(1649,561,o),
(1448,189,o),
(1017,189,c)
);
},
{
closed = 1;
nodes = (
(390,2077,o),
(97,1604,o),
(97,1022,c),
(97,439,o),
(390,-35,o),
(1017,-35,c),
(1643,-35,o),
(1936,439,o),
(1936,1022,c),
(1936,1604,o),
(1643,2077,o),
(1017,2077,c)
);
}
);
width = 2033;
},
{
layerId = m005;
shapes = (
{
closed = 1;
nodes = (
(487,15,o),
(203,465,o),
(203,1021,c),
(203,1577,o),
(487,2026,o),
(1065,2026,c),
(1644,2026,o),
(1918,1577,o),
(1918,1021,c),
(1918,465,o),
(1644,15,o),
(1065,15,c)
);
},
{
closed = 1;
nodes = (
(432,2077,o),
(139,1604,o),
(139,1021,c),
(139,437,o),
(432,-35,o),
(1057,-35,c),
(1683,-35,o),
(1981,437,o),
(1981,1021,c),
(1981,1604,o),
(1683,2077,o),
(1057,2077,c)
);
}
);
width = 2120;
},
{
layerId = m006;
shapes = (
{
closed = 1;
nodes = (
(1113,587,o),
(1014,780,o),
(1014,1022,c),
(1014,1261,o),
(1113,1455,o),
(1325,1455,c),
(1537,1455,o),
(1636,1261,o),
(1636,1022,c),
(1636,780,o),
(1537,587,o),
(1325,587,c)
);
},
{
closed = 1;
nodes = (
(478,2077,o),
(84,1604,o),
(84,1022,c),
(84,439,o),
(478,-35,o),
(1325,-35,c),
(2170,-35,o),
(2566,439,o),
(2566,1022,c),
(2566,1604,o),
(2170,2077,o),
(1325,2077,c)
);
}
);
width = 2650;
}
);
note = uni004F;
unicode = 79;
},
{
glyphname = uni0050;
kernLeft = uni0042;
kernRight = uni0050;
lastChange = "2026-04-09 08:54:05 +0000";
layers = (
{
layerId = m01;
shapes = (
{
closed = 1;
nodes = (
(189,0,l),
(445,0,l),
(445,2048,l),
(189,2048,l)
);
},
{
closed = 1;
nodes = (
(397,2048,l),
(397,1824,l),
(950,1824,l),
(1139,1824,o),
(1293,1670,o),
(1293,1480,c),
(1293,1290,o),
(1139,1137,o),
(950,1137,c),
(397,1137,l),
(397,911,l),
(997,911,l),
(1311,911,o),
(1566,1166,o),
(1566,1480,c),
(1566,1794,o),
(1311,2048,o),
(997,2048,c)
);
}
);
width = 1707;
},
{
layerId = "F2C6FA2E-D08A-4B94-92D2-D7CA5820546A";
shapes = (
{
closed = 1;
nodes = (
(272,0,l),
(336,0,l),
(336,2048,l),
(272,2048,l)
);
},
{
closed = 1;
nodes = (
(335,2048,l),
(335,1995,l),
(937,1995,l),
(1210,1995,o),
(1440,1783,o),
(1440,1496,c),
(1440,1207,o),
(1210,997,o),
(937,997,c),
(335,997,l),
(335,944,l),
(945,944,l),
(1269,944,o),
(1504,1181,o),
(1504,1497,c),
(1504,1811,o),
(1269,2048,o),
(945,2048,c)
);
}
);
width = 1716;
},
{
layerId = "F8E60EAC-58E2-4CB8-A8B6-FD6FE89414CC";
shapes = (
{
closed = 1;
nodes = (
(134,0,l),
(1092,0,l),
(1092,2048,l),
(134,2048,l)
);
},
{
closed = 1;
nodes = (
(1044,2048,l),
(1044,1434,l),
(1395,1434,l),
(1515,1434,o),
(1649,1441,o),
(1649,1327,c),
(1649,1213,o),
(1515,1221,o),
(1395,1221,c),
(1044,1221,l),
(1044,609,l),
(1831,609,l),
(2243,609,o),
(2577,932,o),
(2577,1329,c),
(2577,1726,o),
(2243,2048,o),
(1831,2048,c)
);
}
);
width = 2681;
},
{
layerId = m004;
shapes = (
{
closed = 1;
nodes = (
(123,0,l),
(379,0,l),
(379,2048,l),
(123,2048,l)
);
},
{
closed = 1;
nodes = (
(331,2048,l),
(331,1824,l),
(884,1824,l),
(1073,1824,o),
(1227,1670,o),
(1227,1480,c),
(1227,1290,o),
(1073,1137,o),
(884,1137,c),
(331,1137,l),
(331,911,l),
(931,911,l),
(1245,911,o),
(1500,1166,o),
(1500,1480,c),
(1500,1794,o),
(1245,2048,o),
(931,2048,c)
);
}
);
width = 1592;
},
{
layerId = m005;
shapes = (
{
closed = 1;
nodes = (
(177,0,l),
(241,0,l),
(241,2048,l),
(177,2048,l)
);
},
{
closed = 1;
nodes = (
(240,2048,l),
(240,1995,l),
(842,1995,l),
(1115,1995,o),
(1345,1783,o),
(1345,1496,c),
(1345,1207,o),
(1115,997,o),
(842,997,c),
(240,997,l),
(240,944,l),
(850,944,l),
(1174,944,o),
(1409,1181,o),
(1409,1497,c),
(1409,1811,o),
(1174,2048,o),
(850,2048,c)
);
}
);
width = 1547;
},
{
layerId = m006;
shapes = (
{
closed = 1;
nodes = (
(87,0,l),
(1045,0,l),
(1045,2048,l),
(87,2048,l)
);
},
{
closed = 1;
nodes = (
(997,2048,l),
(997,1434,l),
(1348,1434,l),
(1468,1434,o),
(1602,1441,o),
(1602,1327,c),
(1602,1213,o),
(1468,1221,o),
(1348,1221,c),
(997,1221,l),
(997,609,l),
(1784,609,l),
(2196,609,o),
(2530,932,o),
(2530,1329,c),
(2530,1726,o),
(2196,2048,o),
(1784,2048,c)
);
}
);
width = 2598;
}
);
note = uni0050;
unicode = 80;
},
{
glyphname = uni0051;
kernLeft = uni0043;
kernRight = uni0044;
lastChange = "2026-04-09 08:54:05 +0000";
layers = (
{
layerId = m01;
shapes = (
{
closed = 1;
nodes = (
(640,221,o),
(429,592,o),
(429,1039,c),
(429,1487,o),
(640,1858,o),
(1074,1858,c),
(1509,1858,o),
(1720,1487,o),
(1720,1039,c),
(1720,592,o),
(1509,221,o),
(1074,221,c)
);
},
{
closed = 1;
nodes = (
(446,2079,o),
(149,1614,o),
(149,1039,c),
(149,465,o),
(446,0,o),
(1078,0,c),
(1710,0,o),
(2008,465,o),
(2008,1039,c),
(2008,1614,o),
(1710,2079,o),
(1078,2079,c)
);
},
{
closed = 1;
nodes = (
(1121,0,l),
(2114,0,l),
(2114,221,l),
(1121,221,l)
);
}
);
width = 2263;
},
{
layerId = "F2C6FA2E-D08A-4B94-92D2-D7CA5820546A";
shapes = (
{
closed = 1;
nodes = (
(559,47,o),
(278,497,o),
(278,1039,c),
(278,1581,o),
(559,2032,o),
(1135,2032,c),
(1712,2032,o),
(1993,1581,o),
(1993,1039,c),
(1993,497,o),
(1712,47,o),
(1135,47,c)
);
},
{
closed = 1;
nodes = (
(499,2079,o),
(214,1613,o),
(214,1039,c),
(214,466,o),
(499,0,o),
(1131,0,c),
(1764,0,o),
(2056,466,o),
(2056,1039,c),
(2056,1613,o),
(1764,2079,o),
(1131,2079,c)
);
},
{
closed = 1;
nodes = (
(1174,0,l),
(2166,0,l),
(2166,47,l),
(1174,47,l)
);
}
);
width = 2380;
},
{
layerId = "F8E60EAC-58E2-4CB8-A8B6-FD6FE89414CC";
shapes = (
{
closed = 1;
nodes = (
(1143,609,o),
(1046,800,o),
(1046,1040,c),
(1046,1276,o),
(1143,1468,o),
(1352,1468,c),
(1561,1468,o),
(1658,1276,o),
(1658,1040,c),
(1658,800,o),
(1561,609,o),
(1352,609,c)
);
},
{
closed = 1;
nodes = (
(518,2077,o),
(130,1612,o),
(130,1039,c),
(130,466,o),
(518,0,o),
(1352,0,c),
(2184,0,o),
(2574,466,o),
(2574,1039,c),
(2574,1612,o),
(2184,2077,o),
(1352,2077,c)
);
},
{
closed = 1;
nodes = (
(1348,0,l),
(2600,0,l),
(2600,472,l),
(1348,472,l)
);
}
);
width = 2730;
},
{
layerId = m004;
shapes = (
{
closed = 1;
nodes = (
(588,221,o),
(377,592,o),
(377,1039,c),
(377,1487,o),
(588,1858,o),
(1022,1858,c),
(1457,1858,o),
(1668,1487,o),
(1668,1039,c),
(1668,592,o),
(1457,221,o),
(1022,221,c)
);
},
{
closed = 1;
nodes = (
(394,2079,o),
(97,1614,o),
(97,1039,c),
(97,465,o),
(394,0,o),
(1026,0,c),
(1658,0,o),
(1956,465,o),
(1956,1039,c),
(1956,1614,o),
(1658,2079,o),
(1026,2079,c)
);
},
{
closed = 1;
nodes = (
(1069,0,l),
(2062,0,l),
(2062,221,l),
(1069,221,l)
);
}
);
width = 2159;
},
{
layerId = m005;
shapes = (
{
closed = 1;
nodes = (
(484,47,o),
(203,497,o),
(203,1039,c),
(203,1581,o),
(484,2032,o),
(1060,2032,c),
(1637,2032,o),
(1918,1581,o),
(1918,1039,c),
(1918,497,o),
(1637,47,o),
(1060,47,c)
);
},
{
closed = 1;
nodes = (
(424,2079,o),
(139,1613,o),
(139,1039,c),
(139,466,o),
(424,0,o),
(1056,0,c),
(1689,0,o),
(1981,466,o),
(1981,1039,c),
(1981,1613,o),
(1689,2079,o),
(1056,2079,c)
);
},
{
closed = 1;
nodes = (
(1099,0,l),
(2091,0,l),
(2091,47,l),
(1099,47,l)
);
}
);
width = 2230;
},
{
layerId = m006;
shapes = (
{
closed = 1;
nodes = (
(1097,609,o),
(1000,800,o),
(1000,1040,c),
(1000,1276,o),
(1097,1468,o),
(1306,1468,c),
(1515,1468,o),
(1612,1276,o),
(1612,1040,c),
(1612,800,o),
(1515,609,o),
(1306,609,c)
);
},
{
closed = 1;
nodes = (
(472,2077,o),
(84,1612,o),
(84,1039,c),
(84,466,o),
(472,0,o),
(1306,0,c),
(2138,0,o),
(2528,466,o),
(2528,1039,c),
(2528,1612,o),
(2138,2077,o),
(1306,2077,c)
);
},
{
closed = 1;
nodes = (
(1302,0,l),
(2554,0,l),
(2554,472,l),
(1302,472,l)
);
}
);
width = 2638;
}
);
note = uni0051;
unicode = 81;
},
{
glyphname = uni0052;
kernLeft = uni0042;
kernRight = uni004B;
lastChange = "2026-04-09 08:54:05 +0000";
layers = (
{
layerId = m01;
shapes = (
{
closed = 1;
nodes = (
(189,0,l),
(445,0,l),
(445,2048,l),
(189,2048,l)
);
},
{
closed = 1;
nodes = (
(445,2048,l),
(445,1824,l),
(998,1824,l),
(1179,1824,o),
(1326,1677,o),
(1326,1496,c),
(1326,1315,o),
(1179,1168,o),
(998,1168,c),
(445,1168,l),
(445,1040,l),
(1109,1040,l),
(1388,1040,o),
(1614,1265,o),
(1614,1545,c),
(1614,1823,o),
(1388,2048,o),
(1109,2048,c)
);
},
{
closed = 1;
nodes = (
(960,935,l),
(1154,935,o),
(1326,780,o),
(1326,587,c),
(1326,0,l),
(1598,0,l),
(1598,544,l),
(1598,608,l),
(1598,864,o),
(1390,1072,o),
(1134,1072,c),
(445,1072,l),
(445,935,l)
);
}
);
width = 1721;
},
{
layerId = "F2C6FA2E-D08A-4B94-92D2-D7CA5820546A";
shapes = (
{
closed = 1;
nodes = (
(272,0,l),
(336,0,l),
(336,2048,l),
(272,2048,l)
);
},
{
closed = 1;
nodes = (
(336,2048,l),
(336,2000,l),
(976,2000,l),
(1232,2000,o),
(1440,1792,o),
(1440,1537,c),
(1440,1280,o),
(1232,1077,o),
(976,1077,c),
(336,1077,l),
(336,1039,l),
(1000,1039,l),
(1279,1039,o),
(1504,1266,o),
(1504,1544,c),
(1504,1823,o),
(1279,2048,o),
(1000,2048,c)
);
},
{
closed = 1;
nodes = (
(994,1022,l),
(1252,1022,o),
(1440,851,o),
(1440,580,c),
(1440,0,l),
(1504,0,l),
(1504,544,l),
(1504,608,l),
(1504,864,o),
(1296,1077,o),
(1040,1077,c),
(336,1072,l),
(336,1022,l)
);
}
);
width = 1680;
},
{
layerId = "F8E60EAC-58E2-4CB8-A8B6-FD6FE89414CC";
shapes = (
{
closed = 1;
nodes = (
(134,0,l),
(1094,0,l),
(1094,2048,l),
(134,2048,l)
);
},
{
closed = 1;
nodes = (
(1060,2048,l),
(1060,1487,l),
(1701,1487,l),
(1754,1487,o),
(1797,1445,o),
(1797,1391,c),
(1797,1340,o),
(1754,1295,o),
(1701,1295,c),
(1060,1295,l),
(1060,1041,l),
(2252,1041,l),
(2531,1041,o),
(2758,1266,o),
(2758,1544,c),
(2758,1823,o),
(2531,2048,o),
(2252,2048,c)
);
},
{
closed = 1;
nodes = (
(1433,808,l),
(1721,808,o),
(1782,747,o),
(1782,459,c),
(1782,0,l),
(2741,0,l),
(2741,544,l),
(2741,609,l),
(2741,863,o),
(2533,1072,o),
(2276,1072,c),
(1060,1072,l),
(1060,808,l)
);
}
);
width = 2844;
},
{
layerId = m004;
shapes = (
{
closed = 1;
nodes = (
(123,0,l),
(379,0,l),
(379,2048,l),
(123,2048,l)
);
},
{
closed = 1;
nodes = (
(379,2048,l),
(379,1824,l),
(932,1824,l),
(1113,1824,o),
(1260,1677,o),
(1260,1496,c),
(1260,1315,o),
(1113,1168,o),
(932,1168,c),
(379,1168,l),
(379,1040,l),
(1043,1040,l),
(1322,1040,o),
(1548,1265,o),
(1548,1545,c),
(1548,1823,o),
(1322,2048,o),
(1043,2048,c)
);
},
{
closed = 1;
nodes = (
(894,935,l),
(1088,935,o),
(1260,780,o),
(1260,587,c),
(1260,0,l),
(1532,0,l),
(1532,544,l),
(1532,608,l),
(1532,864,o),
(1324,1072,o),
(1068,1072,c),
(379,1072,l),
(379,935,l)
);
}
);
width = 1618;
},
{
layerId = m005;
shapes = (
{
closed = 1;
nodes = (
(177,0,l),
(241,0,l),
(241,2048,l),
(177,2048,l)
);
},
{
closed = 1;
nodes = (
(241,2048,l),
(241,2000,l),
(881,2000,l),
(1137,2000,o),
(1345,1792,o),
(1345,1537,c),
(1345,1280,o),
(1137,1077,o),
(881,1077,c),
(241,1077,l),
(241,1039,l),
(905,1039,l),
(1184,1039,o),
(1409,1266,o),
(1409,1544,c),
(1409,1823,o),
(1184,2048,o),
(905,2048,c)
);
},
{
closed = 1;
nodes = (
(899,1022,l),
(1157,1022,o),
(1345,851,o),
(1345,580,c),
(1345,0,l),
(1409,0,l),
(1409,544,l),
(1409,608,l),
(1409,864,o),
(1201,1077,o),
(945,1077,c),
(241,1072,l),
(241,1022,l)
);
}
);
width = 1523;
},
{
layerId = m006;
shapes = (
{
closed = 1;
nodes = (
(87,0,l),
(1047,0,l),
(1047,2048,l),
(87,2048,l)
);
},
{
closed = 1;
nodes = (
(1013,2048,l),
(1013,1487,l),
(1654,1487,l),
(1707,1487,o),
(1750,1445,o),
(1750,1391,c),
(1750,1340,o),
(1707,1295,o),
(1654,1295,c),
(1013,1295,l),
(1013,1041,l),
(2205,1041,l),
(2484,1041,o),
(2711,1266,o),
(2711,1544,c),
(2711,1823,o),
(2484,2048,o),
(2205,2048,c)
);
},
{
closed = 1;
nodes = (
(1386,808,l),
(1674,808,o),
(1735,747,o),
(1735,459,c),
(1735,0,l),
(2694,0,l),
(2694,544,l),
(2694,609,l),
(2694,863,o),
(2486,1072,o),
(2229,1072,c),
(1013,1072,l),
(1013,808,l)
);
}
);
width = 2767;
}
);
note = uni0052;
unicode = 82;
},
{
glyphname = uni0053;
kernLeft = uni0053;
kernRight = uni0053;
lastChange = "2026-04-09 08:54:05 +0000";
layers = (
{
layerId = m01;
shapes = (
{
closed = 1;
nodes = (
(803,-23,o),
(659,0,o),
(535,49,c),
(414,97,o),
(319,173,o),
(252,274,c),
(184,375,o),
(149,502,o),
(145,653,c),
(393,653,l),
(397,542,o),
(423,453,o),
(468,387,c),
(515,320,o),
(580,272,o),
(663,241,c),
(748,211,o),
(849,195,o),
(969,195,c),
(1082,195,o),
(1176,210,o),
(1252,239,c),
(1327,269,o),
(1382,311,o),
(1420,366,c),
(1457,420,o),
(1475,485,o),
(1475,563,c),
(1475,628,o),
(1461,681,o),
(1433,724,c),
(1406,767,o),
(1358,805,o),
(1289,838,c),
(1221,871,o),
(1127,899,o),
(1006,922,c),
(797,964,l),
(674,988,o),
(570,1023,o),
(483,1071,c),
(396,1119,o),
(327,1181,o),
(279,1257,c),
(232,1336,o),
(207,1430,o),
(207,1539,c),
(207,1646,o),
(236,1739,o),
(291,1820,c),
(348,1901,o),
(429,1964,o),
(532,2007,c),
(637,2051,o),
(761,2073,o),
(903,2073,c),
(1078,2073,o),
(1222,2047,o),
(1336,1993,c),
(1448,1941,o),
(1532,1869,o),
(1586,1776,c),
(1639,1685,o),
(1667,1579,o),
(1671,1463,c),
(1428,1463,l),
(1423,1549,o),
(1402,1620,o),
(1366,1676,c),
(1330,1732,o),
(1277,1776,o),
(1201,1808,c),
(1127,1838,o),
(1028,1855,o),
(905,1855,c),
(804,1855,o),
(720,1841,o),
(653,1814,c),
(586,1788,o),
(538,1751,o),
(505,1706,c),
(474,1659,o),
(457,1604,o),
(457,1541,c),
(457,1475,o),
(469,1420,o),
(495,1377,c),
(520,1334,o),
(563,1297,o),
(626,1264,c),
(689,1233,o),
(777,1206,o),
(891,1182,c),
(1098,1140,l),
(1250,1109,o),
(1371,1069,o),
(1463,1017,c),
(1555,966,o),
(1622,903,o),
(1665,829,c),
(1704,754,o),
(1724,667,o),
(1724,567,c),
(1724,449,o),
(1696,343,o),
(1636,254,c),
(1578,164,o),
(1491,96,o),
(1377,48,c),
(1264,0,o),
(1128,-23,o),
(970,-23,c)
);
}
);
width = 1869;
},
{
layerId = "F2C6FA2E-D08A-4B94-92D2-D7CA5820546A";
shapes = (
{
closed = 1;
nodes = (
(826,-27,o),
(685,-6,o),
(571,38,c),
(459,82,o),
(373,147,o),
(315,234,c),
(256,322,o),
(222,431,o),
(212,564,c),
(280,564,l),
(290,444,o),
(322,345,o),
(377,265,c),
(430,188,o),
(508,130,o),
(611,92,c),
(713,53,o),
(840,34,o),
(994,34,c),
(1137,34,o),
(1257,54,o),
(1355,96,c),
(1452,138,o),
(1522,195,o),
(1569,269,c),
(1616,344,o),
(1640,428,o),
(1640,523,c),
(1640,608,o),
(1623,680,o),
(1589,740,c),
(1556,801,o),
(1499,853,o),
(1418,896,c),
(1337,939,o),
(1224,974,o),
(1083,1001,c),
(851,1044,l),
(716,1068,o),
(605,1104,o),
(521,1151,c),
(437,1197,o),
(377,1254,o),
(337,1324,c),
(299,1393,o),
(279,1477,o),
(279,1574,c),
(279,1671,o),
(304,1760,o),
(354,1834,c),
(405,1909,o),
(480,1968,o),
(580,2011,c),
(682,2054,o),
(803,2075,o),
(946,2075,c),
(1102,2075,o),
(1231,2051,o),
(1336,2004,c),
(1440,1957,o),
(1517,1894,o),
(1567,1814,c),
(1617,1734,o),
(1645,1640,o),
(1650,1536,c),
(1582,1536,l),
(1577,1634,o),
(1550,1719,o),
(1503,1791,c),
(1456,1862,o),
(1385,1917,o),
(1291,1955,c),
(1199,1995,o),
(1084,2014,o),
(946,2014,c),
(816,2014,o),
(706,1995,o),
(615,1957,c),
(525,1920,o),
(459,1868,o),
(414,1801,c),
(370,1736,o),
(349,1658,o),
(349,1574,c),
(349,1487,o),
(366,1413,o),
(400,1353,c),
(434,1293,o),
(490,1242,o),
(567,1202,c),
(647,1161,o),
(751,1129,o),
(880,1105,c),
(1106,1062,l),
(1259,1034,o),
(1381,994,o),
(1469,944,c),
(1556,896,o),
(1618,838,o),
(1655,769,c),
(1690,702,o),
(1708,619,o),
(1708,523,c),
(1708,415,o),
(1681,320,o),
(1629,236,c),
(1577,154,o),
(1496,90,o),
(1391,42,c),
(1282,-3,o),
(1150,-27,o),
(996,-27,c)
);
}
);
width = 1920;
},
{
layerId = "F8E60EAC-58E2-4CB8-A8B6-FD6FE89414CC";
shapes = (
{
closed = 1;
nodes = (
(1240,-23,o),
(977,6,o),
(765,64,c),
(554,123,o),
(394,204,o),
(286,311,c),
(178,415,o),
(118,540,o),
(108,683,c),
(1089,683,l),
(1097,622,o),
(1121,574,o),
(1161,541,c),
(1200,509,o),
(1253,484,o),
(1319,471,c),
(1387,458,o),
(1472,452,o),
(1573,452,c),
(1667,452,o),
(1746,457,o),
(1806,466,c),
(1866,477,o),
(1911,493,o),
(1938,513,c),
(1967,533,o),
(1983,558,o),
(1983,591,c),
(1983,620,o),
(1968,644,o),
(1939,664,c),
(1913,685,o),
(1867,702,o),
(1801,716,c),
(1739,730,o),
(1649,743,o),
(1536,752,c),
(1158,786,l),
(962,804,o),
(791,837,o),
(645,889,c),
(500,940,o),
(387,1010,o),
(305,1098,c),
(223,1186,o),
(181,1292,o),
(181,1415,c),
(181,1534,o),
(221,1641,o),
(302,1738,c),
(378,1836,o),
(517,1916,o),
(715,1977,c),
(914,2039,o),
(1181,2070,o),
(1519,2070,c),
(1796,2070,o),
(2034,2047,o),
(2233,2002,c),
(2432,1955,o),
(2586,1882,o),
(2699,1785,c),
(2812,1687,o),
(2879,1562,o),
(2897,1410,c),
(1975,1410,l),
(1968,1453,o),
(1951,1487,o),
(1919,1516,c),
(1892,1543,o),
(1848,1564,o),
(1788,1579,c),
(1728,1593,o),
(1651,1601,o),
(1553,1601,c),
(1465,1601,o),
(1393,1596,o),
(1336,1585,c),
(1280,1575,o),
(1238,1560,o),
(1214,1542,c),
(1189,1523,o),
(1175,1499,o),
(1175,1472,c),
(1175,1446,o),
(1186,1424,o),
(1208,1405,c),
(1232,1387,o),
(1267,1373,o),
(1315,1361,c),
(1363,1350,o),
(1425,1342,o),
(1502,1334,c),
(1850,1303,l),
(2111,1280,o),
(2327,1243,o),
(2494,1190,c),
(2661,1139,o),
(2785,1072,o),
(2866,988,c),
(2947,906,o),
(2988,805,o),
(2988,686,c),
(2988,541,o),
(2932,415,o),
(2824,310,c),
(2715,202,o),
(2554,121,o),
(2339,63,c),
(2125,5,o),
(1864,-23,o),
(1553,-23,c)
);
}
);
width = 3096;
},
{
layerId = m004;
shapes = (
{
closed = 1;
nodes = (
(752,-23,o),
(608,0,o),
(484,49,c),
(363,97,o),
(268,173,o),
(201,274,c),
(133,375,o),
(98,502,o),
(94,653,c),
(342,653,l),
(346,542,o),
(372,453,o),
(417,387,c),
(464,320,o),
(529,272,o),
(612,241,c),
(697,211,o),
(798,195,o),
(918,195,c),
(1031,195,o),
(1125,210,o),
(1201,239,c),
(1276,269,o),
(1331,311,o),
(1369,366,c),
(1406,420,o),
(1424,485,o),
(1424,563,c),
(1424,628,o),
(1410,681,o),
(1382,724,c),
(1355,767,o),
(1307,805,o),
(1238,838,c),
(1170,871,o),
(1076,899,o),
(955,922,c),
(746,964,l),
(623,988,o),
(519,1023,o),
(432,1071,c),
(345,1119,o),
(276,1181,o),
(228,1257,c),
(181,1336,o),
(156,1430,o),
(156,1539,c),
(156,1646,o),
(185,1739,o),
(240,1820,c),
(297,1901,o),
(378,1964,o),
(481,2007,c),
(586,2051,o),
(710,2073,o),
(852,2073,c),
(1027,2073,o),
(1171,2047,o),
(1285,1993,c),
(1397,1941,o),
(1481,1869,o),
(1535,1776,c),
(1588,1685,o),
(1616,1579,o),
(1620,1463,c),
(1377,1463,l),
(1372,1549,o),
(1351,1620,o),
(1315,1676,c),
(1279,1732,o),
(1226,1776,o),
(1150,1808,c),
(1076,1838,o),
(977,1855,o),
(854,1855,c),
(753,1855,o),
(669,1841,o),
(602,1814,c),
(535,1788,o),
(487,1751,o),
(454,1706,c),
(423,1659,o),
(406,1604,o),
(406,1541,c),
(406,1475,o),
(418,1420,o),
(444,1377,c),
(469,1334,o),
(512,1297,o),
(575,1264,c),
(638,1233,o),
(726,1206,o),
(840,1182,c),
(1047,1140,l),
(1199,1109,o),
(1320,1069,o),
(1412,1017,c),
(1504,966,o),
(1571,903,o),
(1614,829,c),
(1653,754,o),
(1673,667,o),
(1673,567,c),
(1673,449,o),
(1645,343,o),
(1585,254,c),
(1527,164,o),
(1440,96,o),
(1326,48,c),
(1213,0,o),
(1077,-23,o),
(919,-23,c)
);
}
);
width = 1767;
},
{
layerId = m005;
shapes = (
{
closed = 1;
nodes = (
(752,-27,o),
(611,-6,o),
(497,38,c),
(385,82,o),
(299,147,o),
(241,234,c),
(182,322,o),
(148,431,o),
(138,564,c),
(206,564,l),
(216,444,o),
(248,345,o),
(303,265,c),
(356,188,o),
(434,130,o),
(537,92,c),
(639,53,o),
(766,34,o),
(920,34,c),
(1063,34,o),
(1183,54,o),
(1281,96,c),
(1378,138,o),
(1448,195,o),
(1495,269,c),
(1542,344,o),
(1566,428,o),
(1566,523,c),
(1566,608,o),
(1549,680,o),
(1515,740,c),
(1482,801,o),
(1425,853,o),
(1344,896,c),
(1263,939,o),
(1150,974,o),
(1009,1001,c),
(777,1044,l),
(642,1068,o),
(531,1104,o),
(447,1151,c),
(363,1197,o),
(303,1254,o),
(263,1324,c),
(225,1393,o),
(205,1477,o),
(205,1574,c),
(205,1671,o),
(230,1760,o),
(280,1834,c),
(331,1909,o),
(406,1968,o),
(506,2011,c),
(608,2054,o),
(729,2075,o),
(872,2075,c),
(1028,2075,o),
(1157,2051,o),
(1262,2004,c),
(1366,1957,o),
(1443,1894,o),
(1493,1814,c),
(1543,1734,o),
(1571,1640,o),
(1576,1536,c),
(1508,1536,l),
(1503,1634,o),
(1476,1719,o),
(1429,1791,c),
(1382,1862,o),
(1311,1917,o),
(1217,1955,c),
(1125,1995,o),
(1010,2014,o),
(872,2014,c),
(742,2014,o),
(632,1995,o),
(541,1957,c),
(451,1920,o),
(385,1868,o),
(340,1801,c),
(296,1736,o),
(275,1658,o),
(275,1574,c),
(275,1487,o),
(292,1413,o),
(326,1353,c),
(360,1293,o),
(416,1242,o),
(493,1202,c),
(573,1161,o),
(677,1129,o),
(806,1105,c),
(1032,1062,l),
(1185,1034,o),
(1307,994,o),
(1395,944,c),
(1482,896,o),
(1544,838,o),
(1581,769,c),
(1616,702,o),
(1634,619,o),
(1634,523,c),
(1634,415,o),
(1607,320,o),
(1555,236,c),
(1503,154,o),
(1422,90,o),
(1317,42,c),
(1208,-3,o),
(1076,-27,o),
(922,-27,c)
);
}
);
width = 1772;
},
{
layerId = m006;
shapes = (
{
closed = 1;
nodes = (
(1202,-23,o),
(939,6,o),
(727,64,c),
(516,123,o),
(356,204,o),
(248,311,c),
(140,415,o),
(80,540,o),
(70,683,c),
(1051,683,l),
(1059,622,o),
(1083,574,o),
(1123,541,c),
(1162,509,o),
(1215,484,o),
(1281,471,c),
(1349,458,o),
(1434,452,o),
(1535,452,c),
(1629,452,o),
(1708,457,o),
(1768,466,c),
(1828,477,o),
(1873,493,o),
(1900,513,c),
(1929,533,o),
(1945,558,o),
(1945,591,c),
(1945,620,o),
(1930,644,o),
(1901,664,c),
(1875,685,o),
(1829,702,o),
(1763,716,c),
(1701,730,o),
(1611,743,o),
(1498,752,c),
(1120,786,l),
(924,804,o),
(753,837,o),
(607,889,c),
(462,940,o),
(349,1010,o),
(267,1098,c),
(185,1186,o),
(143,1292,o),
(143,1415,c),
(143,1534,o),
(183,1641,o),
(264,1738,c),
(340,1836,o),
(479,1916,o),
(677,1977,c),
(876,2039,o),
(1143,2070,o),
(1481,2070,c),
(1758,2070,o),
(1996,2047,o),
(2195,2002,c),
(2394,1955,o),
(2548,1882,o),
(2661,1785,c),
(2774,1687,o),
(2841,1562,o),
(2859,1410,c),
(1937,1410,l),
(1930,1453,o),
(1913,1487,o),
(1881,1516,c),
(1854,1543,o),
(1810,1564,o),
(1750,1579,c),
(1690,1593,o),
(1613,1601,o),
(1515,1601,c),
(1427,1601,o),
(1355,1596,o),
(1298,1585,c),
(1242,1575,o),
(1200,1560,o),
(1176,1542,c),
(1151,1523,o),
(1137,1499,o),
(1137,1472,c),
(1137,1446,o),
(1148,1424,o),
(1170,1405,c),
(1194,1387,o),
(1229,1373,o),
(1277,1361,c),
(1325,1350,o),
(1387,1342,o),
(1464,1334,c),
(1812,1303,l),
(2073,1280,o),
(2289,1243,o),
(2456,1190,c),
(2623,1139,o),
(2747,1072,o),
(2828,988,c),
(2909,906,o),
(2950,805,o),
(2950,686,c),
(2950,541,o),
(2894,415,o),
(2786,310,c),
(2677,202,o),
(2516,121,o),
(2301,63,c),
(2087,5,o),
(1826,-23,o),
(1515,-23,c)
);
}
);
width = 3020;
}
);
note = uni0053;
unicode = 83;
},
{
glyphname = uni0054;
kernLeft = uni0054;
lastChange = "2026-04-14 12:35:33 +0000";
layers = (
{
layerId = m01;
shapes = (
{
closed = 1;
nodes = (
(805,0,l),
(1061,0,l),
(1061,2048,l),
(805,2048,l)
);
},
{
closed = 1;
nodes = (
(133,1824,l),
(1733,1824,l),
(1733,2048,l),
(133,2048,l)
);
}
);
width = 1866;
},
{
layerId = "F2C6FA2E-D08A-4B94-92D2-D7CA5820546A";
shapes = (
{
closed = 1;
nodes = (
(885,0,l),
(949,0,l),
(949,2048,l),
(885,2048,l)
);
},
{
closed = 1;
nodes = (
(198,1995,l),
(1637,1995,l),
(1637,2048,l),
(198,2048,l)
);
}
);
width = 1835;
},
{
layerId = "F8E60EAC-58E2-4CB8-A8B6-FD6FE89414CC";
shapes = (
{
closed = 1;
nodes = (
(746,0,l),
(1706,0,l),
(1706,2048,l),
(746,2048,l)
);
},
{
closed = 1;
nodes = (
(106,1408,l),
(2346,1408,l),
(2346,2048,l),
(106,2048,l)
);
}
);
width = 2452;
},
{
layerId = m004;
shapes = (
{
closed = 1;
nodes = (
(758,0,l),
(1014,0,l),
(1014,2048,l),
(758,2048,l)
);
},
{
closed = 1;
nodes = (
(86,1824,l),
(1686,1824,l),
(1686,2048,l),
(86,2048,l)
);
}
);
width = 1772;
},
{
layerId = m005;
shapes = (
{
closed = 1;
nodes = (
(816,0,l),
(880,0,l),
(880,2048,l),
(816,2048,l)
);
},
{
closed = 1;
nodes = (
(129,1995,l),
(1568,1995,l),
(1568,2048,l),
(129,2048,l)
);
}
);
width = 1697;
},
{
layerId = m006;
shapes = (
{
closed = 1;
nodes = (
(709,0,l),
(1669,0,l),
(1669,2048,l),
(709,2048,l)
);
},
{
closed = 1;
nodes = (
(69,1408,l),
(2309,1408,l),
(2309,2048,l),
(69,2048,l)
);
}
);
width = 2378;
}
);
note = uni0054;
unicode = 84;
},
{
glyphname = uni0055;
kernLeft = uni0055;
kernRight = uni004A;
lastChange = "2026-04-09 08:54:05 +0000";
layers = (
{
layerId = m01;
shapes = (
{
closed = 1;
nodes = (
(1820,2048,l),
(1564,2048,l),
(1564,753,l),
(1564,452,o),
(1345,209,o),
(1005,209,c),
(664,209,o),
(445,452,o),
(445,753,c),
(445,2048,l),
(189,2048,l),
(189,721,l),
(189,305,o),
(510,-31,o),
(1005,-31,c),
(1499,-31,o),
(1820,305,o),
(1820,721,c)
);
}
);
width = 2009;
},
{
layerId = "F2C6FA2E-D08A-4B94-92D2-D7CA5820546A";
shapes = (
{
closed = 1;
nodes = (
(1711,2048,l),
(1648,2048,l),
(1648,689,l),
(1648,327,o),
(1355,33,o),
(992,33,c),
(630,33,o),
(336,327,o),
(336,689,c),
(336,2048,l),
(272,2048,l),
(272,689,l),
(272,291,o),
(594,-31,o),
(992,-31,c),
(1390,-31,o),
(1711,291,o),
(1711,689,c)
);
}
);
width = 1983;
},
{
layerId = "F8E60EAC-58E2-4CB8-A8B6-FD6FE89414CC";
shapes = (
{
closed = 1;
nodes = (
(2771,2048,l),
(1813,2048,l),
(1813,882,l),
(1813,732,o),
(1667,610,o),
(1453,610,c),
(1238,610,o),
(1094,732,o),
(1094,882,c),
(1094,2048,l),
(134,2048,l),
(134,931,l),
(134,240,o),
(604,-30,o),
(1453,-30,c),
(2303,-30,o),
(2771,240,o),
(2771,931,c)
);
}
);
width = 2905;
},
{
layerId = m004;
shapes = (
{
closed = 1;
nodes = (
(1754,2048,l),
(1498,2048,l),
(1498,753,l),
(1498,452,o),
(1279,209,o),
(939,209,c),
(598,209,o),
(379,452,o),
(379,753,c),
(379,2048,l),
(123,2048,l),
(123,721,l),
(123,305,o),
(444,-31,o),
(939,-31,c),
(1433,-31,o),
(1754,305,o),
(1754,721,c)
);
}
);
width = 1877;
},
{
layerId = m005;
shapes = (
{
closed = 1;
nodes = (
(1616,2048,l),
(1553,2048,l),
(1553,689,l),
(1553,327,o),
(1260,33,o),
(897,33,c),
(535,33,o),
(241,327,o),
(241,689,c),
(241,2048,l),
(177,2048,l),
(177,689,l),
(177,291,o),
(499,-31,o),
(897,-31,c),
(1295,-31,o),
(1616,291,o),
(1616,689,c)
);
}
);
width = 1793;
},
{
layerId = m006;
shapes = (
{
closed = 1;
nodes = (
(2724,2048,l),
(1766,2048,l),
(1766,882,l),
(1766,732,o),
(1620,610,o),
(1406,610,c),
(1191,610,o),
(1047,732,o),
(1047,882,c),
(1047,2048,l),
(87,2048,l),
(87,931,l),
(87,240,o),
(557,-30,o),
(1406,-30,c),
(2256,-30,o),
(2724,240,o),
(2724,931,c)
);
}
);
width = 2811;
}
);
note = uni0055;
unicode = 85;
},
{
glyphname = uni0056;
kernLeft = uni0056;
kernRight = uni0056;
lastChange = "2026-04-10 15:44:45 +0000";
layers = (
{
layerId = m01;
shapes = (
{
closed = 1;
nodes = (
(1574,2048,l),
(854,0,l),
(1141,0,l),
(1862,2048,l)
);
},
{
closed = 1;
nodes = (
(101,2048,l),
(822,0,l),
(1109,0,l),
(390,2048,l)
);
}
);
width = 1963;
},
{
layerId = "F2C6FA2E-D08A-4B94-92D2-D7CA5820546A";
shapes = (
{
closed = 1;
nodes = (
(1657,2048,l),
(921,0,l),
(995,0,l),
(1731,2048,l)
);
},
{
closed = 1;
nodes = (
(158,2048,l),
(894,0,l),
(968,0,l),
(231,2048,l)
);
}
);
width = 1889;
},
{
layerId = "F8E60EAC-58E2-4CB8-A8B6-FD6FE89414CC";
shapes = (
{
closed = 1;
nodes = (
(1908,2048,l),
(1109,0,l),
(2069,0,l),
(2868,2048,l)
);
},
{
closed = 1;
nodes = (
(100,2048,l),
(901,0,l),
(1877,0,l),
(1076,2048,l)
);
}
);
width = 2968;
},
{
layerId = m004;
shapes = (
{
closed = 1;
nodes = (
(1539,2048,l),
(819,0,l),
(1106,0,l),
(1827,2048,l)
);
},
{
closed = 1;
nodes = (
(66,2048,l),
(787,0,l),
(1074,0,l),
(355,2048,l)
);
}
);
width = 1893;
},
{
layerId = m005;
shapes = (
{
closed = 1;
nodes = (
(1602,2048,l),
(866,0,l),
(940,0,l),
(1676,2048,l)
);
},
{
closed = 1;
nodes = (
(103,2048,l),
(839,0,l),
(913,0,l),
(176,2048,l)
);
}
);
width = 1779;
},
{
layerId = m006;
shapes = (
{
closed = 1;
nodes = (
(1873,2048,l),
(1074,0,l),
(2034,0,l),
(2833,2048,l)
);
},
{
closed = 1;
nodes = (
(65,2048,l),
(866,0,l),
(1842,0,l),
(1041,2048,l)
);
}
);
width = 2898;
}
);
note = uni0056;
unicode = 86;
},
{
glyphname = uni0057;
kernLeft = uni0057;
kernRight = uni0057;
lastChange = "2026-04-10 15:52:16 +0000";
layers = (
{
layerId = m01;
shapes = (
{
closed = 1;
nodes = (
(2538,2048,l),
(1977,0,l),
(2239,0,l),
(2799,2048,l)
);
},
{
closed = 1;
nodes = (
(100,2048,l),
(660,0,l),
(922,0,l),
(361,2048,l)
);
},
{
closed = 1;
nodes = (
(1316,2048,l),
(692,0,l),
(953,0,l),
(1577,2048,l)
);
},
{
closed = 1;
nodes = (
(1322,2048,l),
(1946,0,l),
(2207,0,l),
(1583,2048,l)
);
}
);
width = 2899;
},
{
layerId = "F2C6FA2E-D08A-4B94-92D2-D7CA5820546A";
shapes = (
{
closed = 1;
nodes = (
(2680,2048,l),
(2120,0,l),
(2190,0,l),
(2750,2048,l)
);
},
{
closed = 1;
nodes = (
(152,2048,l),
(712,0,l),
(782,0,l),
(222,2048,l)
);
},
{
closed = 1;
nodes = (
(1405,2048,l),
(749,0,l),
(820,0,l),
(1476,2048,l)
);
},
{
closed = 1;
nodes = (
(1427,2048,l),
(2083,0,l),
(2153,0,l),
(1498,2048,l)
);
}
);
width = 2902;
},
{
layerId = "F8E60EAC-58E2-4CB8-A8B6-FD6FE89414CC";
shapes = (
{
closed = 1;
nodes = (
(3165,2048,l),
(2634,0,l),
(3594,0,l),
(4124,2048,l)
);
},
{
closed = 1;
nodes = (
(92,2048,l),
(619,0,l),
(1580,0,l),
(1052,2048,l)
);
},
{
closed = 1;
nodes = (
(1774,2048,l),
(1080,0,l),
(1739,0,l),
(2433,2048,l)
);
},
{
closed = 1;
nodes = (
(1790,2048,l),
(2476,0,l),
(3130,0,l),
(2444,2048,l)
);
}
);
width = 4216;
},
{
layerId = m004;
shapes = (
{
closed = 1;
nodes = (
(2503,2048,l),
(1942,0,l),
(2204,0,l),
(2764,2048,l)
);
},
{
closed = 1;
nodes = (
(65,2048,l),
(625,0,l),
(887,0,l),
(326,2048,l)
);
},
{
closed = 1;
nodes = (
(1281,2048,l),
(657,0,l),
(918,0,l),
(1542,2048,l)
);
},
{
closed = 1;
nodes = (
(1287,2048,l),
(1911,0,l),
(2172,0,l),
(1548,2048,l)
);
}
);
width = 2829;
},
{
layerId = m005;
shapes = (
{
closed = 1;
nodes = (
(2627,2048,l),
(2067,0,l),
(2137,0,l),
(2697,2048,l)
);
},
{
closed = 1;
nodes = (
(99,2048,l),
(659,0,l),
(729,0,l),
(169,2048,l)
);
},
{
closed = 1;
nodes = (
(1352,2048,l),
(696,0,l),
(767,0,l),
(1423,2048,l)
);
},
{
closed = 1;
nodes = (
(1374,2048,l),
(2030,0,l),
(2100,0,l),
(1445,2048,l)
);
}
);
width = 2796;
},
{
layerId = m006;
shapes = (
{
closed = 1;
nodes = (
(3133,2048,l),
(2602,0,l),
(3562,0,l),
(4092,2048,l)
);
},
{
closed = 1;
nodes = (
(60,2048,l),
(587,0,l),
(1548,0,l),
(1020,2048,l)
);
},
{
closed = 1;
nodes = (
(1742,2048,l),
(1048,0,l),
(1707,0,l),
(2401,2048,l)
);
},
{
closed = 1;
nodes = (
(1758,2048,l),
(2444,0,l),
(3098,0,l),
(2412,2048,l)
);
}
);
width = 4152;
}
);
note = uni0057;
unicode = 87;
},
{
glyphname = uni0058;
kernLeft = uni0058;
kernRight = uni0058;
lastChange = "2026-04-14 12:40:03 +0000";
layers = (
{
layerId = m01;
shapes = (
{
closed = 1;
nodes = (
(103,2048,l),
(1559,0,l),
(1877,0,l),
(421,2048,l)
);
},
{
closed = 1;
nodes = (
(1559,2048,l),
(103,0,l),
(421,0,l),
(1877,2048,l)
);
}
);
width = 1980;
},
{
layerId = "F2C6FA2E-D08A-4B94-92D2-D7CA5820546A";
shapes = (
{
closed = 1;
nodes = (
(160,2048,l),
(1616,0,l),
(1696,0,l),
(240,2048,l)
);
},
{
closed = 1;
nodes = (
(1616,2048,l),
(160,0,l),
(240,0,l),
(1696,2048,l)
);
}
);
width = 1856;
},
{
layerId = "F8E60EAC-58E2-4CB8-A8B6-FD6FE89414CC";
shapes = (
{
closed = 1;
nodes = (
(110,2048,l),
(1956,0,l),
(2916,0,l),
(1071,2048,l)
);
},
{
closed = 1;
nodes = (
(1956,2048,l),
(110,0,l),
(1071,0,l),
(2916,2048,l)
);
}
);
width = 3026;
},
{
layerId = m004;
shapes = (
{
closed = 1;
nodes = (
(67,2048,l),
(1523,0,l),
(1841,0,l),
(385,2048,l)
);
},
{
closed = 1;
nodes = (
(1523,2048,l),
(67,0,l),
(385,0,l),
(1841,2048,l)
);
}
);
width = 1908;
},
{
layerId = m005;
shapes = (
{
closed = 1;
nodes = (
(104,2048,l),
(1560,0,l),
(1640,0,l),
(184,2048,l)
);
},
{
closed = 1;
nodes = (
(1560,2048,l),
(104,0,l),
(184,0,l),
(1640,2048,l)
);
}
);
width = 1744;
},
{
layerId = m006;
shapes = (
{
closed = 1;
nodes = (
(72,2048,l),
(1918,0,l),
(2878,0,l),
(1033,2048,l)
);
},
{
closed = 1;
nodes = (
(1918,2048,l),
(72,0,l),
(1033,0,l),
(2878,2048,l)
);
}
);
width = 2950;
}
);
note = uni0058;
unicode = 88;
},
{
glyphname = uni0059;
kernLeft = uni0059;
kernRight = uni0059;
lastChange = "2026-04-10 15:44:59 +0000";
layers = (
{
layerId = m01;
shapes = (
{
closed = 1;
nodes = (
(101,2048,l),
(837,816,l),
(1093,816,l),
(357,2048,l)
);
},
{
closed = 1;
nodes = (
(1573,2048,l),
(837,816,l),
(1093,816,l),
(1829,2048,l)
);
},
{
closed = 1;
nodes = (
(837,0,l),
(1093,0,l),
(1093,929,l),
(837,929,l)
);
}
);
width = 1930;
},
{
layerId = "F2C6FA2E-D08A-4B94-92D2-D7CA5820546A";
shapes = (
{
closed = 1;
nodes = (
(160,2048,l),
(911,816,l),
(975,816,l),
(239,2048,l)
);
},
{
closed = 1;
nodes = (
(1648,2048,l),
(911,816,l),
(975,816,l),
(1727,2048,l)
);
},
{
closed = 1;
nodes = (
(911,0,l),
(975,0,l),
(975,864,l),
(911,864,l)
);
}
);
width = 1887;
},
{
layerId = "F8E60EAC-58E2-4CB8-A8B6-FD6FE89414CC";
shapes = (
{
closed = 1;
nodes = (
(92,2048,l),
(1075,816,l),
(2031,816,l),
(1052,2048,l)
);
},
{
closed = 1;
nodes = (
(2044,2048,l),
(1075,816,l),
(2031,816,l),
(3004,2048,l)
);
},
{
closed = 1;
nodes = (
(1074,0,l),
(2033,0,l),
(2033,928,l),
(1074,928,l)
);
}
);
width = 3096;
},
{
layerId = m004;
shapes = (
{
closed = 1;
nodes = (
(66,2048,l),
(802,816,l),
(1058,816,l),
(322,2048,l)
);
},
{
closed = 1;
nodes = (
(1538,2048,l),
(802,816,l),
(1058,816,l),
(1794,2048,l)
);
},
{
closed = 1;
nodes = (
(802,0,l),
(1058,0,l),
(1058,929,l),
(802,929,l)
);
}
);
width = 1860;
},
{
layerId = m005;
shapes = (
{
closed = 1;
nodes = (
(104,2048,l),
(855,816,l),
(919,816,l),
(183,2048,l)
);
},
{
closed = 1;
nodes = (
(1592,2048,l),
(855,816,l),
(919,816,l),
(1671,2048,l)
);
},
{
closed = 1;
nodes = (
(855,0,l),
(919,0,l),
(919,864,l),
(855,864,l)
);
}
);
width = 1775;
},
{
layerId = m006;
shapes = (
{
closed = 1;
nodes = (
(60,2048,l),
(1043,816,l),
(1999,816,l),
(1020,2048,l)
);
},
{
closed = 1;
nodes = (
(2012,2048,l),
(1043,816,l),
(1999,816,l),
(2972,2048,l)
);
},
{
closed = 1;
nodes = (
(1042,0,l),
(2001,0,l),
(2001,928,l),
(1042,928,l)
);
}
);
width = 3032;
}
);
note = uni0059;
unicode = 89;
},
{
glyphname = uni005A;
kernLeft = uni005A;
kernRight = uni005A;
lastChange = "2026-04-09 08:54:05 +0000";
layers = (
{
layerId = m01;
shapes = (
{
closed = 1;
nodes = (
(149,1824,l),
(1636,1824,l),
(1636,2048,l),
(149,2048,l)
);
},
{
closed = 1;
nodes = (
(149,0,l),
(1636,0,l),
(1636,224,l),
(149,224,l)
);
},
{
closed = 1;
nodes = (
(1333,1824,l),
(149,224,l),
(452,224,l),
(1636,1824,l)
);
}
);
width = 1785;
},
{
layerId = "F2C6FA2E-D08A-4B94-92D2-D7CA5820546A";
shapes = (
{
closed = 1;
nodes = (
(246,1988,l),
(1654,1988,l),
(1654,2048,l),
(246,2048,l)
);
},
{
closed = 1;
nodes = (
(214,0,l),
(1669,0,l),
(1669,60,l),
(214,60,l)
);
},
{
closed = 1;
nodes = (
(1570,1988,l),
(214,60,l),
(298,60,l),
(1654,1988,l)
);
}
);
width = 1883;
},
{
layerId = "F8E60EAC-58E2-4CB8-A8B6-FD6FE89414CC";
shapes = (
{
closed = 1;
nodes = (
(138,1408,l),
(2218,1408,l),
(2218,2048,l),
(138,2048,l)
);
},
{
closed = 1;
nodes = (
(138,0,l),
(2251,0,l),
(2251,640,l),
(138,640,l)
);
},
{
closed = 1;
nodes = (
(1201,1408,l),
(138,640,l),
(1155,640,l),
(2218,1408,l)
);
}
);
width = 2389;
},
{
layerId = m004;
shapes = (
{
closed = 1;
nodes = (
(97,1824,l),
(1584,1824,l),
(1584,2048,l),
(97,2048,l)
);
},
{
closed = 1;
nodes = (
(97,0,l),
(1584,0,l),
(1584,224,l),
(97,224,l)
);
},
{
closed = 1;
nodes = (
(1281,1824,l),
(97,224,l),
(400,224,l),
(1584,1824,l)
);
}
);
width = 1681;
},
{
layerId = m005;
shapes = (
{
closed = 1;
nodes = (
(171,1988,l),
(1579,1988,l),
(1579,2048,l),
(171,2048,l)
);
},
{
closed = 1;
nodes = (
(139,0,l),
(1594,0,l),
(1594,60,l),
(139,60,l)
);
},
{
closed = 1;
nodes = (
(1495,1988,l),
(139,60,l),
(223,60,l),
(1579,1988,l)
);
}
);
width = 1733;
},
{
layerId = m006;
shapes = (
{
closed = 1;
nodes = (
(90,1408,l),
(2170,1408,l),
(2170,2048,l),
(90,2048,l)
);
},
{
closed = 1;
nodes = (
(90,0,l),
(2203,0,l),
(2203,640,l),
(90,640,l)
);
},
{
closed = 1;
nodes = (
(1153,1408,l),
(90,640,l),
(1107,640,l),
(2170,1408,l)
);
}
);
width = 2293;
}
);
note = uni005A;
unicode = 90;
},
{
glyphname = uni0061;
kernLeft = uni0061;
kernRight = uni0061;
lastChange = "2026-04-14 12:53:20 +0000";
layers = (
{
layerId = m01;
shapes = (
{
closed = 1;
nodes = (
(1398,0,l),
(1398,960,l),
(1398,1001,ls),
(1400,1243,o),
(1403,1551,o),
(806,1551,cs),
(394,1551,o),
(255,1362,o),
(222,1104,c),
(477,1104,l),
(496,1248,o),
(573,1377,o),
(806,1376,cs),
(1087,1375,o),
(1141,1193,o),
(1141,1009,cs),
(1141,959,l),
(967,975,o),
(710,967,o),
(568,932,cs),
(275,869,o),
(84,607,o),
(140,348,cs),
(196,88,o),
(490,-73,o),
(782,-10,cs),
(947,26,o),
(1053,96,o),
(1141,279,c),
(1141,0,l)
);
},
{
closed = 1;
nodes = (
(649,179,o),
(469,242,o),
(430,398,c),
(391,615,o),
(522,712,o),
(727,750,cs),
(825,770,o),
(1003,770,o),
(1126,761,c),
(1126,617,ls),
(1126,517,o),
(1104,414,o),
(1038,338,cs),
(985,277,o),
(922,229,o),
(853,217,cs)
);
}
);
width = 1564;
},
{
layerId = "F2C6FA2E-D08A-4B94-92D2-D7CA5820546A";
shapes = (
{
closed = 1;
nodes = (
(1347,0,l),
(1347,960,l),
(1347,1001,ls),
(1348,1243,o),
(1370,1551,o),
(829,1551,cs),
(454,1551,o),
(328,1362,o),
(298,1104,c),
(374,1104,l),
(386,1259,o),
(463,1497,o),
(825,1496,cs),
(1290,1495,o),
(1283,1236,o),
(1283,1000,cs),
(1283,959,l),
(1096,975,o),
(820,969,o),
(668,938,cs),
(354,874,o),
(149,678,o),
(218,348,cs),
(273,87,o),
(539,-76,o),
(892,-5,c),
(1090,53,o),
(1204,170,o),
(1283,320,c),
(1283,0,l)
);
},
{
closed = 1;
nodes = (
(603,-6,o),
(335,113,o),
(281,355,cs),
(207,686,o),
(447,843,o),
(716,895,cs),
(855,922,o),
(1109,918,o),
(1283,906,c),
(1283,610,ls),
(1283,410,o),
(1265,368,o),
(1172,249,c),
(1109,170,o),
(1041,102,o),
(888,54,c)
);
}
);
width = 1591;
},
{
layerId = "F8E60EAC-58E2-4CB8-A8B6-FD6FE89414CC";
shapes = (
{
closed = 1;
nodes = (
(2307,0,l),
(2307,960,l),
(2307,1002,ls),
(2311,1191,o),
(2302,1540,o),
(1221,1540,cs),
(474,1540,o),
(176,1341,o),
(163,1010,c),
(1114,1010,l),
(1124,1154,o),
(1183,1209,o),
(1282,1208,cs),
(1371,1208,o),
(1454,1164,o),
(1454,1010,cs),
(1454,917,l),
(1358,928,o),
(999,962,o),
(682,937,c),
(231,902,o),
(44,703,o),
(110,348,c),
(200,-10,o),
(577,-73,o),
(970,-10,cs),
(1193,26,o),
(1335,96,o),
(1454,279,c),
(1454,0,l)
);
},
{
closed = 1;
nodes = (
(1171,411,o),
(1073,441,o),
(1056,517,cs),
(1033,620,o),
(1105,670,o),
(1212,688,cs),
(1263,696,o),
(1357,696,o),
(1422,693,c),
(1422,623,ls),
(1422,574,o),
(1410,524,o),
(1375,489,cs),
(1348,458,o),
(1315,434,o),
(1278,429,cs)
);
}
);
width = 2431;
},
{
layerId = m004;
shapes = (
{
closed = 1;
nodes = (
(1369,0,l),
(1369,960,l),
(1369,1001,ls),
(1371,1243,o),
(1374,1551,o),
(777,1551,cs),
(365,1551,o),
(226,1362,o),
(193,1104,c),
(448,1104,l),
(467,1248,o),
(544,1377,o),
(777,1376,cs),
(1058,1375,o),
(1112,1193,o),
(1112,1009,cs),
(1112,959,l),
(938,975,o),
(681,967,o),
(539,932,cs),
(246,869,o),
(55,607,o),
(111,348,cs),
(167,88,o),
(461,-73,o),
(753,-10,cs),
(918,26,o),
(1024,96,o),
(1112,279,c),
(1112,0,l)
);
},
{
closed = 1;
nodes = (
(620,179,o),
(440,242,o),
(401,398,c),
(362,615,o),
(493,712,o),
(698,750,cs),
(796,770,o),
(974,770,o),
(1097,761,c),
(1097,617,ls),
(1097,517,o),
(1075,414,o),
(1009,338,cs),
(956,277,o),
(893,229,o),
(824,217,cs)
);
}
);
width = 1479;
},
{
layerId = m005;
shapes = (
{
closed = 1;
nodes = (
(1295,0,l),
(1295,960,l),
(1295,1001,ls),
(1296,1243,o),
(1318,1551,o),
(777,1551,cs),
(402,1551,o),
(276,1362,o),
(246,1104,c),
(322,1104,l),
(334,1259,o),
(411,1497,o),
(773,1496,cs),
(1238,1495,o),
(1231,1236,o),
(1231,1000,cs),
(1231,959,l),
(1044,975,o),
(768,969,o),
(616,938,cs),
(302,874,o),
(97,678,o),
(166,348,cs),
(221,87,o),
(487,-76,o),
(840,-5,c),
(1038,53,o),
(1152,170,o),
(1231,320,c),
(1231,0,l)
);
},
{
closed = 1;
nodes = (
(551,-6,o),
(283,113,o),
(229,355,cs),
(155,686,o),
(395,843,o),
(664,895,cs),
(803,922,o),
(1057,918,o),
(1231,906,c),
(1231,610,ls),
(1231,410,o),
(1213,368,o),
(1120,249,c),
(1057,170,o),
(989,102,o),
(836,54,c)
);
}
);
width = 1462;
},
{
layerId = m006;
shapes = (
{
closed = 1;
nodes = (
(2292,0,l),
(2292,960,l),
(2292,1002,ls),
(2296,1191,o),
(2287,1540,o),
(1206,1540,cs),
(459,1540,o),
(161,1341,o),
(148,1010,c),
(1099,1010,l),
(1109,1154,o),
(1168,1209,o),
(1267,1208,cs),
(1356,1208,o),
(1439,1164,o),
(1439,1010,cs),
(1439,917,l),
(1343,928,o),
(984,962,o),
(667,937,c),
(216,902,o),
(29,703,o),
(95,348,c),
(185,-10,o),
(562,-73,o),
(955,-10,cs),
(1178,26,o),
(1320,96,o),
(1439,279,c),
(1439,0,l)
);
},
{
closed = 1;
nodes = (
(1156,411,o),
(1058,441,o),
(1041,517,cs),
(1018,620,o),
(1090,670,o),
(1197,688,cs),
(1248,696,o),
(1342,696,o),
(1407,693,c),
(1407,623,ls),
(1407,574,o),
(1395,524,o),
(1360,489,cs),
(1333,458,o),
(1300,434,o),
(1263,429,cs)
);
}
);
width = 2374;
}
);
note = uni0061;
unicode = 97;
},
{
glyphname = uni0062;
kernLeft = uni0042;
kernRight = uni0062;
lastChange = "2026-04-09 08:54:05 +0000";
layers = (
{
layerId = m01;
shapes = (
{
closed = 1;
nodes = (
(182,1,l),
(437,1,l),
(437,2048,l),
(182,2048,l)
);
},
{
closed = 1;
nodes = (
(581,176,o),
(437,433,o),
(437,752,c),
(437,1072,o),
(581,1345,o),
(869,1345,c),
(1173,1345,o),
(1300,1072,o),
(1300,752,c),
(1300,433,o),
(1173,176,o),
(869,176,c)
);
},
{
closed = 1;
nodes = (
(501,1536,o),
(294,1201,o),
(294,769,c),
(294,336,o),
(501,-15,o),
(948,-15,c),
(1381,-15,o),
(1588,336,o),
(1588,769,c),
(1588,1185,o),
(1381,1536,o),
(948,1536,c)
);
}
);
width = 1718;
},
{
layerId = "F2C6FA2E-D08A-4B94-92D2-D7CA5820546A";
shapes = (
{
closed = 1;
nodes = (
(264,0,l),
(328,0,l),
(328,2048,l),
(264,2048,l)
);
},
{
closed = 1;
nodes = (
(514,39,o),
(328,378,o),
(328,752,c),
(328,1127,o),
(514,1483,o),
(913,1483,c),
(1312,1483,o),
(1497,1144,o),
(1497,749,c),
(1497,355,o),
(1312,39,o),
(913,39,c)
);
},
{
closed = 1;
nodes = (
(471,1536,o),
(284,1190,o),
(284,763,c),
(284,335,o),
(471,-15,o),
(913,-15,c),
(1354,-15,o),
(1559,332,o),
(1559,761,c),
(1559,1188,o),
(1354,1536,o),
(913,1536,c)
);
}
);
width = 1753;
},
{
layerId = "F8E60EAC-58E2-4CB8-A8B6-FD6FE89414CC";
shapes = (
{
closed = 1;
nodes = (
(128,0,l),
(1087,0,l),
(1087,2048,l),
(128,2048,l)
);
},
{
closed = 1;
nodes = (
(1182,543,o),
(1123,640,o),
(1123,757,c),
(1123,874,o),
(1182,974,o),
(1306,974,c),
(1433,974,o),
(1491,872,o),
(1491,755,c),
(1491,636,o),
(1433,543,o),
(1306,543,c)
);
},
{
closed = 1;
nodes = (
(1132,1537,o),
(883,1190,o),
(883,763,c),
(883,335,o),
(1132,-17,o),
(1660,-17,c),
(2190,-17,o),
(2435,331,o),
(2435,758,c),
(2435,1187,o),
(2190,1537,o),
(1660,1537,c)
);
}
);
width = 2543;
},
{
layerId = m004;
shapes = (
{
closed = 1;
nodes = (
(118,1,l),
(373,1,l),
(373,2048,l),
(118,2048,l)
);
},
{
closed = 1;
nodes = (
(517,176,o),
(373,433,o),
(373,752,c),
(373,1072,o),
(517,1345,o),
(805,1345,c),
(1109,1345,o),
(1236,1072,o),
(1236,752,c),
(1236,433,o),
(1109,176,o),
(805,176,c)
);
},
{
closed = 1;
nodes = (
(437,1536,o),
(230,1201,o),
(230,769,c),
(230,336,o),
(437,-15,o),
(884,-15,c),
(1317,-15,o),
(1524,336,o),
(1524,769,c),
(1524,1185,o),
(1317,1536,o),
(884,1536,c)
);
}
);
width = 1608;
},
{
layerId = m005;
shapes = (
{
closed = 1;
nodes = (
(172,0,l),
(236,0,l),
(236,2048,l),
(172,2048,l)
);
},
{
closed = 1;
nodes = (
(422,39,o),
(236,378,o),
(236,752,c),
(236,1127,o),
(422,1483,o),
(821,1483,c),
(1220,1483,o),
(1405,1144,o),
(1405,749,c),
(1405,355,o),
(1220,39,o),
(821,39,c)
);
},
{
closed = 1;
nodes = (
(379,1536,o),
(192,1190,o),
(192,763,c),
(192,335,o),
(379,-15,o),
(821,-15,c),
(1262,-15,o),
(1467,332,o),
(1467,761,c),
(1467,1188,o),
(1262,1536,o),
(821,1536,c)
);
}
);
width = 1593;
},
{
layerId = m006;
shapes = (
{
closed = 1;
nodes = (
(83,0,l),
(1042,0,l),
(1042,2048,l),
(83,2048,l)
);
},
{
closed = 1;
nodes = (
(1137,543,o),
(1078,640,o),
(1078,757,c),
(1078,874,o),
(1137,974,o),
(1261,974,c),
(1388,974,o),
(1446,872,o),
(1446,755,c),
(1446,636,o),
(1388,543,o),
(1261,543,c)
);
},
{
closed = 1;
nodes = (
(1087,1537,o),
(838,1190,o),
(838,763,c),
(838,335,o),
(1087,-17,o),
(1615,-17,c),
(2145,-17,o),
(2390,331,o),
(2390,758,c),
(2390,1187,o),
(2145,1537,o),
(1615,1537,c)
);
}
);
width = 2460;
}
);
note = uni0062;
unicode = 98;
},
{
glyphname = uni0063;
kernLeft = uni0064;
kernRight = uni0063;
lastChange = "2026-04-10 15:40:46 +0000";
layers = (
{
layerId = m01;
shapes = (
{
closed = 1;
nodes = (
(130,324,o),
(370,-31,o),
(872,-31,c),
(1306,-31,o),
(1537,198,o),
(1592,573,c),
(1306,573,l),
(1261,307,o),
(1114,158,o),
(864,158,c),
(559,158,o),
(414,430,o),
(414,763,c),
(414,1095,o),
(559,1366,o),
(864,1366,c),
(1118,1366,o),
(1266,1210,o),
(1309,937,c),
(1594,937,l),
(1543,1320,o),
(1311,1556,o),
(872,1556,c),
(370,1556,o),
(130,1201,o),
(130,763,c)
);
}
);
width = 1716;
},
{
layerId = "F2C6FA2E-D08A-4B94-92D2-D7CA5820546A";
shapes = (
{
closed = 1;
nodes = (
(194,323,o),
(413,-31,o),
(873,-31,c),
(1246,-31,o),
(1460,203,o),
(1526,524,c),
(1462,524,l),
(1396,229,o),
(1197,16,o),
(864,16,c),
(448,16,o),
(258,349,o),
(258,763,c),
(258,1175,o),
(448,1508,o),
(864,1508,c),
(1204,1508,o),
(1400,1288,o),
(1462,984,c),
(1526,984,l),
(1463,1314,o),
(1252,1555,o),
(873,1555,c),
(413,1555,o),
(194,1201,o),
(194,763,c)
);
}
);
width = 1720;
},
{
layerId = "F8E60EAC-58E2-4CB8-A8B6-FD6FE89414CC";
shapes = (
{
closed = 1;
nodes = (
(104,303,o),
(462,-31,o),
(1211,-31,c),
(1975,-31,o),
(2297,308,o),
(2314,716,c),
(1375,716,l),
(1369,633,o),
(1341,474,o),
(1209,474,c),
(1064,474,o),
(1040,625,o),
(1040,762,c),
(1040,900,o),
(1064,1052,o),
(1209,1052,c),
(1328,1052,o),
(1369,913,o),
(1376,825,c),
(2313,825,l),
(2283,1288,o),
(1881,1556,o),
(1211,1556,c),
(462,1556,o),
(104,1221,o),
(104,763,c)
);
}
);
width = 2420;
},
{
layerId = m004;
shapes = (
{
closed = 1;
nodes = (
(84,324,o),
(324,-31,o),
(826,-31,c),
(1260,-31,o),
(1491,198,o),
(1546,573,c),
(1260,573,l),
(1215,307,o),
(1068,158,o),
(818,158,c),
(513,158,o),
(368,430,o),
(368,763,c),
(368,1095,o),
(513,1366,o),
(818,1366,c),
(1072,1366,o),
(1220,1210,o),
(1263,937,c),
(1548,937,l),
(1497,1320,o),
(1265,1556,o),
(826,1556,c),
(324,1556,o),
(84,1201,o),
(84,763,c)
);
}
);
width = 1627;
},
{
layerId = m005;
shapes = (
{
closed = 1;
nodes = (
(126,323,o),
(345,-31,o),
(805,-31,c),
(1178,-31,o),
(1392,203,o),
(1458,524,c),
(1394,524,l),
(1328,229,o),
(1129,16,o),
(796,16,c),
(380,16,o),
(190,349,o),
(190,763,c),
(190,1175,o),
(380,1508,o),
(796,1508,c),
(1136,1508,o),
(1332,1288,o),
(1394,984,c),
(1458,984,l),
(1395,1314,o),
(1184,1555,o),
(805,1555,c),
(345,1555,o),
(126,1201,o),
(126,763,c)
);
}
);
width = 1584;
},
{
layerId = m006;
shapes = (
{
closed = 1;
nodes = (
(68,303,o),
(426,-31,o),
(1175,-31,c),
(1939,-31,o),
(2261,308,o),
(2278,716,c),
(1339,716,l),
(1333,633,o),
(1305,474,o),
(1173,474,c),
(1028,474,o),
(1004,625,o),
(1004,762,c),
(1004,900,o),
(1028,1052,o),
(1173,1052,c),
(1292,1052,o),
(1333,913,o),
(1340,825,c),
(2277,825,l),
(2247,1288,o),
(1845,1556,o),
(1175,1556,c),
(426,1556,o),
(68,1221,o),
(68,763,c)
);
}
);
width = 2347;
}
);
note = uni0063;
unicode = 99;
},
{
glyphname = uni0064;
kernLeft = uni0064;
kernRight = uni0048;
lastChange = "2026-04-09 08:54:05 +0000";
layers = (
{
layerId = m01;
shapes = (
{
closed = 1;
nodes = (
(1281,2048,l),
(1281,1,l),
(1536,1,l),
(1536,2048,l)
);
},
{
closed = 1;
nodes = (
(545,176,o),
(418,433,o),
(418,752,c),
(418,1072,o),
(545,1345,o),
(849,1345,c),
(1137,1345,o),
(1281,1072,o),
(1281,752,c),
(1281,433,o),
(1137,176,o),
(849,176,c)
);
},
{
closed = 1;
nodes = (
(337,1536,o),
(130,1185,o),
(130,769,c),
(130,336,o),
(337,-15,o),
(770,-15,c),
(1217,-15,o),
(1424,336,o),
(1424,769,c),
(1424,1201,o),
(1217,1536,o),
(770,1536,c)
);
}
);
width = 1718;
},
{
layerId = "F2C6FA2E-D08A-4B94-92D2-D7CA5820546A";
shapes = (
{
closed = 1;
nodes = (
(1425,2048,l),
(1425,0,l),
(1489,0,l),
(1489,2048,l)
);
},
{
closed = 1;
nodes = (
(445,45,o),
(262,359,o),
(262,749,c),
(262,1141,o),
(445,1477,o),
(842,1477,c),
(1239,1477,o),
(1426,1141,o),
(1426,752,c),
(1426,391,o),
(1239,45,o),
(842,45,c)
);
},
{
closed = 1;
nodes = (
(399,1536,o),
(194,1188,o),
(194,761,c),
(194,332,o),
(399,-15,o),
(840,-15,c),
(1282,-15,o),
(1469,335,o),
(1469,763,c),
(1469,1190,o),
(1282,1536,o),
(840,1536,c)
);
}
);
width = 1753;
},
{
layerId = "F8E60EAC-58E2-4CB8-A8B6-FD6FE89414CC";
shapes = (
{
closed = 1;
nodes = (
(1456,2048,l),
(1456,0,l),
(2415,0,l),
(2415,2048,l)
);
},
{
closed = 1;
nodes = (
(1110,543,o),
(1052,636,o),
(1052,755,c),
(1052,872,o),
(1110,974,o),
(1237,974,c),
(1361,974,o),
(1420,874,o),
(1420,757,c),
(1420,640,o),
(1361,543,o),
(1237,543,c)
);
},
{
closed = 1;
nodes = (
(353,1537,o),
(108,1187,o),
(108,758,c),
(108,331,o),
(353,-17,o),
(883,-17,c),
(1411,-17,o),
(1660,335,o),
(1660,763,c),
(1660,1190,o),
(1411,1537,o),
(883,1537,c)
);
}
);
width = 2543;
},
{
layerId = m004;
shapes = (
{
closed = 1;
nodes = (
(1235,2048,l),
(1235,1,l),
(1490,1,l),
(1490,2048,l)
);
},
{
closed = 1;
nodes = (
(499,176,o),
(372,433,o),
(372,752,c),
(372,1072,o),
(499,1345,o),
(803,1345,c),
(1091,1345,o),
(1235,1072,o),
(1235,752,c),
(1235,433,o),
(1091,176,o),
(803,176,c)
);
},
{
closed = 1;
nodes = (
(291,1536,o),
(84,1185,o),
(84,769,c),
(84,336,o),
(291,-15,o),
(724,-15,c),
(1171,-15,o),
(1378,336,o),
(1378,769,c),
(1378,1201,o),
(1171,1536,o),
(724,1536,c)
);
}
);
width = 1608;
},
{
layerId = m005;
shapes = (
{
closed = 1;
nodes = (
(1357,2048,l),
(1357,0,l),
(1421,0,l),
(1421,2048,l)
);
},
{
closed = 1;
nodes = (
(377,45,o),
(194,359,o),
(194,749,c),
(194,1141,o),
(377,1477,o),
(774,1477,c),
(1171,1477,o),
(1358,1141,o),
(1358,752,c),
(1358,391,o),
(1171,45,o),
(774,45,c)
);
},
{
closed = 1;
nodes = (
(331,1536,o),
(126,1188,o),
(126,761,c),
(126,332,o),
(331,-15,o),
(772,-15,c),
(1214,-15,o),
(1401,335,o),
(1401,763,c),
(1401,1190,o),
(1214,1536,o),
(772,1536,c)
);
}
);
width = 1593;
},
{
layerId = m006;
shapes = (
{
closed = 1;
nodes = (
(1418,2048,l),
(1418,0,l),
(2377,0,l),
(2377,2048,l)
);
},
{
closed = 1;
nodes = (
(1072,543,o),
(1014,636,o),
(1014,755,c),
(1014,872,o),
(1072,974,o),
(1199,974,c),
(1323,974,o),
(1382,874,o),
(1382,757,c),
(1382,640,o),
(1323,543,o),
(1199,543,c)
);
},
{
closed = 1;
nodes = (
(315,1537,o),
(70,1187,o),
(70,758,c),
(70,331,o),
(315,-17,o),
(845,-17,c),
(1373,-17,o),
(1622,335,o),
(1622,763,c),
(1622,1190,o),
(1373,1537,o),
(845,1537,c)
);
}
);
width = 2460;
}
);
note = uni0064;
unicode = 100;
},
{
glyphname = uni0065;
kernLeft = uni0064;
kernRight = uni0065;
lastChange = "2026-04-09 08:54:05 +0000";
layers = (
{
layerId = m01;
shapes = (
{
closed = 1;
nodes = (
(1049,1365,o),
(1218,1148,o),
(1218,874,c),
(389,874,l),
(418,1136,o),
(550,1365,o),
(800,1365,c)
);
},
{
closed = 1;
nodes = (
(130,326,o),
(349,-29,o),
(807,-29,c),
(1167,-29,o),
(1374,189,o),
(1447,495,c),
(1183,495,l),
(1123,314,o),
(996,163,o),
(800,163,c),
(550,163,o),
(418,391,o),
(389,652,c),
(1218,652,l),
(1472,652,l),
(1475,689,o),
(1476,726,o),
(1476,763,c),
(1476,1201,o),
(1265,1556,o),
(807,1556,c),
(349,1556,o),
(130,1201,o),
(130,763,c)
);
}
);
width = 1606;
},
{
layerId = "F2C6FA2E-D08A-4B94-92D2-D7CA5820546A";
shapes = (
{
closed = 1;
nodes = (
(1170,1499,o),
(1364,1161,o),
(1364,716,c),
(266,716,l),
(237,1153,o),
(457,1499,o),
(814,1499,c)
);
},
{
closed = 1;
nodes = (
(194,327,o),
(394,-29,o),
(811,-29,c),
(1113,-29,o),
(1297,156,o),
(1377,423,c),
(1312,423,l),
(1249,250,o),
(1125,34,o),
(805,34,c),
(535,34,o),
(292,232,o),
(266,652,c),
(1186,652,l),
(1418,652,l),
(1421,690,o),
(1422,725,o),
(1422,764,c),
(1422,1203,o),
(1229,1556,o),
(811,1556,c),
(394,1556,o),
(194,1203,o),
(194,764,c)
);
}
);
width = 1616;
},
{
layerId = "F8E60EAC-58E2-4CB8-A8B6-FD6FE89414CC";
shapes = (
{
closed = 1;
nodes = (
(1356,1198,o),
(1379,1043,o),
(1381,919,c),
(1061,919,l),
(1063,1043,o),
(1094,1198,o),
(1221,1198,c)
);
},
{
closed = 1;
nodes = (
(104,326,o),
(468,-29,o),
(1229,-29,c),
(1827,-29,o),
(2227,181,o),
(2326,594,c),
(1377,594,l),
(1377,509,o),
(1330,408,o),
(1221,408,c),
(1076,408,o),
(1039,543,o),
(1039,703,c),
(1912,703,l),
(2340,703,l),
(2340,703,o),
(2342,744,o),
(2342,763,c),
(2342,1201,o),
(1991,1556,o),
(1229,1556,c),
(468,1556,o),
(104,1201,o),
(104,763,c)
);
}
);
width = 2446;
},
{
layerId = m004;
shapes = (
{
closed = 1;
nodes = (
(1003,1365,o),
(1172,1148,o),
(1172,874,c),
(343,874,l),
(372,1136,o),
(504,1365,o),
(754,1365,c)
);
},
{
closed = 1;
nodes = (
(84,326,o),
(303,-29,o),
(761,-29,c),
(1121,-29,o),
(1328,189,o),
(1401,495,c),
(1137,495,l),
(1077,314,o),
(950,163,o),
(754,163,c),
(504,163,o),
(372,391,o),
(343,652,c),
(1172,652,l),
(1426,652,l),
(1429,689,o),
(1430,726,o),
(1430,763,c),
(1430,1201,o),
(1219,1556,o),
(761,1556,c),
(303,1556,o),
(84,1201,o),
(84,763,c)
);
}
);
width = 1514;
},
{
layerId = m005;
shapes = (
{
closed = 1;
nodes = (
(1102,1499,o),
(1296,1161,o),
(1296,716,c),
(198,716,l),
(169,1153,o),
(389,1499,o),
(746,1499,c)
);
},
{
closed = 1;
nodes = (
(126,327,o),
(326,-29,o),
(743,-29,c),
(1045,-29,o),
(1229,156,o),
(1309,423,c),
(1244,423,l),
(1181,250,o),
(1057,34,o),
(737,34,c),
(467,34,o),
(224,232,o),
(198,652,c),
(1118,652,l),
(1350,652,l),
(1353,690,o),
(1354,725,o),
(1354,764,c),
(1354,1203,o),
(1161,1556,o),
(743,1556,c),
(326,1556,o),
(126,1203,o),
(126,764,c)
);
}
);
width = 1480;
},
{
layerId = m006;
shapes = (
{
closed = 1;
nodes = (
(1320,1198,o),
(1343,1043,o),
(1345,919,c),
(1025,919,l),
(1027,1043,o),
(1058,1198,o),
(1185,1198,c)
);
},
{
closed = 1;
nodes = (
(68,326,o),
(432,-29,o),
(1193,-29,c),
(1791,-29,o),
(2191,181,o),
(2290,594,c),
(1341,594,l),
(1341,509,o),
(1294,408,o),
(1185,408,c),
(1040,408,o),
(1003,543,o),
(1003,703,c),
(1876,703,l),
(2304,703,l),
(2304,703,o),
(2306,744,o),
(2306,763,c),
(2306,1201,o),
(1955,1556,o),
(1193,1556,c),
(432,1556,o),
(68,1201,o),
(68,763,c)
);
}
);
width = 2374;
}
);
note = uni0065;
unicode = 101;
},
{
glyphname = uni0066;
kernLeft = uni0066;
kernRight = uni0066;
lastChange = "2026-04-09 08:54:05 +0000";
layers = (
{
layerId = m01;
shapes = (
{
closed = 1;
nodes = (
(641,0,l),
(641,1321,l),
(961,1321,l),
(961,1534,l),
(641,1534,l),
(641,1727,ls),
(641,1796,o),
(697,1854,o),
(768,1854,cs),
(961,1854,l),
(961,2077,l),
(768,2077,ls),
(557,2077,o),
(385,1906,o),
(385,1694,cs),
(385,1534,l),
(130,1534,l),
(130,1321,l),
(385,1321,l),
(385,0,l)
);
}
);
width = 1091;
},
{
layerId = "F2C6FA2E-D08A-4B94-92D2-D7CA5820546A";
shapes = (
{
closed = 1;
nodes = (
(489,0,l),
(489,1483,l),
(904,1483,l),
(904,1536,l),
(489,1536,l),
(489,1697,ls),
(489,1877,o),
(632,2017,o),
(786,2017,cs),
(904,2017,l),
(904,2078,l),
(787,2078,ls),
(576,2078,o),
(424,1916,o),
(424,1704,cs),
(424,1536,l),
(199,1536,l),
(199,1483,l),
(424,1483,l),
(424,0,l)
);
}
);
width = 1050;
},
{
layerId = "F8E60EAC-58E2-4CB8-A8B6-FD6FE89414CC";
shapes = (
{
closed = 1;
nodes = (
(1310,0,l),
(1310,1050,l),
(1690,1050,l),
(1690,1453,l),
(1310,1453,l),
(1310,1553,ls),
(1310,1604,o),
(1339,1644,o),
(1399,1644,cs),
(1690,1644,l),
(1690,2047,l),
(769,2047,ls),
(475,2047,o),
(351,1794,o),
(351,1627,cs),
(351,1453,l),
(82,1453,l),
(82,1050,l),
(351,1050,l),
(351,0,l)
);
}
);
width = 1772;
},
{
layerId = m004;
shapes = (
{
closed = 1;
nodes = (
(595,0,l),
(595,1321,l),
(915,1321,l),
(915,1534,l),
(595,1534,l),
(595,1727,ls),
(595,1796,o),
(651,1854,o),
(722,1854,cs),
(915,1854,l),
(915,2077,l),
(722,2077,ls),
(511,2077,o),
(339,1906,o),
(339,1694,cs),
(339,1534,l),
(84,1534,l),
(84,1321,l),
(339,1321,l),
(339,0,l)
);
}
);
width = 999;
},
{
layerId = m005;
shapes = (
{
closed = 1;
nodes = (
(419,0,l),
(419,1483,l),
(834,1483,l),
(834,1536,l),
(419,1536,l),
(419,1697,ls),
(419,1877,o),
(562,2017,o),
(716,2017,cs),
(834,2017,l),
(834,2078,l),
(717,2078,ls),
(506,2078,o),
(354,1916,o),
(354,1704,cs),
(354,1536,l),
(129,1536,l),
(129,1483,l),
(354,1483,l),
(354,0,l)
);
}
);
width = 929;
},
{
layerId = m006;
shapes = (
{
closed = 1;
nodes = (
(1281,0,l),
(1281,1050,l),
(1661,1050,l),
(1661,1453,l),
(1281,1453,l),
(1281,1553,ls),
(1281,1604,o),
(1310,1644,o),
(1370,1644,cs),
(1661,1644,l),
(1661,2047,l),
(740,2047,ls),
(446,2047,o),
(322,1794,o),
(322,1627,cs),
(322,1453,l),
(53,1453,l),
(53,1050,l),
(322,1050,l),
(322,0,l)
);
}
);
width = 1714;
}
);
note = uni0066;
unicode = 102;
},
{
glyphname = uni0067;
kernLeft = uni0064;
kernRight = uni0067;
lastChange = "2026-04-09 08:54:05 +0000";
layers = (
{
layerId = m01;
shapes = (
{
closed = 1;
nodes = (
(567,173,o),
(422,431,o),
(422,756,c),
(422,1082,o),
(567,1357,o),
(861,1357,c),
(1170,1357,o),
(1299,1082,o),
(1299,756,c),
(1299,431,o),
(1170,173,o),
(861,173,c)
);
},
{
closed = 1;
nodes = (
(1315,1536,l),
(1315,1292,l),
(1202,1455,o),
(1039,1552,o),
(795,1552,c),
(341,1552,o),
(130,1210,o),
(130,773,c),
(130,335,o),
(341,-23,o),
(795,-23,c),
(1039,-23,o),
(1202,91,o),
(1315,253,c),
(1315,91,l),
(1315,-153,o),
(1250,-401,o),
(877,-401,c),
(616,-401,o),
(503,-267,o),
(471,-119,c),
(206,-119,l),
(287,-445,o),
(519,-608,o),
(877,-608,c),
(1396,-608,o),
(1575,-299,o),
(1575,91,c),
(1575,1536,l)
);
}
);
width = 1741;
},
{
layerId = "F2C6FA2E-D08A-4B94-92D2-D7CA5820546A";
shapes = (
{
closed = 1;
nodes = (
(451,15,o),
(261,343,o),
(261,750,c),
(261,1157,o),
(451,1505,o),
(858,1505,c),
(1265,1505,o),
(1456,1158,o),
(1456,751,c),
(1456,344,o),
(1265,15,o),
(858,15,c)
);
},
{
closed = 1;
nodes = (
(1456,1538,l),
(1456,1146,l),
(1362,1389,o),
(1166,1554,o),
(857,1554,c),
(406,1554,o),
(194,1197,o),
(194,759,c),
(194,321,o),
(406,-35,o),
(857,-35,c),
(1166,-35,o),
(1362,133,o),
(1456,377,c),
(1456,-2,l),
(1456,-300,o),
(1174,-542,o),
(875,-542,c),
(657,-542,o),
(428,-413,o),
(343,-227,c),
(272,-227,l),
(367,-463,o),
(631,-608,o),
(875,-608,c),
(1210,-608,o),
(1523,-336,o),
(1523,-2,c),
(1523,1538,l)
);
}
);
width = 1727;
},
{
layerId = "F8E60EAC-58E2-4CB8-A8B6-FD6FE89414CC";
shapes = (
{
closed = 1;
nodes = (
(1069,600,o),
(1013,690,o),
(1013,803,c),
(1013,917,o),
(1069,1016,o),
(1189,1016,c),
(1309,1016,o),
(1366,919,o),
(1366,805,c),
(1366,693,o),
(1309,600,o),
(1189,600,c)
);
},
{
closed = 1;
nodes = (
(1397,1536,l),
(1397,1349,l),
(1274,1474,o),
(1094,1552,o),
(850,1552,c),
(344,1552,o),
(108,1216,o),
(108,808,c),
(108,398,o),
(344,64,o),
(850,64,c),
(1094,64,o),
(1274,142,o),
(1397,268,c),
(1397,24,l),
(1397,-81,o),
(1373,-221,o),
(1217,-221,c),
(1103,-221,o),
(1044,-161,o),
(1039,3,c),
(108,3,l),
(272,-511,o),
(634,-680,o),
(1207,-680,c),
(2038,-680,o),
(2318,-254,o),
(2318,271,c),
(2318,1536,l)
);
}
);
width = 2450;
},
{
layerId = m004;
shapes = (
{
closed = 1;
nodes = (
(521,173,o),
(376,431,o),
(376,756,c),
(376,1082,o),
(521,1357,o),
(815,1357,c),
(1124,1357,o),
(1253,1082,o),
(1253,756,c),
(1253,431,o),
(1124,173,o),
(815,173,c)
);
},
{
closed = 1;
nodes = (
(1269,1536,l),
(1269,1292,l),
(1156,1455,o),
(993,1552,o),
(749,1552,c),
(295,1552,o),
(84,1210,o),
(84,773,c),
(84,335,o),
(295,-23,o),
(749,-23,c),
(993,-23,o),
(1156,91,o),
(1269,253,c),
(1269,91,l),
(1269,-153,o),
(1204,-401,o),
(831,-401,c),
(570,-401,o),
(457,-267,o),
(425,-119,c),
(160,-119,l),
(241,-445,o),
(473,-608,o),
(831,-608,c),
(1350,-608,o),
(1529,-299,o),
(1529,91,c),
(1529,1536,l)
);
}
);
width = 1637;
},
{
layerId = m005;
shapes = (
{
closed = 1;
nodes = (
(383,15,o),
(193,343,o),
(193,750,c),
(193,1157,o),
(383,1505,o),
(790,1505,c),
(1197,1505,o),
(1388,1158,o),
(1388,751,c),
(1388,344,o),
(1197,15,o),
(790,15,c)
);
},
{
closed = 1;
nodes = (
(1388,1538,l),
(1388,1146,l),
(1294,1389,o),
(1098,1554,o),
(789,1554,c),
(338,1554,o),
(126,1197,o),
(126,759,c),
(126,321,o),
(338,-35,o),
(789,-35,c),
(1098,-35,o),
(1294,133,o),
(1388,377,c),
(1388,-2,l),
(1388,-300,o),
(1106,-542,o),
(807,-542,c),
(589,-542,o),
(360,-413,o),
(275,-227,c),
(204,-227,l),
(299,-463,o),
(563,-608,o),
(807,-608,c),
(1142,-608,o),
(1455,-336,o),
(1455,-2,c),
(1455,1538,l)
);
}
);
width = 1588;
},
{
layerId = m006;
shapes = (
{
closed = 1;
nodes = (
(1031,600,o),
(975,690,o),
(975,803,c),
(975,917,o),
(1031,1016,o),
(1151,1016,c),
(1271,1016,o),
(1328,919,o),
(1328,805,c),
(1328,693,o),
(1271,600,o),
(1151,600,c)
);
},
{
closed = 1;
nodes = (
(1359,1536,l),
(1359,1349,l),
(1236,1474,o),
(1056,1552,o),
(812,1552,c),
(306,1552,o),
(70,1216,o),
(70,808,c),
(70,398,o),
(306,64,o),
(812,64,c),
(1056,64,o),
(1236,142,o),
(1359,268,c),
(1359,24,l),
(1359,-81,o),
(1335,-221,o),
(1179,-221,c),
(1065,-221,o),
(1006,-161,o),
(1001,3,c),
(70,3,l),
(234,-511,o),
(596,-680,o),
(1169,-680,c),
(2000,-680,o),
(2280,-254,o),
(2280,271,c),
(2280,1536,l)
);
}
);
width = 2366;
}
);
note = uni0067;
unicode = 103;
},
{
glyphname = uni0068;
kernLeft = uni0042;
kernRight = uni0061;
lastChange = "2026-04-09 08:54:05 +0000";
layers = (
{
layerId = m01;
shapes = (
{
closed = 1;
nodes = (
(584,1536,o),
(338,1291,o),
(338,988,c),
(338,0,l),
(417,0,l),
(417,905,l),
(417,1133,o),
(601,1316,o),
(828,1316,c),
(1025,1316,o),
(1185,1157,o),
(1185,960,c),
(1185,0,l),
(1435,0,l),
(1435,1050,l),
(1435,1318,o),
(1217,1536,o),
(918,1536,c)
);
},
{
closed = 1;
nodes = (
(166,0,l),
(417,0,l),
(417,2048,l),
(166,2048,l)
);
}
);
width = 1601;
},
{
layerId = "F2C6FA2E-D08A-4B94-92D2-D7CA5820546A";
shapes = (
{
closed = 1;
nodes = (
(499,1536,o),
(241,1271,o),
(241,968,c),
(241,0,l),
(305,0,l),
(305,1030,l),
(305,1268,o),
(541,1473,o),
(825,1473,c),
(1079,1473,o),
(1296,1264,o),
(1296,1019,c),
(1296,0,l),
(1360,0,l),
(1360,1030,l),
(1360,1318,o),
(1122,1536,o),
(823,1536,c)
);
},
{
closed = 1;
nodes = (
(240,0,l),
(305,0,l),
(305,2048,l),
(240,2048,l)
);
}
);
width = 1600;
},
{
layerId = "F8E60EAC-58E2-4CB8-A8B6-FD6FE89414CC";
shapes = (
{
closed = 1;
nodes = (
(1315,1568,o),
(1014,1359,o),
(1014,1008,c),
(1014,0,l),
(1093,0,l),
(1093,842,l),
(1093,1019,o),
(1147,1137,o),
(1314,1137,c),
(1485,1137,o),
(1525,993,o),
(1525,833,c),
(1525,0,l),
(2490,0,l),
(2490,993,l),
(2490,1311,o),
(2237,1568,o),
(1754,1568,c)
);
},
{
closed = 1;
nodes = (
(132,0,l),
(1093,0,l),
(1093,2048,l),
(132,2048,l)
);
}
);
width = 2619;
},
{
layerId = m004;
shapes = (
{
closed = 1;
nodes = (
(526,1536,o),
(280,1291,o),
(280,988,c),
(280,0,l),
(359,0,l),
(359,905,l),
(359,1133,o),
(543,1316,o),
(770,1316,c),
(967,1316,o),
(1127,1157,o),
(1127,960,c),
(1127,0,l),
(1377,0,l),
(1377,1050,l),
(1377,1318,o),
(1159,1536,o),
(860,1536,c)
);
},
{
closed = 1;
nodes = (
(108,0,l),
(359,0,l),
(359,2048,l),
(108,2048,l)
);
}
);
width = 1485;
},
{
layerId = m005;
shapes = (
{
closed = 1;
nodes = (
(415,1536,o),
(157,1271,o),
(157,968,c),
(157,0,l),
(221,0,l),
(221,1030,l),
(221,1268,o),
(457,1473,o),
(741,1473,c),
(995,1473,o),
(1212,1264,o),
(1212,1019,c),
(1212,0,l),
(1276,0,l),
(1276,1030,l),
(1276,1318,o),
(1038,1536,o),
(739,1536,c)
);
},
{
closed = 1;
nodes = (
(156,0,l),
(221,0,l),
(221,2048,l),
(156,2048,l)
);
}
);
width = 1432;
},
{
layerId = m006;
shapes = (
{
closed = 1;
nodes = (
(1269,1568,o),
(968,1359,o),
(968,1008,c),
(968,0,l),
(1047,0,l),
(1047,842,l),
(1047,1019,o),
(1101,1137,o),
(1268,1137,c),
(1439,1137,o),
(1479,993,o),
(1479,833,c),
(1479,0,l),
(2444,0,l),
(2444,993,l),
(2444,1311,o),
(2191,1568,o),
(1708,1568,c)
);
},
{
closed = 1;
nodes = (
(86,0,l),
(1047,0,l),
(1047,2048,l),
(86,2048,l)
);
}
);
width = 2528;
}
);
note = uni0068;
unicode = 104;
},
{
glyphname = uni0069;
kernLeft = uni0069;
kernRight = uni006A;
lastChange = "2026-04-09 08:54:05 +0000";
layers = (
{
layerId = m01;
shapes = (
{
closed = 1;
nodes = (
(142,0,l),
(398,0,l),
(398,1536,l),
(142,1536,l)
);
},
{
closed = 1;
nodes = (
(142,1792,l),
(398,1792,l),
(398,2048,l),
(142,2048,l)
);
}
);
width = 540;
},
{
layerId = "F2C6FA2E-D08A-4B94-92D2-D7CA5820546A";
shapes = (
{
closed = 1;
nodes = (
(228,0,l),
(292,0,l),
(292,1536,l),
(228,1536,l)
);
},
{
closed = 1;
nodes = (
(228,1791,l),
(292,1791,l),
(292,2048,l),
(228,2048,l)
);
}
);
width = 520;
},
{
layerId = "F8E60EAC-58E2-4CB8-A8B6-FD6FE89414CC";
shapes = (
{
closed = 1;
nodes = (
(132,0,l),
(1093,0,l),
(1093,1537,l),
(132,1537,l)
);
},
{
closed = 1;
nodes = (
(132,1646,l),
(1093,1646,l),
(1093,2048,l),
(132,2048,l)
);
}
);
width = 1225;
},
{
layerId = m004;
shapes = (
{
closed = 1;
nodes = (
(92,0,l),
(348,0,l),
(348,1536,l),
(92,1536,l)
);
},
{
closed = 1;
nodes = (
(92,1792,l),
(348,1792,l),
(348,2048,l),
(92,2048,l)
);
}
);
width = 440;
},
{
layerId = m005;
shapes = (
{
closed = 1;
nodes = (
(148,0,l),
(212,0,l),
(212,1536,l),
(148,1536,l)
);
},
{
closed = 1;
nodes = (
(148,1791,l),
(212,1791,l),
(212,2048,l),
(148,2048,l)
);
}
);
width = 360;
},
{
layerId = m006;
shapes = (
{
closed = 1;
nodes = (
(86,0,l),
(1047,0,l),
(1047,1537,l),
(86,1537,l)
);
},
{
closed = 1;
nodes = (
(86,1646,l),
(1047,1646,l),
(1047,2048,l),
(86,2048,l)
);
}
);
width = 1133;
}
);
note = uni0069;
unicode = 105;
},
{
glyphname = uni006A;
kernLeft = uni0069;
kernRight = uni006A;
lastChange = "2026-04-09 08:54:05 +0000";
layers = (
{
layerId = m01;
shapes = (
{
closed = 1;
nodes = (
(335,1796,l),
(591,1796,l),
(591,2048,l),
(335,2048,l)
);
},
{
closed = 1;
nodes = (
(591,-119,l),
(591,-331,o),
(419,-502,o),
(208,-502,c),
(84,-502,l),
(84,-279,l),
(208,-279,l),
(279,-279,o),
(335,-221,o),
(335,-152,c),
(335,1536,l),
(591,1536,l)
);
}
);
width = 733;
},
{
layerId = "F2C6FA2E-D08A-4B94-92D2-D7CA5820546A";
shapes = (
{
closed = 1;
nodes = (
(468,1791,l),
(532,1791,l),
(532,2048,l),
(468,2048,l)
);
},
{
closed = 1;
nodes = (
(532,-125,l),
(532,-337,o),
(380,-499,o),
(169,-499,c),
(116,-499,l),
(116,-438,l),
(171,-438,l),
(325,-438,o),
(468,-298,o),
(468,-118,c),
(468,1536,l),
(532,1536,l)
);
}
);
width = 760;
},
{
layerId = "F8E60EAC-58E2-4CB8-A8B6-FD6FE89414CC";
shapes = (
{
closed = 1;
nodes = (
(324,1645,l),
(1283,1645,l),
(1283,2048,l),
(324,2048,l)
);
},
{
closed = 1;
nodes = (
(1283,-261,l),
(1283,-428,o),
(1159,-681,o),
(865,-681,c),
(64,-681,l),
(64,-62,l),
(235,-62,l),
(295,-62,o),
(324,-22,o),
(324,29,c),
(324,1536,l),
(1283,1536,l)
);
}
);
width = 1415;
},
{
layerId = m004;
shapes = (
{
closed = 1;
nodes = (
(306,1796,l),
(562,1796,l),
(562,2048,l),
(306,2048,l)
);
},
{
closed = 1;
nodes = (
(562,-119,l),
(562,-331,o),
(390,-502,o),
(179,-502,c),
(55,-502,l),
(55,-279,l),
(179,-279,l),
(250,-279,o),
(306,-221,o),
(306,-152,c),
(306,1536,l),
(562,1536,l)
);
}
);
width = 654;
},
{
layerId = m005;
shapes = (
{
closed = 1;
nodes = (
(427,1791,l),
(491,1791,l),
(491,2048,l),
(427,2048,l)
);
},
{
closed = 1;
nodes = (
(491,-125,l),
(491,-337,o),
(339,-499,o),
(128,-499,c),
(75,-499,l),
(75,-438,l),
(130,-438,l),
(284,-438,o),
(427,-298,o),
(427,-118,c),
(427,1536,l),
(491,1536,l)
);
}
);
width = 639;
},
{
layerId = m006;
shapes = (
{
closed = 1;
nodes = (
(302,1645,l),
(1261,1645,l),
(1261,2048,l),
(302,2048,l)
);
},
{
closed = 1;
nodes = (
(1261,-261,l),
(1261,-428,o),
(1137,-681,o),
(843,-681,c),
(42,-681,l),
(42,-62,l),
(213,-62,l),
(273,-62,o),
(302,-22,o),
(302,29,c),
(302,1536,l),
(1261,1536,l)
);
}
);
width = 1347;
}
);
note = uni006A;
unicode = 106;
},
{
glyphname = uni006B;
kernLeft = uni0042;
kernRight = uni006B;
lastChange = "2026-04-09 08:54:05 +0000";
layers = (
{
layerId = m01;
shapes = (
{
closed = 1;
nodes = (
(1414,0,l),
(741,880,l),
(1366,1537,l),
(1046,1537,l),
(422,880,l),
(1093,0,l)
);
},
{
closed = 1;
nodes = (
(422,0,l),
(422,2048,l),
(166,2048,l),
(166,0,l)
);
}
);
width = 1492;
},
{
layerId = "F2C6FA2E-D08A-4B94-92D2-D7CA5820546A";
shapes = (
{
closed = 1;
nodes = (
(1194,-1,l),
(394,879,l),
(1112,1536,l),
(1014,1536,l),
(304,879,l),
(1105,-1,l)
);
},
{
closed = 1;
nodes = (
(304,-1,l),
(304,2047,l),
(240,2047,l),
(240,-1,l)
);
}
);
width = 1341;
},
{
layerId = "F8E60EAC-58E2-4CB8-A8B6-FD6FE89414CC";
shapes = (
{
closed = 1;
nodes = (
(2758,0,l),
(2085,880,l),
(2710,1537,l),
(1717,1537,l),
(1093,880,l),
(1764,0,l)
);
},
{
closed = 1;
nodes = (
(1093,0,l),
(1093,2048,l),
(134,2048,l),
(134,0,l)
);
}
);
width = 2804;
},
{
layerId = m004;
shapes = (
{
closed = 1;
nodes = (
(1356,0,l),
(683,880,l),
(1308,1537,l),
(988,1537,l),
(364,880,l),
(1035,0,l)
);
},
{
closed = 1;
nodes = (
(364,0,l),
(364,2048,l),
(108,2048,l),
(108,0,l)
);
}
);
width = 1407;
},
{
layerId = m005;
shapes = (
{
closed = 1;
nodes = (
(1110,-1,l),
(310,879,l),
(1028,1536,l),
(930,1536,l),
(220,879,l),
(1021,-1,l)
);
},
{
closed = 1;
nodes = (
(220,-1,l),
(220,2047,l),
(156,2047,l),
(156,-1,l)
);
}
);
width = 1206;
},
{
layerId = m006;
shapes = (
{
closed = 1;
nodes = (
(2711,0,l),
(2038,880,l),
(2663,1537,l),
(1670,1537,l),
(1046,880,l),
(1717,0,l)
);
},
{
closed = 1;
nodes = (
(1046,0,l),
(1046,2048,l),
(87,2048,l),
(87,0,l)
);
}
);
width = 2741;
}
);
note = uni006B;
unicode = 107;
},
{
glyphname = uni006C;
kernLeft = uni0042;
kernRight = uni0048;
lastChange = "2026-04-09 08:54:05 +0000";
layers = (
{
layerId = m01;
shapes = (
{
closed = 1;
nodes = (
(166,0,l),
(422,0,l),
(422,2048,l),
(166,2048,l)
);
}
);
width = 588;
},
{
layerId = "F2C6FA2E-D08A-4B94-92D2-D7CA5820546A";
shapes = (
{
closed = 1;
nodes = (
(240,0,l),
(304,0,l),
(304,2048,l),
(240,2048,l)
);
}
);
width = 544;
},
{
layerId = "F8E60EAC-58E2-4CB8-A8B6-FD6FE89414CC";
shapes = (
{
closed = 1;
nodes = (
(132,0,l),
(1092,0,l),
(1092,2048,l),
(132,2048,l)
);
}
);
width = 1224;
},
{
layerId = m004;
shapes = (
{
closed = 1;
nodes = (
(108,0,l),
(364,0,l),
(364,2048,l),
(108,2048,l)
);
}
);
width = 472;
},
{
layerId = m005;
shapes = (
{
closed = 1;
nodes = (
(156,0,l),
(220,0,l),
(220,2048,l),
(156,2048,l)
);
}
);
width = 376;
},
{
layerId = m006;
shapes = (
{
closed = 1;
nodes = (
(86,0,l),
(1046,0,l),
(1046,2048,l),
(86,2048,l)
);
}
);
width = 1132;
}
);
note = uni006C;
unicode = 108;
},
{
glyphname = uni006D;
kernLeft = uni006D;
kernRight = uni0061;
lastChange = "2026-04-09 08:54:05 +0000";
layers = (
{
layerId = m01;
shapes = (
{
closed = 1;
nodes = (
(584,1536,o),
(338,1291,o),
(338,988,c),
(338,0,l),
(417,0,l),
(417,905,l),
(417,1133,o),
(601,1316,o),
(828,1316,c),
(1025,1316,o),
(1185,1157,o),
(1185,960,c),
(1185,0,l),
(1435,0,l),
(1435,1050,l),
(1435,1318,o),
(1217,1536,o),
(918,1536,c)
);
},
{
closed = 1;
nodes = (
(166,0,l),
(417,0,l),
(417,1536,l),
(166,1536,l)
);
},
{
closed = 1;
nodes = (
(1602,1536,o),
(1356,1291,o),
(1356,988,c),
(1356,0,l),
(1435,0,l),
(1435,905,l),
(1435,1133,o),
(1619,1316,o),
(1846,1316,c),
(2043,1316,o),
(2203,1157,o),
(2203,960,c),
(2203,0,l),
(2453,0,l),
(2453,1050,l),
(2453,1318,o),
(2235,1536,o),
(1936,1536,c)
);
}
);
width = 2619;
},
{
layerId = "F2C6FA2E-D08A-4B94-92D2-D7CA5820546A";
shapes = (
{
closed = 1;
nodes = (
(499,1536,o),
(241,1271,o),
(241,968,c),
(241,0,l),
(305,0,l),
(305,1042,l),
(305,1280,o),
(541,1473,o),
(825,1473,c),
(1079,1473,o),
(1296,1264,o),
(1296,1019,c),
(1296,0,l),
(1360,0,l),
(1360,1030,l),
(1360,1318,o),
(1122,1536,o),
(823,1536,c)
);
},
{
closed = 1;
nodes = (
(240,0,l),
(305,0,l),
(305,1539,l),
(240,1539,l)
);
},
{
closed = 1;
nodes = (
(1554,1536,o),
(1296,1271,o),
(1296,968,c),
(1296,0,l),
(1360,0,l),
(1360,985,l),
(1360,1223,o),
(1596,1473,o),
(1880,1473,c),
(2134,1473,o),
(2351,1264,o),
(2351,1019,c),
(2351,0,l),
(2415,0,l),
(2415,1030,l),
(2415,1318,o),
(2177,1536,o),
(1878,1536,c)
);
}
);
width = 2655;
},
{
layerId = "F8E60EAC-58E2-4CB8-A8B6-FD6FE89414CC";
shapes = (
{
closed = 1;
nodes = (
(1315,1568,o),
(1014,1359,o),
(1014,1008,c),
(1014,0,l),
(1093,0,l),
(1093,842,l),
(1093,1019,o),
(1147,1137,o),
(1314,1137,c),
(1485,1137,o),
(1525,993,o),
(1525,833,c),
(1525,0,l),
(2490,0,l),
(2490,993,l),
(2490,1311,o),
(2237,1568,o),
(1754,1568,c)
);
},
{
closed = 1;
nodes = (
(132,0,l),
(1093,0,l),
(1093,1536,l),
(132,1536,l)
);
},
{
closed = 1;
nodes = (
(2712,1568,o),
(2411,1359,o),
(2411,1008,c),
(2411,0,l),
(2490,0,l),
(2490,842,l),
(2490,1019,o),
(2544,1137,o),
(2711,1137,c),
(2882,1137,o),
(2922,993,o),
(2922,833,c),
(2922,0,l),
(3887,0,l),
(3887,993,l),
(3887,1311,o),
(3634,1568,o),
(3151,1568,c)
);
}
);
width = 4015;
},
{
layerId = m004;
shapes = (
{
closed = 1;
nodes = (
(526,1536,o),
(280,1291,o),
(280,988,c),
(280,0,l),
(359,0,l),
(359,905,l),
(359,1133,o),
(543,1316,o),
(770,1316,c),
(967,1316,o),
(1127,1157,o),
(1127,960,c),
(1127,0,l),
(1377,0,l),
(1377,1050,l),
(1377,1318,o),
(1159,1536,o),
(860,1536,c)
);
},
{
closed = 1;
nodes = (
(108,0,l),
(359,0,l),
(359,1536,l),
(108,1536,l)
);
},
{
closed = 1;
nodes = (
(1544,1536,o),
(1298,1291,o),
(1298,988,c),
(1298,0,l),
(1377,0,l),
(1377,905,l),
(1377,1133,o),
(1561,1316,o),
(1788,1316,c),
(1985,1316,o),
(2145,1157,o),
(2145,960,c),
(2145,0,l),
(2395,0,l),
(2395,1050,l),
(2395,1318,o),
(2177,1536,o),
(1878,1536,c)
);
}
);
width = 2503;
},
{
layerId = m005;
shapes = (
{
closed = 1;
nodes = (
(415,1536,o),
(157,1271,o),
(157,968,c),
(157,0,l),
(221,0,l),
(221,1042,l),
(221,1280,o),
(457,1473,o),
(741,1473,c),
(995,1473,o),
(1212,1264,o),
(1212,1019,c),
(1212,0,l),
(1276,0,l),
(1276,1030,l),
(1276,1318,o),
(1038,1536,o),
(739,1536,c)
);
},
{
closed = 1;
nodes = (
(156,0,l),
(221,0,l),
(221,1539,l),
(156,1539,l)
);
},
{
closed = 1;
nodes = (
(1470,1536,o),
(1212,1271,o),
(1212,968,c),
(1212,0,l),
(1276,0,l),
(1276,985,l),
(1276,1223,o),
(1512,1473,o),
(1796,1473,c),
(2050,1473,o),
(2267,1264,o),
(2267,1019,c),
(2267,0,l),
(2331,0,l),
(2331,1030,l),
(2331,1318,o),
(2093,1536,o),
(1794,1536,c)
);
}
);
width = 2487;
},
{
layerId = m006;
shapes = (
{
closed = 1;
nodes = (
(1269,1568,o),
(968,1359,o),
(968,1008,c),
(968,0,l),
(1047,0,l),
(1047,842,l),
(1047,1019,o),
(1101,1137,o),
(1268,1137,c),
(1439,1137,o),
(1479,993,o),
(1479,833,c),
(1479,0,l),
(2444,0,l),
(2444,993,l),
(2444,1311,o),
(2191,1568,o),
(1708,1568,c)
);
},
{
closed = 1;
nodes = (
(86,0,l),
(1047,0,l),
(1047,1536,l),
(86,1536,l)
);
},
{
closed = 1;
nodes = (
(2666,1568,o),
(2365,1359,o),
(2365,1008,c),
(2365,0,l),
(2444,0,l),
(2444,842,l),
(2444,1019,o),
(2498,1137,o),
(2665,1137,c),
(2836,1137,o),
(2876,993,o),
(2876,833,c),
(2876,0,l),
(3841,0,l),
(3841,993,l),
(3841,1311,o),
(3588,1568,o),
(3105,1568,c)
);
}
);
width = 3924;
}
);
note = uni006D;
unicode = 109;
},
{
glyphname = uni006E;
kernLeft = uni006D;
kernRight = uni0061;
lastChange = "2026-04-09 08:54:05 +0000";
layers = (
{
layerId = m01;
shapes = (
{
closed = 1;
nodes = (
(584,1536,o),
(338,1291,o),
(338,988,c),
(338,0,l),
(417,0,l),
(417,905,l),
(417,1133,o),
(601,1316,o),
(828,1316,c),
(1025,1316,o),
(1185,1157,o),
(1185,960,c),
(1185,0,l),
(1435,0,l),
(1435,1050,l),
(1435,1318,o),
(1217,1536,o),
(918,1536,c)
);
},
{
closed = 1;
nodes = (
(166,0,l),
(417,0,l),
(417,1536,l),
(166,1536,l)
);
}
);
width = 1601;
},
{
layerId = "F2C6FA2E-D08A-4B94-92D2-D7CA5820546A";
shapes = (
{
closed = 1;
nodes = (
(499,1536,o),
(241,1271,o),
(241,968,c),
(241,0,l),
(305,0,l),
(305,1030,l),
(305,1268,o),
(541,1473,o),
(825,1473,c),
(1079,1473,o),
(1296,1264,o),
(1296,1019,c),
(1296,0,l),
(1360,0,l),
(1360,1030,l),
(1360,1318,o),
(1122,1536,o),
(823,1536,c)
);
},
{
closed = 1;
nodes = (
(240,0,l),
(305,0,l),
(305,1539,l),
(240,1539,l)
);
}
);
width = 1600;
},
{
layerId = "F8E60EAC-58E2-4CB8-A8B6-FD6FE89414CC";
shapes = (
{
closed = 1;
nodes = (
(1315,1568,o),
(1014,1359,o),
(1014,1008,c),
(1014,0,l),
(1093,0,l),
(1093,842,l),
(1093,1019,o),
(1147,1137,o),
(1314,1137,c),
(1485,1137,o),
(1525,993,o),
(1525,833,c),
(1525,0,l),
(2490,0,l),
(2490,993,l),
(2490,1311,o),
(2237,1568,o),
(1754,1568,c)
);
},
{
closed = 1;
nodes = (
(132,0,l),
(1093,0,l),
(1093,1536,l),
(132,1536,l)
);
}
);
width = 2618;
},
{
layerId = m004;
shapes = (
{
closed = 1;
nodes = (
(526,1536,o),
(280,1291,o),
(280,988,c),
(280,0,l),
(359,0,l),
(359,905,l),
(359,1133,o),
(543,1316,o),
(770,1316,c),
(967,1316,o),
(1127,1157,o),
(1127,960,c),
(1127,0,l),
(1377,0,l),
(1377,1050,l),
(1377,1318,o),
(1159,1536,o),
(860,1536,c)
);
},
{
closed = 1;
nodes = (
(108,0,l),
(359,0,l),
(359,1536,l),
(108,1536,l)
);
}
);
width = 1485;
},
{
layerId = m005;
shapes = (
{
closed = 1;
nodes = (
(415,1536,o),
(157,1271,o),
(157,968,c),
(157,0,l),
(221,0,l),
(221,1030,l),
(221,1268,o),
(457,1473,o),
(741,1473,c),
(995,1473,o),
(1212,1264,o),
(1212,1019,c),
(1212,0,l),
(1276,0,l),
(1276,1030,l),
(1276,1318,o),
(1038,1536,o),
(739,1536,c)
);
},
{
closed = 1;
nodes = (
(156,0,l),
(221,0,l),
(221,1539,l),
(156,1539,l)
);
}
);
width = 1432;
},
{
layerId = m006;
shapes = (
{
closed = 1;
nodes = (
(1269,1568,o),
(968,1359,o),
(968,1008,c),
(968,0,l),
(1047,0,l),
(1047,842,l),
(1047,1019,o),
(1101,1137,o),
(1268,1137,c),
(1439,1137,o),
(1479,993,o),
(1479,833,c),
(1479,0,l),
(2444,0,l),
(2444,993,l),
(2444,1311,o),
(2191,1568,o),
(1708,1568,c)
);
},
{
closed = 1;
nodes = (
(86,0,l),
(1047,0,l),
(1047,1536,l),
(86,1536,l)
);
}
);
width = 2527;
}
);
note = uni006E;
unicode = 110;
},
{
glyphname = uni006F;
kernLeft = uni0064;
kernRight = uni0062;
lastChange = "2026-04-14 15:42:20 +0000";
layers = (
{
layerId = m01;
shapes = (
{
closed = 1;
nodes = (
(560,154,o),
(417,424,o),
(417,757,c),
(417,1091,o),
(560,1362,o),
(862,1362,c),
(1164,1362,o),
(1322,1091,o),
(1322,757,c),
(1322,424,o),
(1164,154,o),
(862,154,c)
);
},
{
closed = 1;
nodes = (
(370,1552,o),
(130,1202,o),
(130,757,c),
(130,328,o),
(370,-36,o),
(862,-36,c),
(1369,-36,o),
(1609,328,o),
(1609,757,c),
(1609,1202,o),
(1369,1552,o),
(862,1552,c)
);
}
);
width = 1739;
},
{
layerId = "F2C6FA2E-D08A-4B94-92D2-D7CA5820546A";
shapes = (
{
closed = 1;
nodes = (
(515,13,o),
(258,375,o),
(258,758,c),
(258,1172,o),
(465,1504,o),
(924,1504,c),
(1368,1504,o),
(1607,1172,o),
(1607,758,c),
(1607,345,o),
(1368,13,o),
(924,13,c)
);
},
{
closed = 1;
nodes = (
(433,1552,o),
(194,1203,o),
(194,758,c),
(194,330,o),
(433,-35,o),
(924,-35,c),
(1432,-35,o),
(1671,330,o),
(1671,758,c),
(1671,1203,o),
(1432,1552,o),
(924,1552,c)
);
}
);
width = 1865;
},
{
layerId = "F8E60EAC-58E2-4CB8-A8B6-FD6FE89414CC";
shapes = (
{
closed = 1;
nodes = (
(1094,507,o),
(1043,625,o),
(1043,759,c),
(1043,890,o),
(1094,1009,o),
(1197,1009,c),
(1298,1009,o),
(1359,890,o),
(1359,759,c),
(1359,625,o),
(1298,507,o),
(1197,507,c)
);
},
{
closed = 1;
nodes = (
(429,1557,o),
(104,1199,o),
(104,759,c),
(104,317,o),
(413,-41,o),
(1207,-41,c),
(1985,-41,o),
(2298,317,o),
(2298,759,c),
(2298,1199,o),
(1985,1557,o),
(1207,1557,c)
);
}
);
width = 2402;
},
{
layerId = m004;
shapes = (
{
closed = 1;
nodes = (
(514,154,o),
(371,424,o),
(371,757,c),
(371,1091,o),
(514,1362,o),
(816,1362,c),
(1118,1362,o),
(1276,1091,o),
(1276,757,c),
(1276,424,o),
(1118,154,o),
(816,154,c)
);
},
{
closed = 1;
nodes = (
(324,1552,o),
(84,1202,o),
(84,757,c),
(84,328,o),
(324,-36,o),
(816,-36,c),
(1323,-36,o),
(1563,328,o),
(1563,757,c),
(1563,1202,o),
(1323,1552,o),
(816,1552,c)
);
}
);
width = 1647;
},
{
layerId = m005;
shapes = (
{
closed = 1;
nodes = (
(447,13,o),
(190,375,o),
(190,758,c),
(190,1172,o),
(397,1504,o),
(856,1504,c),
(1300,1504,o),
(1539,1172,o),
(1539,758,c),
(1539,345,o),
(1300,13,o),
(856,13,c)
);
},
{
closed = 1;
nodes = (
(365,1552,o),
(126,1203,o),
(126,758,c),
(126,330,o),
(365,-35,o),
(856,-35,c),
(1364,-35,o),
(1603,330,o),
(1603,758,c),
(1603,1203,o),
(1364,1552,o),
(856,1552,c)
);
}
);
width = 1729;
},
{
layerId = m006;
shapes = (
{
closed = 1;
nodes = (
(1058,507,o),
(1007,625,o),
(1007,759,c),
(1007,890,o),
(1058,1009,o),
(1161,1009,c),
(1262,1009,o),
(1323,890,o),
(1323,759,c),
(1323,625,o),
(1262,507,o),
(1161,507,c)
);
},
{
closed = 1;
nodes = (
(393,1557,o),
(68,1199,o),
(68,759,c),
(68,317,o),
(377,-41,o),
(1171,-41,c),
(1949,-41,o),
(2262,317,o),
(2262,759,c),
(2262,1199,o),
(1949,1557,o),
(1171,1557,c)
);
}
);
width = 2330;
}
);
note = uni006F;
unicode = 111;
},
{
glyphname = uni0070;
kernLeft = uni006D;
kernRight = uni0062;
lastChange = "2026-04-09 08:54:05 +0000";
layers = (
{
layerId = m01;
shapes = (
{
closed = 1;
nodes = (
(421,-511,l),
(421,1536,l),
(166,1536,l),
(166,-511,l)
);
},
{
closed = 1;
nodes = (
(1157,1361,o),
(1284,1104,o),
(1284,785,c),
(1284,465,o),
(1157,192,o),
(853,192,c),
(565,192,o),
(421,465,o),
(421,785,c),
(421,1104,o),
(565,1361,o),
(853,1361,c)
);
},
{
closed = 1;
nodes = (
(1365,1,o),
(1572,352,o),
(1572,768,c),
(1572,1201,o),
(1365,1552,o),
(932,1552,c),
(485,1552,o),
(278,1201,o),
(278,768,c),
(278,336,o),
(485,1,o),
(932,1,c)
);
}
);
width = 1702;
},
{
layerId = "F2C6FA2E-D08A-4B94-92D2-D7CA5820546A";
shapes = (
{
closed = 1;
nodes = (
(304,-512,l),
(304,1536,l),
(240,1536,l),
(240,-512,l)
);
},
{
closed = 1;
nodes = (
(1286,1503,o),
(1470,1184,o),
(1470,787,c),
(1470,389,o),
(1286,47,o),
(888,47,c),
(490,47,o),
(303,386,o),
(303,784,c),
(303,1181,o),
(490,1503,o),
(888,1503,c)
);
},
{
closed = 1;
nodes = (
(1330,0,o),
(1535,348,o),
(1535,775,c),
(1535,1204,o),
(1330,1551,o),
(889,1551,c),
(447,1551,o),
(240,1201,o),
(240,773,c),
(240,346,o),
(447,0,o),
(889,0,c)
);
}
);
width = 1729;
},
{
layerId = "F8E60EAC-58E2-4CB8-A8B6-FD6FE89414CC";
shapes = (
{
closed = 1;
nodes = (
(1091,-512,l),
(1091,1536,l),
(132,1536,l),
(132,-512,l)
);
},
{
closed = 1;
nodes = (
(1437,993,o),
(1495,900,o),
(1495,781,c),
(1495,664,o),
(1437,562,o),
(1310,562,c),
(1186,562,o),
(1127,662,o),
(1127,779,c),
(1127,896,o),
(1186,993,o),
(1310,993,c)
);
},
{
closed = 1;
nodes = (
(2194,-1,o),
(2439,349,o),
(2439,778,c),
(2439,1205,o),
(2194,1553,o),
(1664,1553,c),
(1136,1553,o),
(887,1201,o),
(887,773,c),
(887,346,o),
(1136,-1,o),
(1664,-1,c)
);
}
);
width = 2547;
},
{
layerId = m004;
shapes = (
{
closed = 1;
nodes = (
(363,-511,l),
(363,1536,l),
(108,1536,l),
(108,-511,l)
);
},
{
closed = 1;
nodes = (
(1099,1361,o),
(1226,1104,o),
(1226,785,c),
(1226,465,o),
(1099,192,o),
(795,192,c),
(507,192,o),
(363,465,o),
(363,785,c),
(363,1104,o),
(507,1361,o),
(795,1361,c)
);
},
{
closed = 1;
nodes = (
(1307,1,o),
(1514,352,o),
(1514,768,c),
(1514,1201,o),
(1307,1552,o),
(874,1552,c),
(427,1552,o),
(220,1201,o),
(220,768,c),
(220,336,o),
(427,1,o),
(874,1,c)
);
}
);
width = 1598;
},
{
layerId = m005;
shapes = (
{
closed = 1;
nodes = (
(220,-512,l),
(220,1536,l),
(156,1536,l),
(156,-512,l)
);
},
{
closed = 1;
nodes = (
(1202,1503,o),
(1386,1184,o),
(1386,787,c),
(1386,389,o),
(1202,47,o),
(804,47,c),
(406,47,o),
(219,386,o),
(219,784,c),
(219,1181,o),
(406,1503,o),
(804,1503,c)
);
},
{
closed = 1;
nodes = (
(1246,0,o),
(1451,348,o),
(1451,775,c),
(1451,1204,o),
(1246,1551,o),
(805,1551,c),
(363,1551,o),
(156,1201,o),
(156,773,c),
(156,346,o),
(363,0,o),
(805,0,c)
);
}
);
width = 1577;
},
{
layerId = m006;
shapes = (
{
closed = 1;
nodes = (
(1045,-512,l),
(1045,1536,l),
(86,1536,l),
(86,-512,l)
);
},
{
closed = 1;
nodes = (
(1391,993,o),
(1449,900,o),
(1449,781,c),
(1449,664,o),
(1391,562,o),
(1264,562,c),
(1140,562,o),
(1081,662,o),
(1081,779,c),
(1081,896,o),
(1140,993,o),
(1264,993,c)
);
},
{
closed = 1;
nodes = (
(2148,-1,o),
(2393,349,o),
(2393,778,c),
(2393,1205,o),
(2148,1553,o),
(1618,1553,c),
(1090,1553,o),
(841,1201,o),
(841,773,c),
(841,346,o),
(1090,-1,o),
(1618,-1,c)
);
}
);
width = 2463;
}
);
note = uni0070;
unicode = 112;
},
{
glyphname = uni0071;
kernLeft = uni0064;
kernRight = uni0067;
lastChange = "2026-04-10 15:27:14 +0000";
layers = (
{
layerId = m01;
shapes = (
{
closed = 1;
nodes = (
(1536,1536,l),
(1281,1536,l),
(1281,-511,l),
(1536,-511,l)
);
},
{
closed = 1;
nodes = (
(1137,1361,o),
(1281,1104,o),
(1281,785,c),
(1281,465,o),
(1137,192,o),
(849,192,c),
(545,192,o),
(418,465,o),
(418,785,c),
(418,1104,o),
(545,1361,o),
(849,1361,c)
);
},
{
closed = 1;
nodes = (
(1217,1,o),
(1424,336,o),
(1424,768,c),
(1424,1201,o),
(1217,1552,o),
(770,1552,c),
(337,1552,o),
(130,1201,o),
(130,768,c),
(130,352,o),
(337,1,o),
(770,1,c)
);
}
);
width = 1702;
},
{
layerId = "F2C6FA2E-D08A-4B94-92D2-D7CA5820546A";
shapes = (
{
closed = 1;
nodes = (
(1489,1536,l),
(1425,1536,l),
(1425,-512,l),
(1489,-512,l)
);
},
{
closed = 1;
nodes = (
(1239,1503,o),
(1426,1181,o),
(1426,784,c),
(1426,386,o),
(1239,47,o),
(841,47,c),
(443,47,o),
(259,389,o),
(259,787,c),
(259,1184,o),
(443,1503,o),
(841,1503,c)
);
},
{
closed = 1;
nodes = (
(1282,0,o),
(1489,346,o),
(1489,773,c),
(1489,1201,o),
(1282,1551,o),
(840,1551,c),
(399,1551,o),
(194,1204,o),
(194,775,c),
(194,348,o),
(399,0,o),
(840,0,c)
);
}
);
width = 1729;
},
{
layerId = "F8E60EAC-58E2-4CB8-A8B6-FD6FE89414CC";
shapes = (
{
closed = 1;
nodes = (
(2415,1536,l),
(1456,1536,l),
(1456,-512,l),
(2415,-512,l)
);
},
{
closed = 1;
nodes = (
(1361,993,o),
(1420,896,o),
(1420,779,c),
(1420,662,o),
(1361,562,o),
(1237,562,c),
(1110,562,o),
(1052,664,o),
(1052,781,c),
(1052,900,o),
(1110,993,o),
(1237,993,c)
);
},
{
closed = 1;
nodes = (
(1411,-1,o),
(1660,346,o),
(1660,773,c),
(1660,1201,o),
(1411,1553,o),
(883,1553,c),
(353,1553,o),
(108,1205,o),
(108,778,c),
(108,349,o),
(353,-1,o),
(883,-1,c)
);
}
);
width = 2547;
},
{
layerId = m004;
shapes = (
{
closed = 1;
nodes = (
(1490,1536,l),
(1235,1536,l),
(1235,-511,l),
(1490,-511,l)
);
},
{
closed = 1;
nodes = (
(1091,1361,o),
(1235,1104,o),
(1235,785,c),
(1235,465,o),
(1091,192,o),
(803,192,c),
(499,192,o),
(372,465,o),
(372,785,c),
(372,1104,o),
(499,1361,o),
(803,1361,c)
);
},
{
closed = 1;
nodes = (
(1171,1,o),
(1378,336,o),
(1378,768,c),
(1378,1201,o),
(1171,1552,o),
(724,1552,c),
(291,1552,o),
(84,1201,o),
(84,768,c),
(84,352,o),
(291,1,o),
(724,1,c)
);
}
);
width = 1598;
},
{
layerId = m005;
shapes = (
{
closed = 1;
nodes = (
(1421,1536,l),
(1357,1536,l),
(1357,-512,l),
(1421,-512,l)
);
},
{
closed = 1;
nodes = (
(1171,1503,o),
(1358,1181,o),
(1358,784,c),
(1358,386,o),
(1171,47,o),
(773,47,c),
(375,47,o),
(191,389,o),
(191,787,c),
(191,1184,o),
(375,1503,o),
(773,1503,c)
);
},
{
closed = 1;
nodes = (
(1214,0,o),
(1421,346,o),
(1421,773,c),
(1421,1201,o),
(1214,1551,o),
(772,1551,c),
(331,1551,o),
(126,1204,o),
(126,775,c),
(126,348,o),
(331,0,o),
(772,0,c)
);
}
);
width = 1577;
},
{
layerId = m006;
shapes = (
{
closed = 1;
nodes = (
(2377,1536,l),
(1418,1536,l),
(1418,-512,l),
(2377,-512,l)
);
},
{
closed = 1;
nodes = (
(1323,993,o),
(1382,896,o),
(1382,779,c),
(1382,662,o),
(1323,562,o),
(1199,562,c),
(1072,562,o),
(1014,664,o),
(1014,781,c),
(1014,900,o),
(1072,993,o),
(1199,993,c)
);
},
{
closed = 1;
nodes = (
(1373,-1,o),
(1622,346,o),
(1622,773,c),
(1622,1201,o),
(1373,1553,o),
(845,1553,c),
(315,1553,o),
(70,1205,o),
(70,778,c),
(70,349,o),
(315,-1,o),
(845,-1,c)
);
}
);
width = 2463;
}
);
note = uni0071;
unicode = 113;
},
{
glyphname = uni0072;
kernLeft = uni006D;
kernRight = uni0072;
lastChange = "2026-04-09 08:54:05 +0000";
layers = (
{
layerId = m01;
shapes = (
{
closed = 1;
nodes = (
(414,899,ls),
(414,1040,o),
(513,1222,o),
(678,1299,o),
(790,1304,qs),
(837,1306,o),
(911,1300,o),
(935,1289,q),
(935,1550,l),
(915,1551,o),
(856,1553,o),
(830,1553,qs),
(692,1551,o),
(456,1415,o),
(414,1292,q),
(414,1292,l),
(414,1536,l),
(166,1536,l),
(166,0,l),
(414,0,l)
);
}
);
width = 1025;
},
{
layerId = "F2C6FA2E-D08A-4B94-92D2-D7CA5820546A";
shapes = (
{
closed = 1;
nodes = (
(288,1003,ls),
(288,1180,o),
(403,1387,o),
(615,1496,o),
(782,1484,qs),
(794,1483,o),
(802,1483,o),
(814,1481,q),
(814,1545,l),
(802,1547,o),
(794,1547,o),
(782,1548,qs),
(585,1564,o),
(323,1403,o),
(288,1257,q),
(288,1257,l),
(288,1535,l),
(224,1535,l),
(224,-1,l),
(288,-1,l)
);
}
);
width = 958;
},
{
layerId = "F8E60EAC-58E2-4CB8-A8B6-FD6FE89414CC";
shapes = (
{
closed = 1;
nodes = (
(1092,437,ls),
(1092,564,o),
(1199,753,o),
(1385,868,o),
(1501,868,qs),
(1572,868,o),
(1736,833,o),
(1795,798,q),
(1795,1526,l),
(1748,1540,o),
(1645,1556,o),
(1593,1556,qs),
(1376,1556,o),
(1076,1271,o),
(1076,1143,q),
(1076,1143,l),
(1076,1536,l),
(132,1536,l),
(132,0,l),
(1092,0,l)
);
}
);
width = 1877;
},
{
layerId = m004;
shapes = (
{
closed = 1;
nodes = (
(356,899,ls),
(356,1040,o),
(455,1222,o),
(620,1299,o),
(732,1304,qs),
(779,1306,o),
(853,1300,o),
(877,1289,q),
(877,1550,l),
(857,1551,o),
(798,1553,o),
(772,1553,qs),
(634,1551,o),
(398,1415,o),
(356,1292,q),
(356,1292,l),
(356,1536,l),
(108,1536,l),
(108,0,l),
(356,0,l)
);
}
);
width = 935;
},
{
layerId = m005;
shapes = (
{
closed = 1;
nodes = (
(210,1003,ls),
(210,1180,o),
(325,1387,o),
(537,1496,o),
(704,1484,qs),
(716,1483,o),
(724,1483,o),
(736,1481,q),
(736,1545,l),
(724,1547,o),
(716,1547,o),
(704,1548,qs),
(507,1564,o),
(245,1403,o),
(210,1257,q),
(210,1257,l),
(210,1535,l),
(146,1535,l),
(146,-1,l),
(210,-1,l)
);
}
);
width = 830;
},
{
layerId = m006;
shapes = (
{
closed = 1;
nodes = (
(1046,437,ls),
(1046,564,o),
(1153,753,o),
(1339,868,o),
(1455,868,qs),
(1526,868,o),
(1690,833,o),
(1749,798,q),
(1749,1526,l),
(1702,1540,o),
(1599,1556,o),
(1547,1556,qs),
(1330,1556,o),
(1030,1271,o),
(1030,1143,q),
(1030,1143,l),
(1030,1536,l),
(86,1536,l),
(86,0,l),
(1046,0,l)
);
}
);
width = 1802;
}
);
note = uni0072;
unicode = 114;
},
{
glyphname = uni0073;
kernLeft = uni0073;
kernRight = uni0073;
lastChange = "2026-04-14 12:32:16 +0000";
layers = (
{
layerId = m01;
shapes = (
{
closed = 1;
nodes = (
(650,-32,o),
(536,-14,o),
(441,24,c),
(346,60,o),
(272,118,o),
(218,193,c),
(165,270,o),
(135,368,o),
(128,485,c),
(400,485,l),
(407,411,o),
(425,354,o),
(454,309,c),
(483,266,o),
(523,234,o),
(577,215,c),
(630,196,o),
(700,185,o),
(786,185,c),
(867,185,o),
(932,193,o),
(983,210,c),
(1033,227,o),
(1071,252,o),
(1096,286,c),
(1121,317,o),
(1133,358,o),
(1133,405,c),
(1133,450,o),
(1122,486,o),
(1102,515,c),
(1081,544,o),
(1047,568,o),
(998,588,c),
(950,608,o),
(884,626,o),
(798,641,c),
(648,668,l),
(547,685,o),
(461,712,o),
(389,750,c),
(318,788,o),
(264,837,o),
(226,898,c),
(188,959,o),
(170,1031,o),
(170,1117,c),
(170,1206,o),
(191,1283,o),
(237,1348,c),
(283,1413,o),
(348,1464,o),
(435,1500,c),
(520,1537,o),
(624,1554,o),
(742,1554,c),
(880,1554,o),
(997,1535,o),
(1090,1494,c),
(1182,1454,o),
(1252,1398,o),
(1299,1322,c),
(1346,1248,o),
(1371,1157,o),
(1375,1049,c),
(1109,1049,l),
(1105,1122,o),
(1088,1180,o),
(1059,1220,c),
(1030,1263,o),
(990,1292,o),
(938,1307,c),
(886,1324,o),
(820,1333,o),
(742,1333,c),
(677,1333,o),
(623,1325,o),
(577,1309,c),
(532,1293,o),
(498,1270,o),
(475,1239,c),
(452,1207,o),
(439,1170,o),
(439,1125,c),
(439,1082,o),
(450,1045,o),
(474,1016,c),
(496,987,o),
(527,963,o),
(570,946,c),
(612,928,o),
(666,913,o),
(731,903,c),
(880,875,l),
(998,855,o),
(1096,826,o),
(1172,789,c),
(1249,753,o),
(1306,706,o),
(1346,646,c),
(1386,587,o),
(1406,514,o),
(1406,426,c),
(1406,329,o),
(1381,246,o),
(1332,178,c),
(1282,109,o),
(1210,57,o),
(1116,21,c),
(1022,-14,o),
(913,-32,o),
(784,-32,c)
);
}
);
width = 1534;
},
{
layerId = "F2C6FA2E-D08A-4B94-92D2-D7CA5820546A";
shapes = (
{
closed = 1;
nodes = (
(667,-29,o),
(555,-7,o),
(467,35,c),
(379,77,o),
(312,135,o),
(267,207,c),
(224,281,o),
(199,364,o),
(194,459,c),
(262,459,l),
(268,372,o),
(290,297,o),
(330,233,c),
(370,169,o),
(429,119,o),
(507,82,c),
(586,48,o),
(682,30,o),
(799,30,c),
(900,30,o),
(989,43,o),
(1064,67,c),
(1139,91,o),
(1198,130,o),
(1240,184,c),
(1283,238,o),
(1304,305,o),
(1304,389,c),
(1304,453,o),
(1291,506,o),
(1263,551,c),
(1235,595,o),
(1190,633,o),
(1131,661,c),
(1071,691,o),
(993,713,o),
(896,729,c),
(716,756,l),
(610,775,o),
(522,799,o),
(453,832,c),
(383,864,o),
(331,908,o),
(293,961,c),
(257,1016,o),
(240,1083,o),
(240,1162,c),
(240,1244,o),
(260,1314,o),
(302,1372,c),
(345,1429,o),
(406,1474,o),
(485,1504,c),
(566,1535,o),
(662,1551,o),
(772,1551,c),
(901,1551,o),
(1007,1533,o),
(1089,1497,c),
(1170,1460,o),
(1230,1410,o),
(1268,1347,c),
(1308,1285,o),
(1329,1212,o),
(1337,1129,c),
(1269,1129,l),
(1263,1202,o),
(1242,1266,o),
(1207,1321,c),
(1173,1373,o),
(1120,1416,o),
(1050,1445,c),
(978,1476,o),
(885,1491,o),
(770,1491,c),
(674,1491,o),
(591,1478,o),
(522,1453,c),
(453,1428,o),
(400,1391,o),
(364,1343,c),
(326,1293,o),
(308,1233,o),
(308,1163,c),
(308,1095,o),
(324,1036,o),
(356,990,c),
(389,944,o),
(437,909,o),
(499,882,c),
(564,855,o),
(646,832,o),
(746,816,c),
(925,787,l),
(1027,770,o),
(1110,746,o),
(1177,712,c),
(1244,679,o),
(1293,635,o),
(1325,583,c),
(1357,529,o),
(1374,466,o),
(1374,393,c),
(1374,294,o),
(1348,215,o),
(1298,152,c),
(1247,89,o),
(1179,44,o),
(1092,14,c),
(1007,-15,o),
(908,-29,o),
(798,-29,c)
);
}
);
width = 1568;
},
{
layerId = "F8E60EAC-58E2-4CB8-A8B6-FD6FE89414CC";
shapes = (
{
closed = 1;
nodes = (
(984,-29,o),
(780,-9,o),
(617,32,c),
(455,71,o),
(332,131,o),
(247,209,c),
(162,287,o),
(112,386,o),
(98,503,c),
(942,503,l),
(948,468,o),
(964,439,o),
(986,418,c),
(1010,395,o),
(1043,379,o),
(1086,370,c),
(1131,359,o),
(1186,355,o),
(1255,355,c),
(1312,355,o),
(1363,358,o),
(1402,365,c),
(1443,371,o),
(1472,380,o),
(1492,392,c),
(1512,405,o),
(1524,423,o),
(1524,441,c),
(1524,459,o),
(1516,472,o),
(1505,484,c),
(1493,497,o),
(1474,507,o),
(1446,514,c),
(1418,522,o),
(1382,528,o),
(1335,532,c),
(905,572,l),
(736,589,o),
(593,617,o),
(478,656,c),
(362,698,o),
(274,751,o),
(214,816,c),
(155,883,o),
(124,961,o),
(124,1052,c),
(124,1163,o),
(167,1256,o),
(251,1331,c),
(334,1405,o),
(459,1461,o),
(621,1499,c),
(785,1537,o),
(983,1556,o),
(1217,1556,c),
(1476,1556,o),
(1686,1533,o),
(1844,1488,c),
(2004,1442,o),
(2119,1381,o),
(2192,1307,c),
(2262,1231,o),
(2302,1144,o),
(2310,1043,c),
(1516,1043,l),
(1511,1079,o),
(1499,1106,o),
(1476,1126,c),
(1456,1148,o),
(1423,1163,o),
(1382,1172,c),
(1340,1181,o),
(1285,1186,o),
(1217,1186,c),
(1157,1186,o),
(1110,1183,o),
(1074,1178,c),
(1037,1172,o),
(1010,1163,o),
(991,1151,c),
(974,1137,o),
(966,1123,o),
(966,1105,c),
(966,1086,o),
(972,1071,o),
(987,1058,c),
(1003,1046,o),
(1030,1036,o),
(1068,1027,c),
(1107,1020,o),
(1162,1013,o),
(1234,1006,c),
(1582,973,l),
(1772,957,o),
(1924,927,o),
(2042,885,c),
(2159,843,o),
(2245,790,o),
(2299,726,c),
(2354,662,o),
(2380,587,o),
(2380,500,c),
(2380,386,o),
(2335,289,o),
(2244,211,c),
(2153,132,o),
(2022,72,o),
(1848,32,c),
(1676,-9,o),
(1468,-29,o),
(1225,-29,c)
);
}
);
width = 2478;
},
{
layerId = m004;
shapes = (
{
closed = 1;
nodes = (
(605,-32,o),
(491,-14,o),
(396,24,c),
(301,60,o),
(227,118,o),
(173,193,c),
(120,270,o),
(90,368,o),
(83,485,c),
(355,485,l),
(362,411,o),
(380,354,o),
(409,309,c),
(438,266,o),
(478,234,o),
(532,215,c),
(585,196,o),
(655,185,o),
(741,185,c),
(822,185,o),
(887,193,o),
(938,210,c),
(988,227,o),
(1026,252,o),
(1051,286,c),
(1076,317,o),
(1088,358,o),
(1088,405,c),
(1088,450,o),
(1077,486,o),
(1057,515,c),
(1036,544,o),
(1002,568,o),
(953,588,c),
(905,608,o),
(839,626,o),
(753,641,c),
(603,668,l),
(502,685,o),
(416,712,o),
(344,750,c),
(273,788,o),
(219,837,o),
(181,898,c),
(143,959,o),
(125,1031,o),
(125,1117,c),
(125,1206,o),
(146,1283,o),
(192,1348,c),
(238,1413,o),
(303,1464,o),
(390,1500,c),
(475,1537,o),
(579,1554,o),
(697,1554,c),
(835,1554,o),
(952,1535,o),
(1045,1494,c),
(1137,1454,o),
(1207,1398,o),
(1254,1322,c),
(1301,1248,o),
(1326,1157,o),
(1330,1049,c),
(1064,1049,l),
(1060,1122,o),
(1043,1180,o),
(1014,1220,c),
(985,1263,o),
(945,1292,o),
(893,1307,c),
(841,1324,o),
(775,1333,o),
(697,1333,c),
(632,1333,o),
(578,1325,o),
(532,1309,c),
(487,1293,o),
(453,1270,o),
(430,1239,c),
(407,1207,o),
(394,1170,o),
(394,1125,c),
(394,1082,o),
(405,1045,o),
(429,1016,c),
(451,987,o),
(482,963,o),
(525,946,c),
(567,928,o),
(621,913,o),
(686,903,c),
(835,875,l),
(953,855,o),
(1051,826,o),
(1127,789,c),
(1204,753,o),
(1261,706,o),
(1301,646,c),
(1341,587,o),
(1361,514,o),
(1361,426,c),
(1361,329,o),
(1336,246,o),
(1287,178,c),
(1237,109,o),
(1165,57,o),
(1071,21,c),
(977,-14,o),
(868,-32,o),
(739,-32,c)
);
}
);
width = 1444;
},
{
layerId = m005;
shapes = (
{
closed = 1;
nodes = (
(599,-29,o),
(487,-7,o),
(399,35,c),
(311,77,o),
(244,135,o),
(199,207,c),
(156,281,o),
(131,364,o),
(126,459,c),
(194,459,l),
(200,372,o),
(222,297,o),
(262,233,c),
(302,169,o),
(361,119,o),
(439,82,c),
(518,48,o),
(614,30,o),
(731,30,c),
(832,30,o),
(921,43,o),
(996,67,c),
(1071,91,o),
(1130,130,o),
(1172,184,c),
(1215,238,o),
(1236,305,o),
(1236,389,c),
(1236,453,o),
(1223,506,o),
(1195,551,c),
(1167,595,o),
(1122,633,o),
(1063,661,c),
(1003,691,o),
(925,713,o),
(828,729,c),
(648,756,l),
(542,775,o),
(454,799,o),
(385,832,c),
(315,864,o),
(263,908,o),
(225,961,c),
(189,1016,o),
(172,1083,o),
(172,1162,c),
(172,1244,o),
(192,1314,o),
(234,1372,c),
(277,1429,o),
(338,1474,o),
(417,1504,c),
(498,1535,o),
(594,1551,o),
(704,1551,c),
(833,1551,o),
(939,1533,o),
(1021,1497,c),
(1102,1460,o),
(1162,1410,o),
(1200,1347,c),
(1240,1285,o),
(1261,1212,o),
(1269,1129,c),
(1201,1129,l),
(1195,1202,o),
(1174,1266,o),
(1139,1321,c),
(1105,1373,o),
(1052,1416,o),
(982,1445,c),
(910,1476,o),
(817,1491,o),
(702,1491,c),
(606,1491,o),
(523,1478,o),
(454,1453,c),
(385,1428,o),
(332,1391,o),
(296,1343,c),
(258,1293,o),
(240,1233,o),
(240,1163,c),
(240,1095,o),
(256,1036,o),
(288,990,c),
(321,944,o),
(369,909,o),
(431,882,c),
(496,855,o),
(578,832,o),
(678,816,c),
(857,787,l),
(959,770,o),
(1042,746,o),
(1109,712,c),
(1176,679,o),
(1225,635,o),
(1257,583,c),
(1289,529,o),
(1306,466,o),
(1306,393,c),
(1306,294,o),
(1280,215,o),
(1230,152,c),
(1179,89,o),
(1111,44,o),
(1024,14,c),
(939,-15,o),
(840,-29,o),
(730,-29,c)
);
}
);
width = 1432;
},
{
layerId = m006;
shapes = (
{
closed = 1;
nodes = (
(950,-29,o),
(746,-9,o),
(583,32,c),
(421,71,o),
(298,131,o),
(213,209,c),
(128,287,o),
(78,386,o),
(64,503,c),
(908,503,l),
(914,468,o),
(930,439,o),
(952,418,c),
(976,395,o),
(1009,379,o),
(1052,370,c),
(1097,359,o),
(1152,355,o),
(1221,355,c),
(1278,355,o),
(1329,358,o),
(1368,365,c),
(1409,371,o),
(1438,380,o),
(1458,392,c),
(1478,405,o),
(1490,423,o),
(1490,441,c),
(1490,459,o),
(1482,472,o),
(1471,484,c),
(1459,497,o),
(1440,507,o),
(1412,514,c),
(1384,522,o),
(1348,528,o),
(1301,532,c),
(871,572,l),
(702,589,o),
(559,617,o),
(444,656,c),
(328,698,o),
(240,751,o),
(180,816,c),
(121,883,o),
(90,961,o),
(90,1052,c),
(90,1163,o),
(133,1256,o),
(217,1331,c),
(300,1405,o),
(425,1461,o),
(587,1499,c),
(751,1537,o),
(949,1556,o),
(1183,1556,c),
(1442,1556,o),
(1652,1533,o),
(1810,1488,c),
(1970,1442,o),
(2085,1381,o),
(2158,1307,c),
(2228,1231,o),
(2268,1144,o),
(2276,1043,c),
(1482,1043,l),
(1477,1079,o),
(1465,1106,o),
(1442,1126,c),
(1422,1148,o),
(1389,1163,o),
(1348,1172,c),
(1306,1181,o),
(1251,1186,o),
(1183,1186,c),
(1123,1186,o),
(1076,1183,o),
(1040,1178,c),
(1003,1172,o),
(976,1163,o),
(957,1151,c),
(940,1137,o),
(932,1123,o),
(932,1105,c),
(932,1086,o),
(938,1071,o),
(953,1058,c),
(969,1046,o),
(996,1036,o),
(1034,1027,c),
(1073,1020,o),
(1128,1013,o),
(1200,1006,c),
(1548,973,l),
(1738,957,o),
(1890,927,o),
(2008,885,c),
(2125,843,o),
(2211,790,o),
(2265,726,c),
(2320,662,o),
(2346,587,o),
(2346,500,c),
(2346,386,o),
(2301,289,o),
(2210,211,c),
(2119,132,o),
(1988,72,o),
(1814,32,c),
(1642,-9,o),
(1434,-29,o),
(1191,-29,c)
);
}
);
width = 2410;
}
);
note = uni0073;
unicode = 115;
},
{
glyphname = uni0074;
kernLeft = uni006D;
kernRight = uni0061;
lastChange = "2026-04-09 08:54:05 +0000";
layers = (
{
layerId = m01;
shapes = (
{
closed = 1;
nodes = (
(903,0,l),
(903,223,l),
(740,223,ls),
(669,223,o),
(613,281,o),
(613,350,cs),
(613,1333,l),
(934,1333,l),
(934,1536,l),
(613,1536,l),
(613,2048,l),
(357,1928,l),
(357,1536,l),
(102,1536,l),
(102,1333,l),
(357,1333,l),
(357,383,ls),
(357,171,o),
(529,0,o),
(740,0,cs)
);
}
);
width = 1048;
},
{
layerId = "F2C6FA2E-D08A-4B94-92D2-D7CA5820546A";
shapes = (
{
closed = 1;
nodes = (
(831,0,l),
(831,61,l),
(723,61,ls),
(569,61,o),
(426,201,o),
(426,381,cs),
(426,1483,l),
(834,1483,l),
(834,1536,l),
(426,1536,l),
(426,2048,l),
(361,2012,l),
(361,1536,l),
(136,1536,l),
(136,1483,l),
(361,1483,l),
(361,374,ls),
(361,162,o),
(513,0,o),
(724,0,cs)
);
}
);
width = 966;
},
{
layerId = "F8E60EAC-58E2-4CB8-A8B6-FD6FE89414CC";
shapes = (
{
closed = 1;
nodes = (
(1671,0,l),
(1671,403,l),
(1400,403,ls),
(1340,403,o),
(1311,443,o),
(1311,494,cs),
(1311,1132,l),
(1678,1132,l),
(1678,1536,l),
(1311,1536,l),
(1311,2047,l),
(352,1710,l),
(352,1536,l),
(83,1536,l),
(83,1132,l),
(352,1132,l),
(352,420,ls),
(352,253,o),
(476,0,o),
(770,0,cs)
);
}
);
width = 1767;
},
{
layerId = m004;
shapes = (
{
closed = 1;
nodes = (
(867,0,l),
(867,223,l),
(704,223,ls),
(633,223,o),
(577,281,o),
(577,350,cs),
(577,1333,l),
(898,1333,l),
(898,1536,l),
(577,1536,l),
(577,2048,l),
(321,1928,l),
(321,1536,l),
(66,1536,l),
(66,1333,l),
(321,1333,l),
(321,383,ls),
(321,171,o),
(493,0,o),
(704,0,cs)
);
}
);
width = 972;
},
{
layerId = m005;
shapes = (
{
closed = 1;
nodes = (
(783,0,l),
(783,61,l),
(675,61,ls),
(521,61,o),
(378,201,o),
(378,381,cs),
(378,1483,l),
(786,1483,l),
(786,1536,l),
(378,1536,l),
(378,2048,l),
(313,2012,l),
(313,1536,l),
(88,1536,l),
(88,1483,l),
(313,1483,l),
(313,374,ls),
(313,162,o),
(465,0,o),
(676,0,cs)
);
}
);
width = 872;
},
{
layerId = m006;
shapes = (
{
closed = 1;
nodes = (
(1642,0,l),
(1642,403,l),
(1371,403,ls),
(1311,403,o),
(1282,443,o),
(1282,494,cs),
(1282,1132,l),
(1649,1132,l),
(1649,1536,l),
(1282,1536,l),
(1282,2047,l),
(323,1710,l),
(323,1536,l),
(54,1536,l),
(54,1132,l),
(323,1132,l),
(323,420,ls),
(323,253,o),
(447,0,o),
(741,0,cs)
);
}
);
width = 1707;
}
);
note = uni0074;
unicode = 116;
},
{
glyphname = uni0075;
kernLeft = uni006D;
kernRight = uni0061;
lastChange = "2026-04-09 08:54:05 +0000";
layers = (
{
layerId = m01;
shapes = (
{
closed = 1;
nodes = (
(1017,0,o),
(1263,245,o),
(1263,548,c),
(1263,1536,l),
(1184,1536,l),
(1184,631,l),
(1184,403,o),
(1000,220,o),
(773,220,c),
(576,220,o),
(416,379,o),
(416,576,c),
(416,1536,l),
(166,1536,l),
(166,486,l),
(166,218,o),
(384,0,o),
(683,0,c)
);
},
{
closed = 1;
nodes = (
(1435,1536,l),
(1184,1536,l),
(1184,0,l),
(1435,0,l)
);
}
);
width = 1601;
},
{
layerId = "F2C6FA2E-D08A-4B94-92D2-D7CA5820546A";
shapes = (
{
closed = 1;
nodes = (
(1101,3,o),
(1359,268,o),
(1359,571,c),
(1359,1539,l),
(1295,1539,l),
(1295,509,l),
(1295,271,o),
(1059,66,o),
(775,66,c),
(521,66,o),
(304,275,o),
(304,520,c),
(304,1539,l),
(240,1539,l),
(240,509,l),
(240,221,o),
(478,3,o),
(777,3,c)
);
},
{
closed = 1;
nodes = (
(1360,1539,l),
(1295,1539,l),
(1295,0,l),
(1360,0,l)
);
}
);
width = 1600;
},
{
layerId = "F8E60EAC-58E2-4CB8-A8B6-FD6FE89414CC";
shapes = (
{
closed = 1;
nodes = (
(1307,-32,o),
(1608,177,o),
(1608,528,c),
(1608,1536,l),
(1529,1536,l),
(1529,694,l),
(1529,517,o),
(1475,399,o),
(1308,399,c),
(1137,399,o),
(1097,543,o),
(1097,703,c),
(1097,1536,l),
(132,1536,l),
(132,543,l),
(132,225,o),
(385,-32,o),
(868,-32,c)
);
},
{
closed = 1;
nodes = (
(2490,1536,l),
(1529,1536,l),
(1529,0,l),
(2490,0,l)
);
}
);
width = 2622;
},
{
layerId = m004;
shapes = (
{
closed = 1;
nodes = (
(959,0,o),
(1205,245,o),
(1205,548,c),
(1205,1536,l),
(1126,1536,l),
(1126,631,l),
(1126,403,o),
(942,220,o),
(715,220,c),
(518,220,o),
(358,379,o),
(358,576,c),
(358,1536,l),
(108,1536,l),
(108,486,l),
(108,218,o),
(326,0,o),
(625,0,c)
);
},
{
closed = 1;
nodes = (
(1377,1536,l),
(1126,1536,l),
(1126,0,l),
(1377,0,l)
);
}
);
width = 1485;
},
{
layerId = m005;
shapes = (
{
closed = 1;
nodes = (
(1017,3,o),
(1275,268,o),
(1275,571,c),
(1275,1539,l),
(1211,1539,l),
(1211,509,l),
(1211,271,o),
(975,66,o),
(691,66,c),
(437,66,o),
(220,275,o),
(220,520,c),
(220,1539,l),
(156,1539,l),
(156,509,l),
(156,221,o),
(394,3,o),
(693,3,c)
);
},
{
closed = 1;
nodes = (
(1276,1539,l),
(1211,1539,l),
(1211,0,l),
(1276,0,l)
);
}
);
width = 1432;
},
{
layerId = m006;
shapes = (
{
closed = 1;
nodes = (
(1261,-32,o),
(1562,177,o),
(1562,528,c),
(1562,1536,l),
(1483,1536,l),
(1483,694,l),
(1483,517,o),
(1429,399,o),
(1262,399,c),
(1091,399,o),
(1051,543,o),
(1051,703,c),
(1051,1536,l),
(86,1536,l),
(86,543,l),
(86,225,o),
(339,-32,o),
(822,-32,c)
);
},
{
closed = 1;
nodes = (
(2444,1536,l),
(1483,1536,l),
(1483,0,l),
(2444,0,l)
);
}
);
width = 2530;
}
);
note = uni0075;
unicode = 117;
},
{
glyphname = uni0076;
kernLeft = uni0076;
kernRight = uni0076;
lastChange = "2026-04-14 15:41:44 +0000";
layers = (
{
layerId = m01;
shapes = (
{
closed = 1;
nodes = (
(1307,1536,l),
(714,0,l),
(986,0,l),
(1579,1536,l)
);
},
{
closed = 1;
nodes = (
(106,1536,l),
(699,0,l),
(971,0,l),
(378,1536,l)
);
}
);
width = 1685;
},
{
layerId = "F2C6FA2E-D08A-4B94-92D2-D7CA5820546A";
shapes = (
{
closed = 1;
nodes = (
(1404,1536,l),
(812,0,l),
(880,0,l),
(1471,1536,l)
);
},
{
closed = 1;
nodes = (
(176,1536,l),
(767,0,l),
(836,0,l),
(243,1536,l)
);
}
);
width = 1647;
},
{
layerId = "F8E60EAC-58E2-4CB8-A8B6-FD6FE89414CC";
shapes = (
{
closed = 1;
nodes = (
(1713,1536,l),
(1092,0,l),
(2052,0,l),
(2673,1536,l)
);
},
{
closed = 1;
nodes = (
(70,1536,l),
(691,0,l),
(1651,0,l),
(1029,1536,l)
);
}
);
width = 2743;
},
{
layerId = m004;
shapes = (
{
closed = 1;
nodes = (
(1270,1536,l),
(677,0,l),
(949,0,l),
(1542,1536,l)
);
},
{
closed = 1;
nodes = (
(69,1536,l),
(662,0,l),
(934,0,l),
(341,1536,l)
);
}
);
width = 1611;
},
{
layerId = m005;
shapes = (
{
closed = 1;
nodes = (
(1342,1536,l),
(750,0,l),
(818,0,l),
(1409,1536,l)
);
},
{
closed = 1;
nodes = (
(114,1536,l),
(705,0,l),
(774,0,l),
(181,1536,l)
);
}
);
width = 1523;
},
{
layerId = m006;
shapes = (
{
closed = 1;
nodes = (
(1689,1536,l),
(1068,0,l),
(2028,0,l),
(2649,1536,l)
);
},
{
closed = 1;
nodes = (
(46,1536,l),
(667,0,l),
(1627,0,l),
(1005,1536,l)
);
}
);
width = 2695;
}
);
note = uni0076;
unicode = 118;
},
{
glyphname = uni0077;
kernLeft = uni0077;
kernRight = uni0077;
lastChange = "2026-04-14 12:52:43 +0000";
layers = (
{
layerId = m01;
shapes = (
{
closed = 1;
nodes = (
(116,1536,l),
(628,0,l),
(889,0,l),
(377,1536,l)
);
},
{
closed = 1;
nodes = (
(2202,1536,l),
(1690,0,l),
(1951,0,l),
(2463,1536,l)
);
},
{
closed = 1;
nodes = (
(1162,1536,l),
(1671,0,l),
(1933,0,l),
(1424,1536,l)
);
},
{
closed = 1;
nodes = (
(1156,1536,l),
(643,0,l),
(904,0,l),
(1417,1536,l)
);
}
);
width = 2579;
},
{
layerId = "F2C6FA2E-D08A-4B94-92D2-D7CA5820546A";
shapes = (
{
closed = 1;
nodes = (
(176,1536,l),
(688,0,l),
(755,0,l),
(243,1536,l)
);
},
{
closed = 1;
nodes = (
(2285,1536,l),
(1773,0,l),
(1840,0,l),
(2352,1536,l)
);
},
{
closed = 1;
nodes = (
(1232,1536,l),
(1728,0,l),
(1795,0,l),
(1299,1536,l)
);
},
{
closed = 1;
nodes = (
(1229,1536,l),
(733,0,l),
(800,0,l),
(1296,1536,l)
);
}
);
width = 2528;
},
{
layerId = "F8E60EAC-58E2-4CB8-A8B6-FD6FE89414CC";
shapes = (
{
closed = 1;
nodes = (
(76,1536,l),
(588,0,l),
(1548,0,l),
(1036,1536,l)
);
},
{
closed = 1;
nodes = (
(2772,1536,l),
(2260,0,l),
(3219,0,l),
(3731,1536,l)
);
},
{
closed = 1;
nodes = (
(1587,1536,l),
(2096,0,l),
(2733,0,l),
(2224,1536,l)
);
},
{
closed = 1;
nodes = (
(1583,1536,l),
(1070,0,l),
(1712,0,l),
(2225,1536,l)
);
}
);
width = 3807;
},
{
layerId = m004;
shapes = (
{
closed = 1;
nodes = (
(75,1536,l),
(587,0,l),
(848,0,l),
(336,1536,l)
);
},
{
closed = 1;
nodes = (
(2161,1536,l),
(1649,0,l),
(1910,0,l),
(2422,1536,l)
);
},
{
closed = 1;
nodes = (
(1121,1536,l),
(1630,0,l),
(1892,0,l),
(1383,1536,l)
);
},
{
closed = 1;
nodes = (
(1115,1536,l),
(602,0,l),
(863,0,l),
(1376,1536,l)
);
}
);
width = 2497;
},
{
layerId = m005;
shapes = (
{
closed = 1;
nodes = (
(114,1536,l),
(626,0,l),
(693,0,l),
(181,1536,l)
);
},
{
closed = 1;
nodes = (
(2223,1536,l),
(1711,0,l),
(1778,0,l),
(2290,1536,l)
);
},
{
closed = 1;
nodes = (
(1170,1536,l),
(1666,0,l),
(1733,0,l),
(1237,1536,l)
);
},
{
closed = 1;
nodes = (
(1167,1536,l),
(671,0,l),
(738,0,l),
(1234,1536,l)
);
}
);
width = 2404;
},
{
layerId = m006;
shapes = (
{
closed = 1;
nodes = (
(49,1536,l),
(561,0,l),
(1521,0,l),
(1009,1536,l)
);
},
{
closed = 1;
nodes = (
(2745,1536,l),
(2233,0,l),
(3192,0,l),
(3704,1536,l)
);
},
{
closed = 1;
nodes = (
(1560,1536,l),
(2069,0,l),
(2706,0,l),
(2197,1536,l)
);
},
{
closed = 1;
nodes = (
(1556,1536,l),
(1043,0,l),
(1685,0,l),
(2198,1536,l)
);
}
);
width = 3753;
}
);
note = uni0077;
unicode = 119;
},
{
glyphname = uni0078;
kernLeft = uni0078;
kernRight = uni0078;
lastChange = "2026-04-10 15:28:53 +0000";
layers = (
{
layerId = m01;
shapes = (
{
closed = 1;
nodes = (
(123,1536,l),
(1230,0,l),
(1538,0,l),
(431,1536,l)
);
},
{
closed = 1;
nodes = (
(1227,1536,l),
(118,0,l),
(426,0,l),
(1535,1536,l)
);
}
);
width = 1656;
},
{
layerId = "F2C6FA2E-D08A-4B94-92D2-D7CA5820546A";
shapes = (
{
closed = 1;
nodes = (
(188,1536,l),
(1276,0,l),
(1361,0,l),
(273,1536,l)
);
},
{
closed = 1;
nodes = (
(1276,1536,l),
(188,0,l),
(273,0,l),
(1361,1536,l)
);
}
);
width = 1549;
},
{
layerId = "F8E60EAC-58E2-4CB8-A8B6-FD6FE89414CC";
shapes = (
{
closed = 1;
nodes = (
(84,1536,l),
(1629,0,l),
(2589,0,l),
(1044,1536,l)
);
},
{
closed = 1;
nodes = (
(1624,1536,l),
(80,0,l),
(1041,0,l),
(2585,1536,l)
);
}
);
width = 2669;
},
{
layerId = m004;
shapes = (
{
closed = 1;
nodes = (
(82,1536,l),
(1189,0,l),
(1497,0,l),
(390,1536,l)
);
},
{
closed = 1;
nodes = (
(1186,1536,l),
(77,0,l),
(385,0,l),
(1494,1536,l)
);
}
);
width = 1574;
},
{
layerId = m005;
shapes = (
{
closed = 1;
nodes = (
(122,1536,l),
(1210,0,l),
(1295,0,l),
(207,1536,l)
);
},
{
closed = 1;
nodes = (
(1210,1536,l),
(122,0,l),
(207,0,l),
(1295,1536,l)
);
}
);
width = 1417;
},
{
layerId = m006;
shapes = (
{
closed = 1;
nodes = (
(56,1536,l),
(1601,0,l),
(2561,0,l),
(1016,1536,l)
);
},
{
closed = 1;
nodes = (
(1596,1536,l),
(52,0,l),
(1013,0,l),
(2557,1536,l)
);
}
);
width = 2613;
}
);
note = uni0078;
unicode = 120;
},
{
glyphname = uni0079;
kernLeft = uni0076;
kernRight = uni0076;
lastChange = "2026-04-10 15:30:08 +0000";
layers = (
{
layerId = m01;
shapes = (
{
closed = 1;
nodes = (
(1289,1536,l),
(466,-389,l),
(735,-389,l),
(1558,1536,l)
);
},
{
closed = 1;
nodes = (
(106,1536,l),
(713,89,l),
(856,382,l),
(376,1536,l)
);
}
);
width = 1664;
},
{
layerId = "F2C6FA2E-D08A-4B94-92D2-D7CA5820546A";
shapes = (
{
closed = 1;
nodes = (
(1326,1536,l),
(504,-390,l),
(578,-390,l),
(1400,1536,l)
);
},
{
closed = 1;
nodes = (
(176,1536,l),
(759,118,l),
(803,192,l),
(250,1536,l)
);
}
);
width = 1576;
},
{
layerId = "F8E60EAC-58E2-4CB8-A8B6-FD6FE89414CC";
shapes = (
{
closed = 1;
nodes = (
(1570,1537,l),
(732,-390,l),
(1621,-390,l),
(2459,1537,l)
);
},
{
closed = 1;
nodes = (
(70,1537,l),
(1085,-233,l),
(1519,457,l),
(959,1537,l)
);
}
);
width = 2529;
},
{
layerId = m004;
shapes = (
{
closed = 1;
nodes = (
(1252,1536,l),
(429,-389,l),
(698,-389,l),
(1521,1536,l)
);
},
{
closed = 1;
nodes = (
(69,1536,l),
(676,89,l),
(819,382,l),
(339,1536,l)
);
}
);
width = 1590;
},
{
layerId = m005;
shapes = (
{
closed = 1;
nodes = (
(1264,1536,l),
(442,-390,l),
(516,-390,l),
(1338,1536,l)
);
},
{
closed = 1;
nodes = (
(114,1536,l),
(697,118,l),
(741,192,l),
(188,1536,l)
);
}
);
width = 1452;
},
{
layerId = m006;
shapes = (
{
closed = 1;
nodes = (
(1546,1537,l),
(708,-390,l),
(1597,-390,l),
(2435,1537,l)
);
},
{
closed = 1;
nodes = (
(46,1537,l),
(1061,-233,l),
(1495,457,l),
(935,1537,l)
);
}
);
width = 2481;
}
);
note = uni0079;
unicode = 121;
},
{
glyphname = uni007A;
kernLeft = uni007A;
lastChange = "2026-04-09 08:54:05 +0000";
layers = (
{
layerId = m01;
shapes = (
{
closed = 1;
nodes = (
(160,1312,l),
(1312,1312,l),
(1312,1536,l),
(160,1536,l)
);
},
{
closed = 1;
nodes = (
(144,0,l),
(1327,0,l),
(1327,224,l),
(144,224,l)
);
},
{
closed = 1;
nodes = (
(1008,1312,l),
(144,224,l),
(448,224,l),
(1312,1312,l)
);
}
);
width = 1459;
},
{
layerId = "F2C6FA2E-D08A-4B94-92D2-D7CA5820546A";
shapes = (
{
closed = 1;
nodes = (
(228,1471,l),
(1316,1471,l),
(1316,1536,l),
(228,1536,l)
);
},
{
closed = 1;
nodes = (
(212,0,l),
(1332,0,l),
(1332,65,l),
(212,65,l)
);
},
{
closed = 1;
nodes = (
(1242,1471,l),
(212,65,l),
(285,65,l),
(1316,1471,l)
);
}
);
width = 1524;
},
{
layerId = "F8E60EAC-58E2-4CB8-A8B6-FD6FE89414CC";
shapes = (
{
closed = 1;
nodes = (
(140,976,l),
(1899,976,l),
(1899,1536,l),
(140,1536,l)
);
},
{
closed = 1;
nodes = (
(140,0,l),
(1899,0,l),
(1899,560,l),
(140,560,l)
);
},
{
closed = 1;
nodes = (
(915,976,l),
(140,560,l),
(1123,560,l),
(1899,976,l)
);
}
);
width = 2043;
},
{
layerId = m004;
shapes = (
{
closed = 1;
nodes = (
(110,1312,l),
(1262,1312,l),
(1262,1536,l),
(110,1536,l)
);
},
{
closed = 1;
nodes = (
(94,0,l),
(1277,0,l),
(1277,224,l),
(94,224,l)
);
},
{
closed = 1;
nodes = (
(958,1312,l),
(94,224,l),
(398,224,l),
(1262,1312,l)
);
}
);
width = 1363;
},
{
layerId = m005;
shapes = (
{
closed = 1;
nodes = (
(154,1471,l),
(1242,1471,l),
(1242,1536,l),
(154,1536,l)
);
},
{
closed = 1;
nodes = (
(138,0,l),
(1258,0,l),
(1258,65,l),
(138,65,l)
);
},
{
closed = 1;
nodes = (
(1168,1471,l),
(138,65,l),
(211,65,l),
(1242,1471,l)
);
}
);
width = 1383;
},
{
layerId = m006;
shapes = (
{
closed = 1;
nodes = (
(91,976,l),
(1850,976,l),
(1850,1536,l),
(91,1536,l)
);
},
{
closed = 1;
nodes = (
(91,0,l),
(1850,0,l),
(1850,560,l),
(91,560,l)
);
},
{
closed = 1;
nodes = (
(866,976,l),
(91,560,l),
(1074,560,l),
(1850,976,l)
);
}
);
width = 1944;
}
);
note = uni007A;
unicode = 122;
},
{
glyphname = uni0024;
kernLeft = uni0053;
kernRight = uni0053;
lastChange = "2026-04-09 08:54:05 +0000";
layers = (
{
layerId = m01;
shapes = (
{
closed = 1;
nodes = (
(1108,-23,o),
(1244,0,o),
(1357,48,c),
(1471,96,o),
(1558,164,o),
(1616,254,c),
(1676,343,o),
(1704,449,o),
(1704,567,c),
(1704,667,o),
(1684,754,o),
(1645,829,c),
(1602,903,o),
(1535,966,o),
(1443,1017,c),
(1351,1069,o),
(1230,1109,o),
(1078,1140,c),
(871,1182,l),
(757,1206,o),
(669,1233,o),
(606,1264,c),
(543,1297,o),
(500,1334,o),
(475,1377,c),
(449,1420,o),
(437,1475,o),
(437,1541,c),
(437,1604,o),
(454,1659,o),
(485,1706,c),
(518,1751,o),
(566,1788,o),
(633,1814,c),
(700,1841,o),
(784,1855,o),
(885,1855,c),
(1008,1855,o),
(1107,1838,o),
(1181,1808,c),
(1257,1776,o),
(1310,1732,o),
(1346,1676,c),
(1382,1620,o),
(1403,1549,o),
(1408,1463,c),
(1651,1463,l),
(1647,1579,o),
(1619,1685,o),
(1566,1776,c),
(1512,1869,o),
(1428,1941,o),
(1316,1993,c),
(1202,2047,o),
(1058,2073,o),
(883,2073,c),
(741,2073,o),
(617,2051,o),
(512,2007,c),
(409,1964,o),
(328,1901,o),
(271,1820,c),
(216,1739,o),
(187,1646,o),
(187,1539,c),
(187,1430,o),
(212,1336,o),
(259,1257,c),
(307,1181,o),
(376,1119,o),
(463,1071,c),
(550,1023,o),
(654,988,o),
(777,964,c),
(986,922,l),
(1107,899,o),
(1201,871,o),
(1269,838,c),
(1338,805,o),
(1386,767,o),
(1413,724,c),
(1441,681,o),
(1455,628,o),
(1455,563,c),
(1455,485,o),
(1437,420,o),
(1400,366,c),
(1362,311,o),
(1307,269,o),
(1232,239,c),
(1156,210,o),
(1062,195,o),
(949,195,c),
(829,195,o),
(728,211,o),
(643,241,c),
(560,272,o),
(495,320,o),
(448,387,c),
(403,453,o),
(377,542,o),
(373,653,c),
(125,653,l),
(129,502,o),
(164,375,o),
(232,274,c),
(299,173,o),
(394,97,o),
(515,49,c),
(639,0,o),
(783,-23,o),
(950,-23,c)
);
},
{
closed = 1;
nodes = (
(1025,-256,l),
(1025,2304,l),
(805,2304,l),
(805,-256,l)
);
}
);
width = 1829;
},
{
layerId = "F2C6FA2E-D08A-4B94-92D2-D7CA5820546A";
shapes = (
{
closed = 1;
nodes = (
(1127,-27,o),
(1259,-3,o),
(1368,42,c),
(1473,90,o),
(1554,154,o),
(1606,236,c),
(1658,320,o),
(1685,415,o),
(1685,523,c),
(1685,619,o),
(1667,702,o),
(1632,769,c),
(1595,838,o),
(1533,896,o),
(1446,944,c),
(1358,994,o),
(1236,1034,o),
(1083,1062,c),
(857,1105,l),
(728,1129,o),
(624,1161,o),
(544,1202,c),
(467,1242,o),
(411,1293,o),
(377,1353,c),
(343,1413,o),
(326,1487,o),
(326,1574,c),
(326,1658,o),
(347,1736,o),
(391,1801,c),
(436,1868,o),
(502,1920,o),
(592,1957,c),
(683,1995,o),
(793,2014,o),
(923,2014,c),
(1061,2014,o),
(1176,1995,o),
(1268,1955,c),
(1362,1917,o),
(1433,1862,o),
(1480,1791,c),
(1527,1719,o),
(1554,1634,o),
(1559,1536,c),
(1627,1536,l),
(1622,1640,o),
(1594,1734,o),
(1544,1814,c),
(1494,1894,o),
(1417,1957,o),
(1313,2004,c),
(1208,2051,o),
(1079,2075,o),
(923,2075,c),
(780,2075,o),
(659,2054,o),
(557,2011,c),
(457,1968,o),
(382,1909,o),
(331,1834,c),
(281,1760,o),
(256,1671,o),
(256,1574,c),
(256,1477,o),
(276,1393,o),
(314,1324,c),
(354,1254,o),
(414,1197,o),
(498,1151,c),
(582,1104,o),
(693,1068,o),
(828,1044,c),
(1060,1001,l),
(1201,974,o),
(1314,939,o),
(1395,896,c),
(1476,853,o),
(1533,801,o),
(1566,740,c),
(1600,680,o),
(1617,608,o),
(1617,523,c),
(1617,428,o),
(1593,344,o),
(1546,269,c),
(1499,195,o),
(1429,138,o),
(1332,96,c),
(1234,54,o),
(1114,34,o),
(971,34,c),
(817,34,o),
(690,53,o),
(588,92,c),
(485,130,o),
(407,188,o),
(354,265,c),
(299,345,o),
(267,444,o),
(257,564,c),
(189,564,l),
(199,431,o),
(233,322,o),
(292,234,c),
(350,147,o),
(436,82,o),
(548,38,c),
(662,-6,o),
(803,-27,o),
(973,-27,c)
);
},
{
closed = 1;
nodes = (
(985,-256,l),
(985,2304,l),
(921,2304,l),
(921,-256,l)
);
}
);
width = 1874;
},
{
layerId = "F8E60EAC-58E2-4CB8-A8B6-FD6FE89414CC";
shapes = (
{
closed = 1;
nodes = (
(1764,-23,o),
(2012,5,o),
(2216,63,c),
(2421,121,o),
(2575,202,o),
(2678,310,c),
(2781,415,o),
(2835,541,o),
(2835,686,c),
(2835,805,o),
(2796,906,o),
(2718,988,c),
(2641,1072,o),
(2523,1139,o),
(2364,1190,c),
(2205,1243,o),
(1999,1280,o),
(1751,1303,c),
(1419,1334,l),
(1346,1342,o),
(1287,1350,o),
(1241,1361,c),
(1195,1373,o),
(1122,1387,o),
(1099,1405,c),
(1078,1424,o),
(1067,1446,o),
(1067,1472,cs),
(1067,1499,o),
(1081,1523,o),
(1105,1542,c),
(1127,1560,o),
(1207,1575,o),
(1261,1585,c),
(1315,1596,o),
(1384,1601,o),
(1468,1601,c),
(1561,1601,o),
(1634,1593,o),
(1691,1579,c),
(1749,1564,o),
(1791,1543,o),
(1816,1516,c),
(1847,1487,o),
(1863,1453,o),
(1870,1410,c),
(2748,1410,l),
(2731,1562,o),
(2667,1687,o),
(2559,1785,c),
(2452,1882,o),
(2305,1955,o),
(2115,2002,c),
(1926,2047,o),
(1699,2070,o),
(1435,2070,c),
(1113,2070,o),
(859,2039,o),
(669,1977,c),
(481,1916,o),
(348,1836,o),
(276,1738,c),
(199,1641,o),
(161,1534,o),
(161,1415,c),
(161,1292,o),
(201,1186,o),
(279,1098,c),
(357,1010,o),
(464,940,o),
(603,889,c),
(742,837,o),
(905,804,o),
(1091,786,c),
(1451,752,l),
(1559,743,o),
(1645,730,o),
(1704,716,c),
(1767,702,o),
(1811,685,o),
(1835,664,c),
(1863,644,o),
(1877,620,o),
(1877,591,c),
(1877,558,o),
(1862,533,o),
(1834,513,c),
(1809,493,o),
(1766,477,o),
(1709,466,c),
(1651,457,o),
(1576,452,o),
(1487,452,c),
(1390,452,o),
(1309,458,o),
(1245,471,c),
(1182,484,o),
(1131,509,o),
(1094,541,c),
(1056,574,o),
(1033,622,o),
(1026,683,c),
(91,683,l),
(101,540,o),
(158,415,o),
(261,311,c),
(363,204,o),
(516,123,o),
(717,64,c),
(919,6,o),
(1169,-23,o),
(1468,-23,c)
);
},
{
closed = 1;
nodes = (
(1778,-256,l),
(1778,2304,l),
(1148,2304,l),
(1148,-256,l)
);
}
);
width = 2926;
},
{
layerId = m004;
shapes = (
{
closed = 1;
nodes = (
(1064,-23,o),
(1200,0,o),
(1313,48,c),
(1427,96,o),
(1514,164,o),
(1572,254,c),
(1632,343,o),
(1660,449,o),
(1660,567,c),
(1660,667,o),
(1640,754,o),
(1601,829,c),
(1558,903,o),
(1491,966,o),
(1399,1017,c),
(1307,1069,o),
(1186,1109,o),
(1034,1140,c),
(827,1182,l),
(713,1206,o),
(625,1233,o),
(562,1264,c),
(499,1297,o),
(456,1334,o),
(431,1377,c),
(405,1420,o),
(393,1475,o),
(393,1541,c),
(393,1604,o),
(410,1659,o),
(441,1706,c),
(474,1751,o),
(522,1788,o),
(589,1814,c),
(656,1841,o),
(740,1855,o),
(841,1855,c),
(964,1855,o),
(1063,1838,o),
(1137,1808,c),
(1213,1776,o),
(1266,1732,o),
(1302,1676,c),
(1338,1620,o),
(1359,1549,o),
(1364,1463,c),
(1607,1463,l),
(1603,1579,o),
(1575,1685,o),
(1522,1776,c),
(1468,1869,o),
(1384,1941,o),
(1272,1993,c),
(1158,2047,o),
(1014,2073,o),
(839,2073,c),
(697,2073,o),
(573,2051,o),
(468,2007,c),
(365,1964,o),
(284,1901,o),
(227,1820,c),
(172,1739,o),
(143,1646,o),
(143,1539,c),
(143,1430,o),
(168,1336,o),
(215,1257,c),
(263,1181,o),
(332,1119,o),
(419,1071,c),
(506,1023,o),
(610,988,o),
(733,964,c),
(942,922,l),
(1063,899,o),
(1157,871,o),
(1225,838,c),
(1294,805,o),
(1342,767,o),
(1369,724,c),
(1397,681,o),
(1411,628,o),
(1411,563,c),
(1411,485,o),
(1393,420,o),
(1356,366,c),
(1318,311,o),
(1263,269,o),
(1188,239,c),
(1112,210,o),
(1018,195,o),
(905,195,c),
(785,195,o),
(684,211,o),
(599,241,c),
(516,272,o),
(451,320,o),
(404,387,c),
(359,453,o),
(333,542,o),
(329,653,c),
(81,653,l),
(85,502,o),
(120,375,o),
(188,274,c),
(255,173,o),
(350,97,o),
(471,49,c),
(595,0,o),
(739,-23,o),
(906,-23,c)
);
},
{
closed = 1;
nodes = (
(981,-256,l),
(981,2304,l),
(761,2304,l),
(761,-256,l)
);
}
);
width = 1741;
},
{
layerId = m005;
shapes = (
{
closed = 1;
nodes = (
(1061,-27,o),
(1193,-3,o),
(1302,42,c),
(1407,90,o),
(1488,154,o),
(1540,236,c),
(1592,320,o),
(1619,415,o),
(1619,523,c),
(1619,619,o),
(1601,702,o),
(1566,769,c),
(1529,838,o),
(1467,896,o),
(1380,944,c),
(1292,994,o),
(1170,1034,o),
(1017,1062,c),
(791,1105,l),
(662,1129,o),
(558,1161,o),
(478,1202,c),
(401,1242,o),
(345,1293,o),
(311,1353,c),
(277,1413,o),
(260,1487,o),
(260,1574,c),
(260,1658,o),
(281,1736,o),
(325,1801,c),
(370,1868,o),
(436,1920,o),
(526,1957,c),
(617,1995,o),
(727,2014,o),
(857,2014,c),
(995,2014,o),
(1110,1995,o),
(1202,1955,c),
(1296,1917,o),
(1367,1862,o),
(1414,1791,c),
(1461,1719,o),
(1488,1634,o),
(1493,1536,c),
(1561,1536,l),
(1556,1640,o),
(1528,1734,o),
(1478,1814,c),
(1428,1894,o),
(1351,1957,o),
(1247,2004,c),
(1142,2051,o),
(1013,2075,o),
(857,2075,c),
(714,2075,o),
(593,2054,o),
(491,2011,c),
(391,1968,o),
(316,1909,o),
(265,1834,c),
(215,1760,o),
(190,1671,o),
(190,1574,c),
(190,1477,o),
(210,1393,o),
(248,1324,c),
(288,1254,o),
(348,1197,o),
(432,1151,c),
(516,1104,o),
(627,1068,o),
(762,1044,c),
(994,1001,l),
(1135,974,o),
(1248,939,o),
(1329,896,c),
(1410,853,o),
(1467,801,o),
(1500,740,c),
(1534,680,o),
(1551,608,o),
(1551,523,c),
(1551,428,o),
(1527,344,o),
(1480,269,c),
(1433,195,o),
(1363,138,o),
(1266,96,c),
(1168,54,o),
(1048,34,o),
(905,34,c),
(751,34,o),
(624,53,o),
(522,92,c),
(419,130,o),
(341,188,o),
(288,265,c),
(233,345,o),
(201,444,o),
(191,564,c),
(123,564,l),
(133,431,o),
(167,322,o),
(226,234,c),
(284,147,o),
(370,82,o),
(482,38,c),
(596,-6,o),
(737,-27,o),
(907,-27,c)
);
},
{
closed = 1;
nodes = (
(919,-256,l),
(919,2304,l),
(855,2304,l),
(855,-256,l)
);
}
);
width = 1742;
},
{
layerId = m006;
shapes = (
{
closed = 1;
nodes = (
(1732,-23,o),
(1980,5,o),
(2184,63,c),
(2389,121,o),
(2543,202,o),
(2646,310,c),
(2749,415,o),
(2803,541,o),
(2803,686,c),
(2803,805,o),
(2764,906,o),
(2686,988,c),
(2609,1072,o),
(2491,1139,o),
(2332,1190,c),
(2173,1243,o),
(1967,1280,o),
(1719,1303,c),
(1387,1334,l),
(1314,1342,o),
(1255,1350,o),
(1209,1361,c),
(1163,1373,o),
(1090,1387,o),
(1067,1405,c),
(1046,1424,o),
(1035,1446,o),
(1035,1472,cs),
(1035,1499,o),
(1049,1523,o),
(1073,1542,c),
(1095,1560,o),
(1175,1575,o),
(1229,1585,c),
(1283,1596,o),
(1352,1601,o),
(1436,1601,c),
(1529,1601,o),
(1602,1593,o),
(1659,1579,c),
(1717,1564,o),
(1759,1543,o),
(1784,1516,c),
(1815,1487,o),
(1831,1453,o),
(1838,1410,c),
(2716,1410,l),
(2699,1562,o),
(2635,1687,o),
(2527,1785,c),
(2420,1882,o),
(2273,1955,o),
(2083,2002,c),
(1894,2047,o),
(1667,2070,o),
(1403,2070,c),
(1081,2070,o),
(827,2039,o),
(637,1977,c),
(449,1916,o),
(316,1836,o),
(244,1738,c),
(167,1641,o),
(129,1534,o),
(129,1415,c),
(129,1292,o),
(169,1186,o),
(247,1098,c),
(325,1010,o),
(432,940,o),
(571,889,c),
(710,837,o),
(873,804,o),
(1059,786,c),
(1419,752,l),
(1527,743,o),
(1613,730,o),
(1672,716,c),
(1735,702,o),
(1779,685,o),
(1803,664,c),
(1831,644,o),
(1845,620,o),
(1845,591,c),
(1845,558,o),
(1830,533,o),
(1802,513,c),
(1777,493,o),
(1734,477,o),
(1677,466,c),
(1619,457,o),
(1544,452,o),
(1455,452,c),
(1358,452,o),
(1277,458,o),
(1213,471,c),
(1150,484,o),
(1099,509,o),
(1062,541,c),
(1024,574,o),
(1001,622,o),
(994,683,c),
(59,683,l),
(69,540,o),
(126,415,o),
(229,311,c),
(331,204,o),
(484,123,o),
(685,64,c),
(887,6,o),
(1137,-23,o),
(1436,-23,c)
);
},
{
closed = 1;
nodes = (
(1746,-256,l),
(1746,2304,l),
(1116,2304,l),
(1116,-256,l)
);
}
);
width = 2862;
}
);
note = uni0024;
unicode = 36;
},
{
glyphname = uni20AA;
lastChange = "2026-04-09 08:44:35 +0000";
layers = (
{
layerId = m01;
shapes = (
{
closed = 1;
nodes = (
(516,0,l),
(516,1316,l),
(1044,1316,ls),
(1170,1316,o),
(1284,1186,o),
(1284,1048,qs),
(1284,496,l),
(1532,496,l),
(1532,1048,ls),
(1532,1294,o),
(1290,1536,o),
(1044,1536,qs),
(268,1536,l),
(268,0,l)
);
},
{
closed = 1;
nodes = (
(1798,0,o),
(2040,242,o),
(2040,488,qs),
(2040,1520,l),
(1792,1520,l),
(1792,488,ls),
(1792,350,o),
(1678,220,o),
(1552,220,qs),
(1024,220,l),
(1024,1040,l),
(776,1040,l),
(776,0,l),
(1552,0,ls)
);
}
);
width = 2308;
},
{
layerId = "F2C6FA2E-D08A-4B94-92D2-D7CA5820546A";
shapes = (
{
closed = 1;
nodes = (
(424,0,l),
(424,1472,l),
(852,1472,ls),
(1034,1472,o),
(1196,1283,o),
(1196,1092,qs),
(1196,480,l),
(1260,480,l),
(1260,1072,ls),
(1260,1323,o),
(1047,1536,o),
(836,1536,qs),
(360,1536,l),
(360,0,l)
);
},
{
closed = 1;
nodes = (
(1463,0,o),
(1676,213,o),
(1676,464,qs),
(1676,1524,l),
(1612,1524,l),
(1612,444,ls),
(1612,253,o),
(1450,64,o),
(1268,64,qs),
(840,64,l),
(840,1056,l),
(776,1056,l),
(776,0,l),
(1252,0,ls)
);
}
);
width = 2040;
},
{
layerId = "F8E60EAC-58E2-4CB8-A8B6-FD6FE89414CC";
shapes = (
{
closed = 1;
nodes = (
(722,0,l),
(722,1124,l),
(1378,1124,ls),
(1467,1124,o),
(1521,1068,o),
(1522,1008,qs),
(1522,524,l),
(2050,524,l),
(2050,1008,ls),
(2049,1245,o),
(1771,1536,o),
(1466,1536,qs),
(194,1536,l),
(194,0,l)
);
},
{
closed = 1;
nodes = (
(2435,0,o),
(2713,291,o),
(2714,528,qs),
(2714,1516,l),
(2186,1516,l),
(2186,528,ls),
(2185,456,o),
(2116,412,o),
(2042,412,qs),
(1386,412,l),
(1386,1012,l),
(858,1012,l),
(858,0,l),
(2130,0,ls)
);
}
);
width = 2908;
},
{
layerId = m004;
shapes = (
{
closed = 1;
nodes = (
(422,0,l),
(422,1316,l),
(950,1316,ls),
(1076,1316,o),
(1190,1186,o),
(1190,1048,qs),
(1190,496,l),
(1438,496,l),
(1438,1048,ls),
(1438,1294,o),
(1196,1536,o),
(950,1536,qs),
(174,1536,l),
(174,0,l)
);
},
{
closed = 1;
nodes = (
(1704,0,o),
(1946,242,o),
(1946,488,qs),
(1946,1520,l),
(1698,1520,l),
(1698,488,ls),
(1698,350,o),
(1584,220,o),
(1458,220,qs),
(930,220,l),
(930,1040,l),
(682,1040,l),
(682,0,l),
(1458,0,ls)
);
}
);
width = 2120;
},
{
layerId = m005;
shapes = (
{
closed = 1;
nodes = (
(298,0,l),
(298,1472,l),
(726,1472,ls),
(908,1472,o),
(1070,1283,o),
(1070,1092,qs),
(1070,480,l),
(1134,480,l),
(1134,1072,ls),
(1134,1323,o),
(921,1536,o),
(710,1536,qs),
(234,1536,l),
(234,0,l)
);
},
{
closed = 1;
nodes = (
(1337,0,o),
(1550,213,o),
(1550,464,qs),
(1550,1524,l),
(1486,1524,l),
(1486,444,ls),
(1486,253,o),
(1324,64,o),
(1142,64,qs),
(714,64,l),
(714,1056,l),
(650,1056,l),
(650,0,l),
(1126,0,ls)
);
}
);
width = 1787;
},
{
layerId = m006;
shapes = (
{
closed = 1;
nodes = (
(654,0,l),
(654,1124,l),
(1310,1124,ls),
(1399,1124,o),
(1453,1068,o),
(1454,1008,qs),
(1454,524,l),
(1982,524,l),
(1982,1008,ls),
(1981,1245,o),
(1703,1536,o),
(1398,1536,qs),
(126,1536,l),
(126,0,l)
);
},
{
closed = 1;
nodes = (
(2367,0,o),
(2645,291,o),
(2646,528,qs),
(2646,1516,l),
(2118,1516,l),
(2118,528,ls),
(2117,456,o),
(2048,412,o),
(1974,412,qs),
(1318,412,l),
(1318,1012,l),
(790,1012,l),
(790,0,l),
(2062,0,ls)
);
}
);
width = 2772;
}
);
note = uni20AA;
unicode = 8362;
},
{
glyphname = uni0030;
kernLeft = uni0036;
kernRight = uni0030;
lastChange = "2026-04-09 08:54:05 +0000";
layers = (
{
layerId = m01;
shapes = (
{
closed = 1;
nodes = (
(509,197,o),
(386,535,o),
(386,1024,c),
(386,1514,o),
(497,1852,o),
(849,1852,c),
(1201,1852,o),
(1312,1514,o),
(1312,1024,c),
(1312,535,o),
(1189,197,o),
(849,197,c)
);
},
{
closed = 1;
nodes = (
(305,2076,o),
(134,1651,o),
(134,1024,c),
(134,397,o),
(320,-27,o),
(849,-27,c),
(1378,-27,o),
(1564,397,o),
(1564,1024,c),
(1564,1651,o),
(1393,2076,o),
(849,2076,c)
);
}
);
width = 1698;
},
{
layerId = "F2C6FA2E-D08A-4B94-92D2-D7CA5820546A";
shapes = (
{
closed = 1;
nodes = (
(418,38,o),
(259,443,o),
(259,1026,c),
(259,1607,o),
(404,2012,o),
(864,2012,c),
(1324,2012,o),
(1469,1607,o),
(1469,1026,c),
(1469,443,o),
(1310,38,o),
(864,38,c)
);
},
{
closed = 1;
nodes = (
(357,2076,o),
(196,1652,o),
(196,1026,c),
(196,398,o),
(372,-26,o),
(864,-26,c),
(1356,-26,o),
(1532,398,o),
(1532,1026,c),
(1532,1652,o),
(1371,2076,o),
(864,2076,c)
);
}
);
width = 1728;
},
{
layerId = "F8E60EAC-58E2-4CB8-A8B6-FD6FE89414CC";
shapes = (
{
closed = 1;
nodes = (
(1045,530,o),
(960,736,o),
(960,1028,c),
(960,1315,o),
(1036,1521,o),
(1282,1521,c),
(1524,1521,o),
(1602,1315,o),
(1602,1028,c),
(1602,736,o),
(1516,530,o),
(1282,530,c)
);
},
{
closed = 1;
nodes = (
(396,2076,o),
(118,1656,o),
(118,1028,c),
(118,396,o),
(423,-25,o),
(1265,-25,c),
(2107,-25,o),
(2412,396,o),
(2412,1028,c),
(2412,1656,o),
(2134,2076,o),
(1265,2076,c)
);
}
);
width = 2530;
},
{
layerId = m004;
shapes = (
{
closed = 1;
nodes = (
(462,197,o),
(339,535,o),
(339,1024,c),
(339,1514,o),
(450,1852,o),
(802,1852,c),
(1154,1852,o),
(1265,1514,o),
(1265,1024,c),
(1265,535,o),
(1142,197,o),
(802,197,c)
);
},
{
closed = 1;
nodes = (
(258,2076,o),
(87,1651,o),
(87,1024,c),
(87,397,o),
(273,-27,o),
(802,-27,c),
(1331,-27,o),
(1517,397,o),
(1517,1024,c),
(1517,1651,o),
(1346,2076,o),
(802,2076,c)
);
}
);
width = 1604;
},
{
layerId = m005;
shapes = (
{
closed = 1;
nodes = (
(349,38,o),
(190,443,o),
(190,1026,c),
(190,1607,o),
(335,2012,o),
(795,2012,c),
(1255,2012,o),
(1400,1607,o),
(1400,1026,c),
(1400,443,o),
(1241,38,o),
(795,38,c)
);
},
{
closed = 1;
nodes = (
(288,2076,o),
(127,1652,o),
(127,1026,c),
(127,398,o),
(303,-26,o),
(795,-26,c),
(1287,-26,o),
(1463,398,o),
(1463,1026,c),
(1463,1652,o),
(1302,2076,o),
(795,2076,c)
);
}
);
width = 1590;
},
{
layerId = m006;
shapes = (
{
closed = 1;
nodes = (
(1004,530,o),
(919,736,o),
(919,1028,c),
(919,1315,o),
(995,1521,o),
(1241,1521,c),
(1483,1521,o),
(1561,1315,o),
(1561,1028,c),
(1561,736,o),
(1475,530,o),
(1241,530,c)
);
},
{
closed = 1;
nodes = (
(355,2076,o),
(77,1656,o),
(77,1028,c),
(77,396,o),
(382,-25,o),
(1224,-25,c),
(2066,-25,o),
(2371,396,o),
(2371,1028,c),
(2371,1656,o),
(2093,2076,o),
(1224,2076,c)
);
}
);
width = 2448;
}
);
note = uni0030;
unicode = 48;
},
{
glyphname = uni0031;
kernLeft = uni0031;
kernRight = uni0031;
lastChange = "2026-04-09 08:54:05 +0000";
layers = (
{
layerId = m01;
shapes = (
{
closed = 1;
nodes = (
(573,0,l),
(829,0,l),
(829,2048,l),
(643,2048,l),
(643,1840,o),
(515,1629,o),
(132,1629,c),
(132,1425,l),
(573,1425,l)
);
}
);
width = 961;
},
{
layerId = "F2C6FA2E-D08A-4B94-92D2-D7CA5820546A";
shapes = (
{
closed = 1;
nodes = (
(577,0,l),
(641,0,l),
(641,2048,l),
(587,2048,l),
(587,1920,o),
(522,1839,o),
(333,1839,c),
(333,1779,l),
(577,1779,l)
);
}
);
width = 855;
},
{
layerId = "F8E60EAC-58E2-4CB8-A8B6-FD6FE89414CC";
shapes = (
{
closed = 1;
nodes = (
(557,0,l),
(1367,0,l),
(1367,2048,l),
(762,2048,l),
(660,1741,o),
(428,1638,o),
(118,1638,c),
(118,1098,l),
(557,1098,l)
);
}
);
width = 1521;
},
{
layerId = m004;
shapes = (
{
closed = 1;
nodes = (
(527,0,l),
(783,0,l),
(783,2048,l),
(597,2048,l),
(597,1840,o),
(469,1629,o),
(86,1629,c),
(86,1425,l),
(527,1425,l)
);
}
);
width = 869;
},
{
layerId = m005;
shapes = (
{
closed = 1;
nodes = (
(460,0,l),
(524,0,l),
(524,2048,l),
(470,2048,l),
(470,1920,o),
(405,1839,o),
(216,1839,c),
(216,1779,l),
(460,1779,l)
);
}
);
width = 663;
},
{
layerId = m006;
shapes = (
{
closed = 1;
nodes = (
(516,0,l),
(1326,0,l),
(1326,2048,l),
(721,2048,l),
(619,1741,o),
(387,1638,o),
(77,1638,c),
(77,1098,l),
(516,1098,l)
);
}
);
width = 1426;
}
);
note = uni0031;
unicode = 49;
},
{
glyphname = uni0032;
kernLeft = uni0032;
kernRight = uni0032;
lastChange = "2026-04-09 08:54:05 +0000";
layers = (
{
layerId = m01;
shapes = (
{
closed = 1;
nodes = (
(419,224,l),
(419,314,l),
(419,460,o),
(496,594,o),
(621,670,c),
(818,786,o),
(1016,903,o),
(1213,1019,c),
(1388,1124,o),
(1495,1311,o),
(1495,1516,c),
(1495,1823,o),
(1257,2073,o),
(826,2073,c),
(393,2073,o),
(156,1823,o),
(156,1516,c),
(156,1419,l),
(411,1419,l),
(411,1512,l),
(411,1693,o),
(563,1850,o),
(826,1850,c),
(1086,1850,o),
(1237,1696,o),
(1240,1516,c),
(1240,1402,o),
(1179,1297,o),
(1082,1239,c),
(885,1122,o),
(689,1006,o),
(492,889,c),
(288,769,o),
(163,550,o),
(163,314,c),
(163,0,l),
(1526,0,l),
(1526,224,l)
);
}
);
width = 1676;
},
{
layerId = "F2C6FA2E-D08A-4B94-92D2-D7CA5820546A";
shapes = (
{
closed = 1;
nodes = (
(351,64,l),
(351,187,l),
(351,445,o),
(490,682,o),
(713,809,c),
(881,905,o),
(1048,1002,o),
(1216,1098,c),
(1371,1186,o),
(1468,1351,o),
(1468,1530,c),
(1460,1831,o),
(1239,2072,o),
(846,2072,c),
(452,2072,o),
(232,1831,o),
(224,1530,c),
(224,1418,l),
(288,1418,l),
(288,1530,l),
(299,1790,o),
(503,2008,o),
(846,2008,c),
(1189,2008,o),
(1392,1790,o),
(1403,1530,c),
(1403,1374,o),
(1319,1230,o),
(1185,1152,c),
(1017,1056,o),
(849,961,o),
(681,865,c),
(438,725,o),
(288,466,o),
(288,187,c),
(288,0,l),
(1515,0,l),
(1515,64,l)
);
}
);
width = 1734;
},
{
layerId = "F8E60EAC-58E2-4CB8-A8B6-FD6FE89414CC";
shapes = (
{
closed = 1;
nodes = (
(939,565,l),
(928,565,l),
(923,610,o),
(978,712,o),
(1280,769,c),
(1438,793,o),
(1794,851,o),
(1923,893,c),
(2349,1034,o),
(2393,1268,o),
(2393,1473,c),
(2393,1851,o),
(2022,2093,o),
(1231,2073,c),
(404,2073,o),
(104,1750,o),
(104,1366,c),
(104,1311,l),
(918,1311,l),
(918,1317,l),
(918,1356,o),
(938,1533,o),
(1231,1533,cs),
(1381,1533,o),
(1573,1522,o),
(1578,1392,c),
(1578,1272,o),
(1220,1266,o),
(1123,1251,c),
(864,1225,o),
(651,1191,o),
(471,1081,c),
(148,887,o),
(107,550,o),
(107,314,c),
(107,0,l),
(2417,0,l),
(2417,565,l)
);
}
);
width = 2529;
},
{
layerId = m004;
shapes = (
{
closed = 1;
nodes = (
(364,224,l),
(364,314,l),
(364,460,o),
(441,594,o),
(566,670,c),
(763,786,o),
(961,903,o),
(1158,1019,c),
(1333,1124,o),
(1440,1311,o),
(1440,1516,c),
(1440,1823,o),
(1202,2073,o),
(771,2073,c),
(338,2073,o),
(101,1823,o),
(101,1516,c),
(101,1419,l),
(356,1419,l),
(356,1512,l),
(356,1693,o),
(508,1850,o),
(771,1850,c),
(1031,1850,o),
(1182,1696,o),
(1185,1516,c),
(1185,1402,o),
(1124,1297,o),
(1027,1239,c),
(830,1122,o),
(634,1006,o),
(437,889,c),
(233,769,o),
(108,550,o),
(108,314,c),
(108,0,l),
(1471,0,l),
(1471,224,l)
);
}
);
width = 1569;
},
{
layerId = m005;
shapes = (
{
closed = 1;
nodes = (
(273,64,l),
(273,187,l),
(273,445,o),
(412,682,o),
(635,809,c),
(803,905,o),
(970,1002,o),
(1138,1098,c),
(1293,1186,o),
(1390,1351,o),
(1390,1530,c),
(1382,1831,o),
(1161,2072,o),
(768,2072,c),
(374,2072,o),
(154,1831,o),
(146,1530,c),
(146,1418,l),
(210,1418,l),
(210,1530,l),
(221,1790,o),
(425,2008,o),
(768,2008,c),
(1111,2008,o),
(1314,1790,o),
(1325,1530,c),
(1325,1374,o),
(1241,1230,o),
(1107,1152,c),
(939,1056,o),
(771,961,o),
(603,865,c),
(360,725,o),
(210,466,o),
(210,187,c),
(210,0,l),
(1437,0,l),
(1437,64,l)
);
}
);
width = 1579;
},
{
layerId = m006;
shapes = (
{
closed = 1;
nodes = (
(903,565,l),
(892,565,l),
(887,610,o),
(942,712,o),
(1244,769,c),
(1402,793,o),
(1758,851,o),
(1887,893,c),
(2313,1034,o),
(2357,1268,o),
(2357,1473,c),
(2357,1851,o),
(1986,2093,o),
(1195,2073,c),
(368,2073,o),
(68,1750,o),
(68,1366,c),
(68,1311,l),
(882,1311,l),
(882,1317,l),
(882,1356,o),
(902,1533,o),
(1195,1533,cs),
(1345,1533,o),
(1537,1522,o),
(1542,1392,c),
(1542,1272,o),
(1184,1266,o),
(1087,1251,c),
(828,1225,o),
(615,1191,o),
(435,1081,c),
(112,887,o),
(71,550,o),
(71,314,c),
(71,0,l),
(2381,0,l),
(2381,565,l)
);
}
);
width = 2454;
}
);
note = uni0032;
unicode = 50;
},
{
glyphname = uni0033;
kernLeft = uni0033;
kernRight = uni0038;
lastChange = "2026-04-09 08:54:05 +0000";
layers = (
{
layerId = m01;
shapes = (
{
closed = 1;
nodes = (
(1429,1155,o),
(1527,1326,o),
(1527,1522,c),
(1527,1829,o),
(1288,2075,o),
(855,2075,c),
(423,2075,o),
(184,1829,o),
(184,1522,c),
(184,1451,l),
(435,1451,l),
(435,1494,l),
(435,1688,o),
(589,1854,o),
(855,1854,c),
(1119,1854,o),
(1275,1688,o),
(1275,1494,c),
(1275,1301,o),
(1147,1157,o),
(855,1157,c),
(714,1157,l),
(714,1127,l),
(714,969,l),
(714,929,l),
(870,929,l),
(1182,929,o),
(1320,781,o),
(1320,579,c),
(1320,378,o),
(1157,204,o),
(870,204,c),
(586,204,o),
(423,378,o),
(423,579,c),
(423,625,l),
(154,625,l),
(154,550,l),
(154,231,o),
(408,-27,o),
(873,-27,c),
(1335,-27,o),
(1589,231,o),
(1589,550,c),
(1589,768,o),
(1471,958,o),
(1247,1057,c)
);
}
);
width = 1732;
},
{
layerId = "F2C6FA2E-D08A-4B94-92D2-D7CA5820546A";
shapes = (
{
closed = 1;
nodes = (
(1366,1141,o),
(1497,1330,o),
(1497,1552,c),
(1497,1839,o),
(1276,2073,o),
(875,2073,c),
(472,2073,o),
(250,1839,o),
(250,1552,c),
(250,1450,l),
(312,1450,l),
(312,1552,l),
(312,1797,o),
(520,2007,o),
(878,2007,c),
(1233,2007,o),
(1433,1797,o),
(1433,1552,c),
(1433,1306,o),
(1264,1093,o),
(875,1093,c),
(755,1093,l),
(755,1078,l),
(755,1047,l),
(755,1030,l),
(890,1030,l),
(1274,1030,o),
(1497,797,o),
(1497,534,c),
(1497,271,o),
(1309,37,o),
(890,37,c),
(470,37,o),
(282,271,o),
(282,534,c),
(282,605,l),
(218,605,l),
(218,534,l),
(218,223,o),
(456,-27,o),
(890,-27,c),
(1323,-27,o),
(1561,223,o),
(1561,534,c),
(1561,782,o),
(1407,992,o),
(1123,1066,c)
);
}
);
width = 1779;
},
{
layerId = "F8E60EAC-58E2-4CB8-A8B6-FD6FE89414CC";
shapes = (
{
closed = 1;
nodes = (
(2230,1163,o),
(2319,1328,o),
(2319,1521,c),
(2319,1829,o),
(2086,2075,o),
(1214,2075,c),
(341,2075,o),
(108,1829,o),
(108,1521,c),
(108,1315,l),
(896,1315,l),
(896,1391,l),
(896,1485,o),
(1008,1571,o),
(1210,1571,c),
(1406,1571,o),
(1532,1503,o),
(1532,1409,c),
(1532,1315,o),
(1423,1252,o),
(1210,1252,c),
(999,1252,l),
(999,1145,l),
(999,971,l),
(999,859,l),
(1241,859,l),
(1473,859,o),
(1584,787,o),
(1584,679,c),
(1584,573,o),
(1456,492,o),
(1241,492,c),
(1025,492,o),
(906,590,o),
(906,697,c),
(906,778,l),
(108,778,l),
(108,560,l),
(108,236,o),
(351,-27,o),
(1245,-27,c),
(2139,-27,o),
(2382,236,o),
(2382,560,c),
(2382,773,o),
(2279,962,o),
(1943,1060,c)
);
}
);
width = 2504;
},
{
layerId = m004;
shapes = (
{
closed = 1;
nodes = (
(1375,1155,o),
(1473,1326,o),
(1473,1522,c),
(1473,1829,o),
(1234,2075,o),
(801,2075,c),
(369,2075,o),
(130,1829,o),
(130,1522,c),
(130,1451,l),
(381,1451,l),
(381,1494,l),
(381,1688,o),
(535,1854,o),
(801,1854,c),
(1065,1854,o),
(1221,1688,o),
(1221,1494,c),
(1221,1301,o),
(1093,1157,o),
(801,1157,c),
(660,1157,l),
(660,1127,l),
(660,969,l),
(660,929,l),
(816,929,l),
(1128,929,o),
(1266,781,o),
(1266,579,c),
(1266,378,o),
(1103,204,o),
(816,204,c),
(532,204,o),
(369,378,o),
(369,579,c),
(369,625,l),
(100,625,l),
(100,550,l),
(100,231,o),
(354,-27,o),
(819,-27,c),
(1281,-27,o),
(1535,231,o),
(1535,550,c),
(1535,768,o),
(1417,958,o),
(1193,1057,c)
);
}
);
width = 1628;
},
{
layerId = m005;
shapes = (
{
closed = 1;
nodes = (
(1290,1141,o),
(1421,1330,o),
(1421,1552,c),
(1421,1839,o),
(1200,2073,o),
(799,2073,c),
(396,2073,o),
(174,1839,o),
(174,1552,c),
(174,1450,l),
(236,1450,l),
(236,1552,l),
(236,1797,o),
(444,2007,o),
(802,2007,c),
(1157,2007,o),
(1357,1797,o),
(1357,1552,c),
(1357,1306,o),
(1188,1093,o),
(799,1093,c),
(679,1093,l),
(679,1078,l),
(679,1047,l),
(679,1030,l),
(814,1030,l),
(1198,1030,o),
(1421,797,o),
(1421,534,c),
(1421,271,o),
(1233,37,o),
(814,37,c),
(394,37,o),
(206,271,o),
(206,534,c),
(206,605,l),
(142,605,l),
(142,534,l),
(142,223,o),
(380,-27,o),
(814,-27,c),
(1247,-27,o),
(1485,223,o),
(1485,534,c),
(1485,782,o),
(1331,992,o),
(1047,1066,c)
);
}
);
width = 1627;
},
{
layerId = m006;
shapes = (
{
closed = 1;
nodes = (
(2192,1163,o),
(2281,1328,o),
(2281,1521,c),
(2281,1829,o),
(2048,2075,o),
(1176,2075,c),
(303,2075,o),
(70,1829,o),
(70,1521,c),
(70,1315,l),
(858,1315,l),
(858,1391,l),
(858,1485,o),
(970,1571,o),
(1172,1571,c),
(1368,1571,o),
(1494,1503,o),
(1494,1409,c),
(1494,1315,o),
(1385,1252,o),
(1172,1252,c),
(961,1252,l),
(961,1145,l),
(961,971,l),
(961,859,l),
(1203,859,l),
(1435,859,o),
(1546,787,o),
(1546,679,c),
(1546,573,o),
(1418,492,o),
(1203,492,c),
(987,492,o),
(868,590,o),
(868,697,c),
(868,778,l),
(70,778,l),
(70,560,l),
(70,236,o),
(313,-27,o),
(1207,-27,c),
(2101,-27,o),
(2344,236,o),
(2344,560,c),
(2344,773,o),
(2241,962,o),
(1905,1060,c)
);
}
);
width = 2423;
}
);
note = uni0033;
unicode = 51;
},
{
glyphname = uni0034;
kernLeft = uni0034;
kernRight = uni0034;
lastChange = "2026-04-10 15:41:33 +0000";
layers = (
{
layerId = m01;
shapes = (
{
closed = 1;
nodes = (
(1138,0,l),
(1395,0,l),
(1395,2048,l),
(1138,2048,l)
);
},
{
closed = 1;
nodes = (
(132,495,l),
(1685,495,l),
(1685,737,l),
(132,737,l)
);
},
{
closed = 1;
nodes = (
(1138,2048,l),
(132,737,l),
(313,582,l),
(1334,1906,l)
);
}
);
width = 1817;
},
{
layerId = "F2C6FA2E-D08A-4B94-92D2-D7CA5820546A";
shapes = (
{
closed = 1;
nodes = (
(1270,0,l),
(1334,0,l),
(1334,2048,l),
(1270,2048,l)
);
},
{
closed = 1;
nodes = (
(198,544,l),
(1751,544,l),
(1751,608,l),
(198,608,l)
);
},
{
closed = 1;
nodes = (
(1270,2048,l),
(198,608,l),
(254,567,l),
(1327,2007,l)
);
}
);
width = 1949;
},
{
layerId = "F8E60EAC-58E2-4CB8-A8B6-FD6FE89414CC";
shapes = (
{
closed = 1;
nodes = (
(1491,0,l),
(2290,0,l),
(2290,2048,l),
(1491,2048,l)
);
},
{
closed = 1;
nodes = (
(114,224,l),
(2562,224,l),
(2562,737,l),
(114,737,l)
);
},
{
closed = 1;
nodes = (
(1491,2048,l),
(114,737,l),
(452,364,l),
(1847,1675,l)
);
}
);
width = 2666;
},
{
layerId = m004;
shapes = (
{
closed = 1;
nodes = (
(1092,0,l),
(1349,0,l),
(1349,2048,l),
(1092,2048,l)
);
},
{
closed = 1;
nodes = (
(86,495,l),
(1639,495,l),
(1639,737,l),
(86,737,l)
);
},
{
closed = 1;
nodes = (
(1092,2048,l),
(86,737,l),
(267,582,l),
(1288,1906,l)
);
}
);
width = 1725;
},
{
layerId = m005;
shapes = (
{
closed = 1;
nodes = (
(1201,0,l),
(1265,0,l),
(1265,2048,l),
(1201,2048,l)
);
},
{
closed = 1;
nodes = (
(129,544,l),
(1682,544,l),
(1682,608,l),
(129,608,l)
);
},
{
closed = 1;
nodes = (
(1201,2048,l),
(129,608,l),
(185,567,l),
(1258,2007,l)
);
}
);
width = 1811;
},
{
layerId = m006;
shapes = (
{
closed = 1;
nodes = (
(1451,0,l),
(2250,0,l),
(2250,2048,l),
(1451,2048,l)
);
},
{
closed = 1;
nodes = (
(74,224,l),
(2522,224,l),
(2522,737,l),
(74,737,l)
);
},
{
closed = 1;
nodes = (
(1451,2048,l),
(74,737,l),
(412,364,l),
(1807,1675,l)
);
}
);
width = 2590;
}
);
note = uni0034;
unicode = 52;
},
{
glyphname = uni0035;
kernLeft = uni0035;
kernRight = uni0035;
lastChange = "2026-04-09 08:54:05 +0000";
layers = (
{
layerId = m01;
shapes = (
{
closed = 1;
nodes = (
(390,1809,l),
(1477,1809,l),
(1477,2048,l),
(390,2048,l)
);
},
{
closed = 1;
nodes = (
(311,2048,l),
(200,929,l),
(454,929,l),
(566,2048,l)
);
},
{
closed = 1;
nodes = (
(1352,-28,o),
(1604,305,o),
(1604,715,c),
(1604,1125,o),
(1352,1458,o),
(878,1458,c),
(492,1458,o),
(283,1235,o),
(209,929,c),
(481,929,l),
(551,1105,o),
(670,1233,o),
(881,1233,c),
(1179,1233,o),
(1349,981,o),
(1349,698,c),
(1349,415,o),
(1206,195,o),
(881,195,c),
(592,195,o),
(443,367,o),
(413,603,c),
(158,603,l),
(200,245,o),
(448,-28,o),
(878,-28,c)
);
}
);
width = 1746;
},
{
layerId = "F2C6FA2E-D08A-4B94-92D2-D7CA5820546A";
shapes = (
{
closed = 1;
nodes = (
(355,1983,l),
(1424,1983,l),
(1424,2048,l),
(355,2048,l)
);
},
{
closed = 1;
nodes = (
(340,2048,l),
(226,930,l),
(291,930,l),
(404,2048,l)
);
},
{
closed = 1;
nodes = (
(1317,-28,o),
(1552,305,o),
(1552,715,c),
(1552,1126,o),
(1317,1457,o),
(878,1457,c),
(520,1457,o),
(296,1235,o),
(228,930,c),
(301,930,l),
(377,1193,o),
(581,1392,o),
(880,1392,c),
(1267,1392,o),
(1489,1077,o),
(1489,691,c),
(1489,368,o),
(1303,37,o),
(880,37,c),
(502,37,o),
(309,316,o),
(275,595,c),
(212,595,l),
(254,243,o),
(483,-28,o),
(878,-28,c)
);
}
);
width = 1758;
},
{
layerId = "F8E60EAC-58E2-4CB8-A8B6-FD6FE89414CC";
shapes = (
{
closed = 1;
nodes = (
(327,1537,l),
(2151,1537,l),
(2151,2048,l),
(327,2048,l)
);
},
{
closed = 1;
nodes = (
(247,2048,l),
(128,825,l),
(937,825,l),
(1048,2048,l)
);
},
{
closed = 1;
nodes = (
(1969,-29,o),
(2355,305,o),
(2355,714,c),
(2355,1123,o),
(2129,1457,o),
(1399,1457,c),
(737,1457,o),
(194,1185,o),
(132,825,c),
(972,825,l),
(1021,896,o),
(1119,945,o),
(1248,945,c),
(1444,945,o),
(1559,834,o),
(1559,706,c),
(1559,581,o),
(1462,483,o),
(1248,483,c),
(1101,483,o),
(1013,527,o),
(968,594,c),
(132,594,l),
(203,244,o),
(581,-29,o),
(1239,-29,c)
);
}
);
width = 2463;
},
{
layerId = m004;
shapes = (
{
closed = 1;
nodes = (
(335,1809,l),
(1422,1809,l),
(1422,2048,l),
(335,2048,l)
);
},
{
closed = 1;
nodes = (
(256,2048,l),
(145,929,l),
(399,929,l),
(511,2048,l)
);
},
{
closed = 1;
nodes = (
(1297,-28,o),
(1549,305,o),
(1549,715,c),
(1549,1125,o),
(1297,1458,o),
(823,1458,c),
(437,1458,o),
(228,1235,o),
(154,929,c),
(426,929,l),
(496,1105,o),
(615,1233,o),
(826,1233,c),
(1124,1233,o),
(1294,981,o),
(1294,698,c),
(1294,415,o),
(1151,195,o),
(826,195,c),
(537,195,o),
(388,367,o),
(358,603,c),
(103,603,l),
(145,245,o),
(393,-28,o),
(823,-28,c)
);
}
);
width = 1641;
},
{
layerId = m005;
shapes = (
{
closed = 1;
nodes = (
(281,1983,l),
(1350,1983,l),
(1350,2048,l),
(281,2048,l)
);
},
{
closed = 1;
nodes = (
(266,2048,l),
(152,930,l),
(217,930,l),
(330,2048,l)
);
},
{
closed = 1;
nodes = (
(1243,-28,o),
(1478,305,o),
(1478,715,c),
(1478,1126,o),
(1243,1457,o),
(804,1457,c),
(446,1457,o),
(222,1235,o),
(154,930,c),
(227,930,l),
(303,1193,o),
(507,1392,o),
(806,1392,c),
(1193,1392,o),
(1415,1077,o),
(1415,691,c),
(1415,368,o),
(1229,37,o),
(806,37,c),
(428,37,o),
(235,316,o),
(201,595,c),
(138,595,l),
(180,243,o),
(409,-28,o),
(804,-28,c)
);
}
);
width = 1612;
},
{
layerId = m006;
shapes = (
{
closed = 1;
nodes = (
(282,1537,l),
(2106,1537,l),
(2106,2048,l),
(282,2048,l)
);
},
{
closed = 1;
nodes = (
(202,2048,l),
(83,825,l),
(892,825,l),
(1003,2048,l)
);
},
{
closed = 1;
nodes = (
(1924,-29,o),
(2310,305,o),
(2310,714,c),
(2310,1123,o),
(2084,1457,o),
(1354,1457,c),
(692,1457,o),
(149,1185,o),
(87,825,c),
(927,825,l),
(976,896,o),
(1074,945,o),
(1203,945,c),
(1399,945,o),
(1514,834,o),
(1514,706,c),
(1514,581,o),
(1417,483,o),
(1203,483,c),
(1056,483,o),
(968,527,o),
(923,594,c),
(87,594,l),
(158,244,o),
(536,-29,o),
(1194,-29,c)
);
}
);
width = 2380;
}
);
note = uni0035;
unicode = 53;
},
{
glyphname = uni0036;
kernLeft = uni0036;
kernRight = uni0030;
lastChange = "2026-04-09 08:54:05 +0000";
layers = (
{
layerId = m01;
shapes = (
{
closed = 1;
nodes = (
(573,196,o),
(443,392,o),
(443,643,c),
(443,895,o),
(598,1119,o),
(865,1119,c),
(1132,1119,o),
(1287,895,o),
(1287,643,c),
(1287,392,o),
(1158,196,o),
(865,196,c)
);
},
{
closed = 1;
nodes = (
(605,1343,o),
(467,1223,o),
(399,1114,c),
(400,1152,o),
(404,1187,o),
(407,1223,c),
(446,1578,o),
(573,1854,o),
(857,1854,c),
(1065,1854,o),
(1190,1734,o),
(1256,1535,c),
(1521,1535,l),
(1435,1873,o),
(1236,2076,o),
(857,2076,c),
(313,2076,o),
(140,1654,o),
(140,1025,c),
(140,815,o),
(161,630,o),
(207,475,c),
(273,184,o),
(500,-28,o),
(865,-28,c),
(1302,-28,o),
(1542,279,o),
(1542,657,c),
(1542,1035,o),
(1302,1343,o),
(865,1343,c)
);
}
);
width = 1682;
},
{
layerId = "F2C6FA2E-D08A-4B94-92D2-D7CA5820546A";
shapes = (
{
closed = 1;
nodes = (
(495,37,o),
(320,348,o),
(320,640,c),
(320,978,o),
(528,1279,o),
(886,1279,c),
(1244,1279,o),
(1452,978,o),
(1452,640,c),
(1452,348,o),
(1276,37,o),
(886,37,c)
);
},
{
closed = 1;
nodes = (
(552,1343,o),
(342,1136,o),
(277,852,c),
(274,907,o),
(272,965,o),
(272,1025,c),
(272,1607,o),
(419,2012,o),
(878,2012,c),
(1186,2012,o),
(1352,1830,o),
(1430,1534,c),
(1497,1534,l),
(1416,1871,o),
(1231,2076,o),
(878,2076,c),
(369,2076,o),
(208,1652,o),
(208,1025,c),
(208,793,o),
(233,589,o),
(287,425,c),
(362,160,o),
(568,-27,o),
(886,-27,c),
(1292,-27,o),
(1516,279,o),
(1516,658,c),
(1516,1036,o),
(1292,1343,o),
(886,1343,c)
);
}
);
width = 1724;
},
{
layerId = "F8E60EAC-58E2-4CB8-A8B6-FD6FE89414CC";
shapes = (
{
closed = 1;
nodes = (
(1065,482,o),
(979,556,o),
(979,652,c),
(979,748,o),
(1080,833,o),
(1256,833,c),
(1434,833,o),
(1537,748,o),
(1537,652,c),
(1537,556,o),
(1451,482,o),
(1256,482,c)
);
},
{
closed = 1;
nodes = (
(1145,1340,o),
(970,1215,o),
(920,1166,c),
(920,1199,o),
(919,1255,o),
(927,1289,cs),
(953,1394,o),
(1054,1518,o),
(1186,1518,c),
(1295,1518,o),
(1372,1470,o),
(1421,1383,c),
(2254,1383,l),
(2153,1808,o),
(1839,2077,o),
(1200,2077,c),
(397,2077,o),
(108,1653,o),
(108,1024,c),
(108,798,o),
(141,599,o),
(223,435,c),
(368,83,o),
(826,-29,o),
(1228,-29,c),
(1980,-29,o),
(2334,214,o),
(2334,657,c),
(2334,1177,o),
(2051,1340,o),
(1473,1340,c)
);
}
);
width = 2448;
},
{
layerId = m004;
shapes = (
{
closed = 1;
nodes = (
(524,196,o),
(394,392,o),
(394,643,c),
(394,895,o),
(549,1119,o),
(816,1119,c),
(1083,1119,o),
(1238,895,o),
(1238,643,c),
(1238,392,o),
(1109,196,o),
(816,196,c)
);
},
{
closed = 1;
nodes = (
(556,1343,o),
(418,1223,o),
(350,1114,c),
(351,1152,o),
(355,1187,o),
(358,1223,c),
(397,1578,o),
(524,1854,o),
(808,1854,c),
(1016,1854,o),
(1141,1734,o),
(1207,1535,c),
(1472,1535,l),
(1386,1873,o),
(1187,2076,o),
(808,2076,c),
(264,2076,o),
(91,1654,o),
(91,1025,c),
(91,815,o),
(112,630,o),
(158,475,c),
(224,184,o),
(451,-28,o),
(816,-28,c),
(1253,-28,o),
(1493,279,o),
(1493,657,c),
(1493,1035,o),
(1253,1343,o),
(816,1343,c)
);
}
);
width = 1584;
},
{
layerId = m005;
shapes = (
{
closed = 1;
nodes = (
(422,37,o),
(247,348,o),
(247,640,c),
(247,978,o),
(455,1279,o),
(813,1279,c),
(1171,1279,o),
(1379,978,o),
(1379,640,c),
(1379,348,o),
(1203,37,o),
(813,37,c)
);
},
{
closed = 1;
nodes = (
(479,1343,o),
(269,1136,o),
(204,852,c),
(201,907,o),
(199,965,o),
(199,1025,c),
(199,1607,o),
(346,2012,o),
(805,2012,c),
(1113,2012,o),
(1279,1830,o),
(1357,1534,c),
(1424,1534,l),
(1343,1871,o),
(1158,2076,o),
(805,2076,c),
(296,2076,o),
(135,1652,o),
(135,1025,c),
(135,793,o),
(160,589,o),
(214,425,c),
(289,160,o),
(495,-27,o),
(813,-27,c),
(1219,-27,o),
(1443,279,o),
(1443,658,c),
(1443,1036,o),
(1219,1343,o),
(813,1343,c)
);
}
);
width = 1578;
},
{
layerId = m006;
shapes = (
{
closed = 1;
nodes = (
(1027,482,o),
(941,556,o),
(941,652,c),
(941,748,o),
(1042,833,o),
(1218,833,c),
(1396,833,o),
(1499,748,o),
(1499,652,c),
(1499,556,o),
(1413,482,o),
(1218,482,c)
);
},
{
closed = 1;
nodes = (
(1107,1340,o),
(932,1215,o),
(882,1166,c),
(882,1199,o),
(881,1255,o),
(889,1289,cs),
(915,1394,o),
(1016,1518,o),
(1148,1518,c),
(1257,1518,o),
(1334,1470,o),
(1383,1383,c),
(2216,1383,l),
(2115,1808,o),
(1801,2077,o),
(1162,2077,c),
(359,2077,o),
(70,1653,o),
(70,1024,c),
(70,798,o),
(103,599,o),
(185,435,c),
(330,83,o),
(788,-29,o),
(1190,-29,c),
(1942,-29,o),
(2296,214,o),
(2296,657,c),
(2296,1177,o),
(2013,1340,o),
(1435,1340,c)
);
}
);
width = 2370;
}
);
note = uni0036;
unicode = 54;
},
{
glyphname = uni0037;
kernLeft = uni0037;
kernRight = uni0037;
lastChange = "2026-04-09 08:54:05 +0000";
layers = (
{
layerId = m01;
shapes = (
{
closed = 1;
nodes = (
(715,0,l),
(702,267,o),
(753,595,o),
(872,930,cs),
(1004,1306,o),
(1198,1624,o),
(1398,1824,c),
(1398,2048,l),
(118,2048,l),
(118,1824,l),
(1139,1824,l),
(938,1624,o),
(745,1306,o),
(613,930,cs),
(496,595,o),
(445,267,o),
(456,0,c)
);
}
);
width = 1528;
},
{
layerId = "F2C6FA2E-D08A-4B94-92D2-D7CA5820546A";
shapes = (
{
closed = 1;
nodes = (
(723,0,l),
(713,292,o),
(764,645,o),
(881,1011,cs),
(1013,1421,o),
(1206,1765,o),
(1407,1984,c),
(1407,2048,l),
(176,2048,l),
(176,1984,l),
(1324,1984,l),
(1123,1765,o),
(940,1421,o),
(806,1011,cs),
(689,645,o),
(638,292,o),
(648,0,c)
);
}
);
width = 1596;
},
{
layerId = "F8E60EAC-58E2-4CB8-A8B6-FD6FE89414CC";
shapes = (
{
closed = 1;
nodes = (
(1279,0,l),
(1358,254,o),
(1486,526,o),
(1665,794,cs),
(1867,1101,o),
(2107,1355,o),
(2336,1535,c),
(2336,2048,l),
(100,2048,l),
(100,1535,l),
(1582,1535,l),
(1389,1390,o),
(1196,1202,o),
(1016,982,cs),
(749,653,o),
(560,307,o),
(468,0,c)
);
}
);
width = 2458;
},
{
layerId = m004;
shapes = (
{
closed = 1;
nodes = (
(674,0,l),
(661,267,o),
(712,595,o),
(831,930,cs),
(963,1306,o),
(1157,1624,o),
(1357,1824,c),
(1357,2048,l),
(77,2048,l),
(77,1824,l),
(1098,1824,l),
(897,1624,o),
(704,1306,o),
(572,930,cs),
(455,595,o),
(404,267,o),
(415,0,c)
);
}
);
width = 1441;
},
{
layerId = m005;
shapes = (
{
closed = 1;
nodes = (
(661,0,l),
(651,292,o),
(702,645,o),
(819,1011,cs),
(951,1421,o),
(1144,1765,o),
(1345,1984,c),
(1345,2048,l),
(114,2048,l),
(114,1984,l),
(1262,1984,l),
(1061,1765,o),
(878,1421,o),
(744,1011,cs),
(627,645,o),
(576,292,o),
(586,0,c)
);
}
);
width = 1468;
},
{
layerId = m006;
shapes = (
{
closed = 1;
nodes = (
(1244,0,l),
(1323,254,o),
(1451,526,o),
(1630,794,cs),
(1832,1101,o),
(2072,1355,o),
(2301,1535,c),
(2301,2048,l),
(65,2048,l),
(65,1535,l),
(1547,1535,l),
(1354,1390,o),
(1161,1202,o),
(981,982,cs),
(714,653,o),
(525,307,o),
(433,0,c)
);
}
);
width = 2380;
}
);
note = uni0037;
unicode = 55;
},
{
glyphname = uni0038;
kernLeft = uni0036;
kernRight = uni0038;
lastChange = "2026-04-09 08:54:05 +0000";
layers = (
{
layerId = m01;
shapes = (
{
closed = 1;
nodes = (
(596,1214,o),
(470,1359,o),
(470,1534,c),
(470,1705,o),
(621,1851,o),
(878,1851,c),
(1132,1851,o),
(1283,1705,o),
(1283,1534,c),
(1283,1359,o),
(1157,1214,o),
(878,1214,c)
);
},
{
closed = 1;
nodes = (
(451,2074,o),
(214,1843,o),
(214,1557,c),
(214,1270,o),
(451,1038,o),
(878,1038,c),
(1302,1038,o),
(1539,1270,o),
(1539,1557,c),
(1539,1843,o),
(1302,2074,o),
(877,2074,c)
);
},
{
closed = 1;
nodes = (
(568,211,o),
(392,394,o),
(392,602,c),
(392,808,o),
(540,993,o),
(878,993,c),
(1213,993,o),
(1361,808,o),
(1361,602,c),
(1361,394,o),
(1185,211,o),
(878,211,c)
);
},
{
closed = 1;
nodes = (
(402,1182,o),
(136,912,o),
(136,579,c),
(136,243,o),
(402,-28,o),
(878,-28,c),
(1351,-28,o),
(1617,243,o),
(1617,579,c),
(1617,912,o),
(1351,1182,o),
(878,1182,c)
);
}
);
width = 1753;
},
{
layerId = "F2C6FA2E-D08A-4B94-92D2-D7CA5820546A";
shapes = (
{
closed = 1;
nodes = (
(514,1151,o),
(343,1342,o),
(343,1579,c),
(343,1816,o),
(548,2010,o),
(894,2010,c),
(1239,2010,o),
(1444,1816,o),
(1444,1579,c),
(1444,1342,o),
(1273,1151,o),
(894,1151,c)
);
},
{
closed = 1;
nodes = (
(495,2074,o),
(279,1853,o),
(279,1579,c),
(279,1308,o),
(495,1088,o),
(891,1088,c),
(1287,1088,o),
(1509,1308,o),
(1509,1579,c),
(1509,1853,o),
(1287,2074,o),
(891,2074,c)
);
},
{
closed = 1;
nodes = (
(495,36,o),
(264,282,o),
(264,550,c),
(264,823,o),
(459,1072,o),
(894,1072,c),
(1328,1072,o),
(1523,823,o),
(1523,550,c),
(1523,282,o),
(1292,36,o),
(894,36,c)
);
},
{
closed = 1;
nodes = (
(449,1133,o),
(200,873,o),
(200,552,c),
(200,232,o),
(449,-28,o),
(894,-28,c),
(1338,-28,o),
(1587,232,o),
(1587,552,c),
(1587,873,o),
(1338,1133,o),
(894,1133,c)
);
}
);
width = 1787;
},
{
layerId = "F8E60EAC-58E2-4CB8-A8B6-FD6FE89414CC";
shapes = (
{
closed = 1;
nodes = (
(1073,1229,o),
(990,1308,o),
(990,1405,c),
(990,1500,o),
(1089,1581,o),
(1261,1581,c),
(1432,1581,o),
(1532,1500,o),
(1532,1405,c),
(1532,1308,o),
(1448,1229,o),
(1261,1229,c)
);
},
{
closed = 1;
nodes = (
(578,2074,o),
(240,1875,o),
(240,1524,c),
(240,1173,o),
(561,974,o),
(1269,974,c),
(1977,974,o),
(2297,1173,o),
(2297,1524,c),
(2297,1875,o),
(1961,2074,o),
(1269,2074,c)
);
},
{
closed = 1;
nodes = (
(1044,453,o),
(915,552,o),
(915,665,c),
(915,776,o),
(1022,876,o),
(1265,876,c),
(1508,876,o),
(1615,776,o),
(1615,665,c),
(1615,552,o),
(1488,453,o),
(1265,453,c)
);
},
{
closed = 1;
nodes = (
(478,1117,o),
(112,937,o),
(112,544,c),
(112,151,o),
(478,-30,o),
(1265,-30,c),
(2052,-30,o),
(2418,151,o),
(2418,544,c),
(2418,937,o),
(2052,1117,o),
(1265,1117,c)
);
}
);
width = 2530;
},
{
layerId = m004;
shapes = (
{
closed = 1;
nodes = (
(548,1214,o),
(422,1359,o),
(422,1534,c),
(422,1705,o),
(573,1851,o),
(830,1851,c),
(1084,1851,o),
(1235,1705,o),
(1235,1534,c),
(1235,1359,o),
(1109,1214,o),
(830,1214,c)
);
},
{
closed = 1;
nodes = (
(403,2074,o),
(166,1843,o),
(166,1557,c),
(166,1270,o),
(403,1038,o),
(830,1038,c),
(1254,1038,o),
(1491,1270,o),
(1491,1557,c),
(1491,1843,o),
(1254,2074,o),
(829,2074,c)
);
},
{
closed = 1;
nodes = (
(520,211,o),
(344,394,o),
(344,602,c),
(344,808,o),
(492,993,o),
(830,993,c),
(1165,993,o),
(1313,808,o),
(1313,602,c),
(1313,394,o),
(1137,211,o),
(830,211,c)
);
},
{
closed = 1;
nodes = (
(354,1182,o),
(88,912,o),
(88,579,c),
(88,243,o),
(354,-28,o),
(830,-28,c),
(1303,-28,o),
(1569,243,o),
(1569,579,c),
(1569,912,o),
(1303,1182,o),
(830,1182,c)
);
}
);
width = 1657;
},
{
layerId = m005;
shapes = (
{
closed = 1;
nodes = (
(444,1151,o),
(273,1342,o),
(273,1579,c),
(273,1816,o),
(478,2010,o),
(824,2010,c),
(1169,2010,o),
(1374,1816,o),
(1374,1579,c),
(1374,1342,o),
(1203,1151,o),
(824,1151,c)
);
},
{
closed = 1;
nodes = (
(425,2074,o),
(209,1853,o),
(209,1579,c),
(209,1308,o),
(425,1088,o),
(821,1088,c),
(1217,1088,o),
(1439,1308,o),
(1439,1579,c),
(1439,1853,o),
(1217,2074,o),
(821,2074,c)
);
},
{
closed = 1;
nodes = (
(425,36,o),
(194,282,o),
(194,550,c),
(194,823,o),
(389,1072,o),
(824,1072,c),
(1258,1072,o),
(1453,823,o),
(1453,550,c),
(1453,282,o),
(1222,36,o),
(824,36,c)
);
},
{
closed = 1;
nodes = (
(379,1133,o),
(130,873,o),
(130,552,c),
(130,232,o),
(379,-28,o),
(824,-28,c),
(1268,-28,o),
(1517,232,o),
(1517,552,c),
(1517,873,o),
(1268,1133,o),
(824,1133,c)
);
}
);
width = 1647;
},
{
layerId = m006;
shapes = (
{
closed = 1;
nodes = (
(1034,1229,o),
(951,1308,o),
(951,1405,c),
(951,1500,o),
(1050,1581,o),
(1222,1581,c),
(1393,1581,o),
(1493,1500,o),
(1493,1405,c),
(1493,1308,o),
(1409,1229,o),
(1222,1229,c)
);
},
{
closed = 1;
nodes = (
(539,2074,o),
(201,1875,o),
(201,1524,c),
(201,1173,o),
(522,974,o),
(1230,974,c),
(1938,974,o),
(2258,1173,o),
(2258,1524,c),
(2258,1875,o),
(1922,2074,o),
(1230,2074,c)
);
},
{
closed = 1;
nodes = (
(1005,453,o),
(876,552,o),
(876,665,c),
(876,776,o),
(983,876,o),
(1226,876,c),
(1469,876,o),
(1576,776,o),
(1576,665,c),
(1576,552,o),
(1449,453,o),
(1226,453,c)
);
},
{
closed = 1;
nodes = (
(439,1117,o),
(73,937,o),
(73,544,c),
(73,151,o),
(439,-30,o),
(1226,-30,c),
(2013,-30,o),
(2379,151,o),
(2379,544,c),
(2379,937,o),
(2013,1117,o),
(1226,1117,c)
);
}
);
width = 2452;
}
);
note = uni0038;
unicode = 56;
},
{
glyphname = uni0039;
kernLeft = uni0039;
kernRight = uni0030;
lastChange = "2026-04-09 08:54:05 +0000";
layers = (
{
layerId = m01;
shapes = (
{
closed = 1;
nodes = (
(1109,1852,o),
(1239,1656,o),
(1239,1405,c),
(1239,1153,o),
(1084,929,o),
(817,929,c),
(550,929,o),
(395,1153,o),
(395,1405,c),
(395,1656,o),
(524,1852,o),
(817,1852,c)
);
},
{
closed = 1;
nodes = (
(1077,705,o),
(1215,825,o),
(1283,934,c),
(1283,934,o),
(1283,825,o),
(1283,825,c),
(1282,470,o),
(1109,194,o),
(825,194,c),
(617,194,o),
(492,314,o),
(426,513,c),
(161,513,l),
(247,175,o),
(446,-28,o),
(825,-28,c),
(1369,-28,o),
(1542,394,o),
(1542,1023,c),
(1542,1233,o),
(1521,1418,o),
(1475,1573,c),
(1409,1864,o),
(1182,2076,o),
(817,2076,c),
(380,2076,o),
(140,1769,o),
(140,1391,c),
(140,1013,o),
(380,705,o),
(817,705,c)
);
}
);
width = 1682;
},
{
layerId = "F2C6FA2E-D08A-4B94-92D2-D7CA5820546A";
shapes = (
{
closed = 1;
nodes = (
(1229,2012,o),
(1404,1701,o),
(1404,1409,c),
(1404,1071,o),
(1196,770,o),
(838,770,c),
(480,770,o),
(272,1071,o),
(272,1409,c),
(272,1701,o),
(448,2012,o),
(838,2012,c)
);
},
{
closed = 1;
nodes = (
(1172,706,o),
(1382,913,o),
(1447,1197,c),
(1450,1142,o),
(1452,1084,o),
(1452,1024,c),
(1452,442,o),
(1305,37,o),
(846,37,c),
(538,37,o),
(372,219,o),
(294,515,c),
(227,515,l),
(308,178,o),
(493,-27,o),
(846,-27,c),
(1355,-27,o),
(1516,397,o),
(1516,1024,c),
(1516,1256,o),
(1491,1460,o),
(1437,1624,c),
(1362,1889,o),
(1156,2076,o),
(838,2076,c),
(432,2076,o),
(208,1770,o),
(208,1391,c),
(208,1013,o),
(432,706,o),
(838,706,c)
);
}
);
width = 1724;
},
{
layerId = "F8E60EAC-58E2-4CB8-A8B6-FD6FE89414CC";
shapes = (
{
closed = 1;
nodes = (
(1383,1566,o),
(1469,1492,o),
(1469,1396,c),
(1469,1300,o),
(1368,1215,o),
(1192,1215,c),
(1014,1215,o),
(911,1300,o),
(911,1396,c),
(911,1492,o),
(997,1566,o),
(1192,1566,c)
);
},
{
closed = 1;
nodes = (
(1241,704,o),
(1478,763,o),
(1528,812,c),
(1528,812,o),
(1528,771,o),
(1528,755,cs),
(1530,658,o),
(1451,530,o),
(1262,530,c),
(1153,530,o),
(1076,578,o),
(1027,665,c),
(194,665,l),
(295,240,o),
(609,-29,o),
(1248,-29,c),
(2051,-29,o),
(2340,395,o),
(2340,1024,c),
(2340,1250,o),
(2307,1449,o),
(2225,1613,c),
(2080,1965,o),
(1622,2077,o),
(1220,2077,c),
(398,2077,o),
(114,1816,o),
(114,1391,c),
(114,965,o),
(370,704,o),
(1065,704,c)
);
}
);
width = 2448;
},
{
layerId = m004;
shapes = (
{
closed = 1;
nodes = (
(1060,1852,o),
(1190,1656,o),
(1190,1405,c),
(1190,1153,o),
(1035,929,o),
(768,929,c),
(501,929,o),
(346,1153,o),
(346,1405,c),
(346,1656,o),
(475,1852,o),
(768,1852,c)
);
},
{
closed = 1;
nodes = (
(1028,705,o),
(1166,825,o),
(1234,934,c),
(1234,934,o),
(1234,825,o),
(1234,825,c),
(1233,470,o),
(1060,194,o),
(776,194,c),
(568,194,o),
(443,314,o),
(377,513,c),
(112,513,l),
(198,175,o),
(397,-28,o),
(776,-28,c),
(1320,-28,o),
(1493,394,o),
(1493,1023,c),
(1493,1233,o),
(1472,1418,o),
(1426,1573,c),
(1360,1864,o),
(1133,2076,o),
(768,2076,c),
(331,2076,o),
(91,1769,o),
(91,1391,c),
(91,1013,o),
(331,705,o),
(768,705,c)
);
}
);
width = 1584;
},
{
layerId = m005;
shapes = (
{
closed = 1;
nodes = (
(1156,2012,o),
(1331,1701,o),
(1331,1409,c),
(1331,1071,o),
(1123,770,o),
(765,770,c),
(407,770,o),
(199,1071,o),
(199,1409,c),
(199,1701,o),
(375,2012,o),
(765,2012,c)
);
},
{
closed = 1;
nodes = (
(1099,706,o),
(1309,913,o),
(1374,1197,c),
(1377,1142,o),
(1379,1084,o),
(1379,1024,c),
(1379,442,o),
(1232,37,o),
(773,37,c),
(465,37,o),
(299,219,o),
(221,515,c),
(154,515,l),
(235,178,o),
(420,-27,o),
(773,-27,c),
(1282,-27,o),
(1443,397,o),
(1443,1024,c),
(1443,1256,o),
(1418,1460,o),
(1364,1624,c),
(1289,1889,o),
(1083,2076,o),
(765,2076,c),
(359,2076,o),
(135,1770,o),
(135,1391,c),
(135,1013,o),
(359,706,o),
(765,706,c)
);
}
);
width = 1578;
},
{
layerId = m006;
shapes = (
{
closed = 1;
nodes = (
(1343,1566,o),
(1429,1492,o),
(1429,1396,c),
(1429,1300,o),
(1328,1215,o),
(1152,1215,c),
(974,1215,o),
(871,1300,o),
(871,1396,c),
(871,1492,o),
(957,1566,o),
(1152,1566,c)
);
},
{
closed = 1;
nodes = (
(1201,704,o),
(1438,763,o),
(1488,812,c),
(1488,812,o),
(1488,771,o),
(1488,755,cs),
(1490,658,o),
(1411,530,o),
(1222,530,c),
(1113,530,o),
(1036,578,o),
(987,665,c),
(154,665,l),
(255,240,o),
(569,-29,o),
(1208,-29,c),
(2011,-29,o),
(2300,395,o),
(2300,1024,c),
(2300,1250,o),
(2267,1449,o),
(2185,1613,c),
(2040,1965,o),
(1582,2077,o),
(1180,2077,c),
(358,2077,o),
(74,1816,o),
(74,1391,c),
(74,965,o),
(330,704,o),
(1025,704,c)
);
}
);
width = 2370;
}
);
note = uni0039;
unicode = 57;
},
